<svg id="logo_couleur" data-name="logo couleur" xmlns="http://www.w3.org/2000/svg" viewBox="0 0 174.35 326.03"><defs><style>.cls-1,.cls-2{fill:none;}.cls-2,.cls-6{stroke:#1b2c3d;}.cls-2{stroke-linecap:round;stroke-linejoin:round;stroke-width:1.05px;}.cls-3,.cls-6{fill:#1b2c3d;}.cls-4{fill:#fff;}.cls-5{fill:#c21515;}.cls-6{stroke-miterlimit:10;stroke-width:0.25px;}</style></defs><title>LOGO SDIS79-Artboard 1 copy 2360ppi</title><polygon class="cls-1" points="87.95 312.16 169.71 52.32 4.71 52.32 87.95 312.16"/><polygon class="cls-1" points="87.95 312.16 169.71 52.32 4.71 52.32 87.95 312.16"/><polygon class="cls-1" points="67.99 13.28 80.83 25.21 87.95 1.71 95.07 25.21 106.63 12.74 103.75 32.33 94.78 41.95 87.98 33.42 81.49 41.98 70.69 32.33 67.99 13.28"/><line class="cls-2" x1="87.95" y1="1.71" x2="87.98" y2="49.33"/><path class="cls-1" d="M138.54,60.4c1.87,2.32,3.21,4.2,4,5.36,2.29-3.37,8.64-12.72,12.68-18.43a12.79,12.79,0,0,0-3.3-5.54Z"/><path class="cls-1" d="M94.31,28.43a88.62,88.62,0,0,1,21.38,10.78l2.58-3.37C110.17,30.41,100.64,28.83,94.31,28.43Z"/><path class="cls-1" d="M137.21,58.77l13.12-18.26a10.43,10.43,0,0,0-4.56-1.72H128.1L123.36,45A108.87,108.87,0,0,1,137.21,58.77Z"/><path class="cls-1" d="M138.54,60.4c1.87,2.32,3.21,4.2,4,5.36,2.29-3.37,8.64-12.72,12.68-18.43a12.79,12.79,0,0,0-3.3-5.54Z"/><path class="cls-1" d="M53.79,35.05l-1.11-1.46-4.12,3.15h3.09C52.35,36.14,53.07,35.59,53.79,35.05Z"/><path class="cls-1" d="M81.09,28.37c-6.15.29-16,1.7-24.38,7.15l2.77,3.61A106.19,106.19,0,0,1,81.09,28.37Z"/><polyline class="cls-1" points="54.51 45.08 55.27 46.08 59.66 42.72 59.01 41.87"/><path class="cls-1" d="M28.65,38.78c-.22,0-6.91.6-9.37,8.54,4,5.69,10.34,15,12.65,18.4a91.83,91.83,0,0,1,19.74-21l-4.54-5.94Z"/><path class="cls-1" d="M45.86,36.74a1,1,0,0,1,.39-.79h0A2.32,2.32,0,0,1,45,35.16a2.39,2.39,0,0,1-.48-1.77A5.68,5.68,0,0,1,50,28.91a2.35,2.35,0,0,1,1.64.84,2.37,2.37,0,0,1,.49,1.73l.15-.12a1,1,0,0,1,.75-.2,1,1,0,0,1,.68.39l1.78,2.34c13.89-9.13,31-7.57,31.83-7.49a1,1,0,0,1,.92.91,1,1,0,0,1-.72,1.07A105.58,105.58,0,0,0,60.71,40.74l1.18,1.55a1,1,0,0,1-.18,1.43l-6,4.59a1,1,0,0,1-.62.21H55a1,1,0,0,1-.67-.39L52.9,46.33c-1.3,1-2.54,2.05-3.7,3.07H169.84L87.91,2.14,25.68,37.48a11.42,11.42,0,0,1,2.91-.73Z"/><path class="cls-1" d="M47.13,38.78H28.65a10.36,10.36,0,0,0-4.5,1.71l6.41,8.91H46.17c1.69-1.54,3.51-3.11,5.5-4.68Z"/><path class="cls-1" d="M17.18,47.23A14.52,14.52,0,0,1,22,39.55h0L4.71,49.4H18.26c-.32-.46-.63-.9-.93-1.31A1.05,1.05,0,0,1,17.18,47.23Z"/><polygon class="cls-1" points="53.28 43.47 54.51 45.08 55.27 46.08 59.66 42.72 59.01 41.87 57.78 40.26 55.04 36.68 53.79 35.05 52.68 33.59 48.56 36.74 48.29 36.95 49.69 38.78 53.28 43.47"/><path class="cls-1" d="M37.22,58.67c1.61-1.92,3.57-4.07,5.86-6.35H32.66Z"/><path class="cls-1" d="M22.56,41.76a12.89,12.89,0,0,0-3.28,5.56l1.46,2.08h7.31Z"/><path class="cls-1" d="M31.93,65.72c.77-1.19,2.09-3.08,4-5.42l-5.73-8H22.77C26.32,57.45,30.22,63.2,31.93,65.72Z"/><path class="cls-1" d="M81.09,28.37c-6.15.29-16,1.7-24.38,7.15l2.77,3.61A106.19,106.19,0,0,1,81.09,28.37Z"/><path class="cls-1" d="M32.86,68.08a1,1,0,0,1-.85.52h0a1,1,0,0,1-.84-.45c-.08-.1-6-8.85-10.83-15.83H4.71L88,312.16,169.71,52.32H46C37,60.84,32.93,67.94,32.86,68.08Z"/><path class="cls-1" d="M151.92,41.79l-5.47,7.6h7.32c.5-.72,1-1.42,1.45-2.06A12.79,12.79,0,0,0,151.92,41.79Z"/><path class="cls-1" d="M142.53,68.61h0a1,1,0,0,1-.84-.49,93.68,93.68,0,0,0-13.19-15.8H46q1.52-1.44,3.22-2.92h76.16q-1.55-1.39-3.23-2.8L123.36,45c1.78,1.48,3.43,3,5,4.41H144l6.38-8.88a10.43,10.43,0,0,0-4.56-1.72H128.1l1.08-1.41a1,1,0,0,0,.19-.63h16.47a13.21,13.21,0,0,1,6.37,2.64.59.59,0,0,1,.14.06c.05,0,.07.08.11.12a14.57,14.57,0,0,1,4.85,7.67,1,1,0,0,1-.15.86l-.91,1.29h13.59L87.91,2.14,25.68,37.48a13.55,13.55,0,0,0-3.41,1.91s-.09,0-.12,0a.35.35,0,0,0-.1.11L4.71,49.4H18.26c.64.91,1.32,1.9,2,2.92H4.71L88,312.16,169.71,52.32h-15.5c-4.84,7-10.77,15.74-10.84,15.84A1,1,0,0,1,142.53,68.61Z"/><path class="cls-1" d="M137.21,58.77l4.63-6.45H131.35C133.61,54.63,135.57,56.82,137.21,58.77Z"/><path class="cls-1" d="M138.54,60.4c1.87,2.32,3.21,4.2,4,5.36,1.69-2.5,5.63-8.28,9.19-13.44h-7.38Z"/><path class="cls-3" d="M174.31,49.53,88.44,0l-.52-.3L0,49.53l3.28,10.2L88,324.91,174.34,49.55v0Zm-4.6,2.79L88,312.16,4.71,52.32H20.3c-.72-1-1.4-2-2-2.92H4.71l17.34-9.85a.35.35,0,0,1,.1-.11s.08,0,.12,0a13.55,13.55,0,0,1,3.41-1.91L87.91,2.14l81.93,47.25H156.25l-2,2.93Z"/><polygon class="cls-1" points="94.6 75.09 97.53 74.42 113.2 52.32 110.72 52.32 94.6 75.09"/><polygon class="cls-1" points="117.26 46.59 115.61 45.42 112.8 49.39 115.27 49.39 117.26 46.59"/><path class="cls-3" d="M128.47,52.32q-1.47-1.44-3.11-2.93h-7.59l-2.08,2.93Z"/><path class="cls-1" d="M93.57,39.52l1.25,1.62,7-7.51q-2.1-1-4.31-1.83Z"/><path class="cls-1" d="M72.82,46.49,67.37,36.8c-1,.55-2,1.1-3,1.67Z"/><path class="cls-1" d="M92,37.49l.85,1.11,3.67-7.18c-.82-.31-1.64-.62-2.47-.91Z"/><path class="cls-1" d="M87.19,26.39a50.07,50.07,0,0,1,7,0l.33-1.14L88,3.51l-6.58,21.7.32,1.07A44.92,44.92,0,0,1,87.19,26.39Z"/><path class="cls-1" d="M64.48,31.65a42.29,42.29,0,0,0-4.9,2.19L62.9,37c1.13-.67,2.28-1.34,3.48-2Z"/><path class="cls-1" d="M68.91,16l1.65,11.66c1.51-.34,3-.6,4.37-.8Z"/><path class="cls-1" d="M81.09,28.37c-1.19.06-2.53.16-4,.32l.55,1C78.8,29.23,79.93,28.79,81.09,28.37Z"/><path class="cls-1" d="M80.37,25.51h0L70,15.9l6,10.82c1.66-.21,3.19-.33,4.57-.4Z"/><path class="cls-1" d="M82.93,39.14l1-1.44-2.19-7.4c-1.05.38-2.09.78-3.11,1.18Z"/><path class="cls-1" d="M114.74,20.53l-9.17,7.07-.13.45c1.43.37,2.87.8,4.33,1.32Z"/><path class="cls-1" d="M105.64,15.86,100,27c1.26.19,2.57.43,3.92.73Z"/><path class="cls-1" d="M115.93,20.55l-5.16,9.18a44.61,44.61,0,0,1,5.16,2.34Z"/><path class="cls-1" d="M104.48,15.83l-8.94,9.64-.28.94c1.13.09,2.35.21,3.63.38Z"/><path class="cls-1" d="M104.9,30.07l-.67,2.48c1,.48,2,1,2.92,1.49l1.59-2.84C107.45,30.76,106.17,30.39,104.9,30.07Z"/><path class="cls-1" d="M73.56,45.66,70.83,35c-.86.43-1.7.86-2.53,1.3Z"/><path class="cls-1" d="M99,28.91,98.44,30q2.48,1,4.82,2.1l.34-2.32C102,29.39,100.45,29.11,99,28.91Z"/><path class="cls-1" d="M94.66,28.45l0,.1c1,.33,1.91.67,2.84,1l.41-.82C96.74,28.62,95.67,28.52,94.66,28.45Z"/><path class="cls-1" d="M100.76,45.41l5.39-9.6q-1.22-.64-2.46-1.26Z"/><path class="cls-1" d="M58.68,21.33V32a44.92,44.92,0,0,1,4.77-2.18Z"/><polygon class="cls-1" points="57.78 40.26 55.04 36.68 53.79 35.05 52.68 33.59 48.56 36.74 48.29 36.95 49.69 38.78 53.28 43.47 54.51 45.08 55.27 46.08 59.66 42.72 59.01 41.87 57.78 40.26"/><path class="cls-1" d="M101.34,46.51l8.81-8.42c-1-.61-2-1.2-3.08-1.77Z"/><path class="cls-1" d="M82.78,29.94l2,6.69,2.79-3.84a.53.53,0,0,1,.42-.21.5.5,0,0,1,.42.2l2.83,3.68,1.84-6.28c-1.9-.63-3.84-1.21-5.84-1.71Q84.94,29.18,82.78,29.94Z"/><path class="cls-1" d="M56.71,35.52l2.77,3.61c.8-.53,1.64-1.05,2.48-1.56l-3.34-3.2C58,34.73,57.34,35.11,56.71,35.52Z"/><path class="cls-1" d="M69.05,28l-9.22-6.77,4.62,8.21c1.55-.56,3.09-1,4.6-1.42Z"/><path class="cls-1" d="M76,28.82c-1.62.22-3.36.52-5.16.93l.33,2.32.36.31c1.66-.79,3.39-1.56,5.17-2.29Z"/><path class="cls-1" d="M65.48,31.29l1.82,3.23c1-.52,2-1,3-1.54l-.75-2.92C68.23,30.4,66.86,30.81,65.48,31.29Z"/><path class="cls-1" d="M81.41,41.21l.31-.4.53-.73-4.54-8.2c-1.55.64-3.07,1.29-4.53,2Z"/><path class="cls-1" d="M108.07,34.53c1.24.68,2.43,1.38,3.6,2.1l3-2.89a42.12,42.12,0,0,0-5-2.18Z"/><path class="cls-3" d="M94.31,28.43c.11,0,.21.08.32.12l0-.1Z"/><path class="cls-3" d="M101.34,46.51l5.73-10.19-.92-.51-5.39,9.6,2.93-10.86-1.87-.92-7,7.51-1.25-1.62,3.94-7.72-1-.38L92.86,38.6,92,37.49l2-7-1-.33-1.84,6.28-2.83-3.68a.5.5,0,0,0-.42-.2.53.53,0,0,0-.42.21l-2.79,3.84-2-6.69-1,.36L84,37.7l-1,1.44-4.25-7.66-1,.4,4.54,8.2-.53.73-.31.4-8.23-7.36-1,.5,9,8,0,0,6.33,7.15v0h0l0,0,.07.08,0,0,0,0,0,0h0l0,0,0,0,.15,0h.16a.39.39,0,0,0,.25-.14l6.77-7.37h0l7.53-8.08-4,15v.05a.15.15,0,0,0,0,.07.49.49,0,0,0,0,.12s0,0,0,.06l.06.12,0,0a.58.58,0,0,0,.14.13h0a.48.48,0,0,0,.26.07.49.49,0,0,0,.23-.06l.06,0,.07,0,11.56-11.07-.93-.55Z"/><path class="cls-3" d="M58.68,21.33l4.77,8.48,1-.36-4.62-8.21L69.05,28v0l1.51-.36L68.91,16l6,10.86c.37-.06.75-.11,1.11-.15L70,15.9l10.33,9.6h0l.24.81,1.08,0-.32-1.07L88,3.51l6.57,21.7-.33,1.14,1.07.06.28-.94,8.94-9.64-5.59,11L100,27l5.66-11.09L103.9,27.68l1.54.37.13-.45,9.17-7.07-5,8.84c.34.11.67.24,1,.36l5.16-9.18V32.07l1,.57V18.55s0,0,0,0a.47.47,0,0,0-.06-.2s0,0,0,0a.49.49,0,0,0-.18-.17h-.06a.52.52,0,0,0-.21,0h-.07a.5.5,0,0,0-.23.09l-11,8.5,2-13.81a.51.51,0,0,0-.29-.55.54.54,0,0,0-.61.11L95.3,24.18,88.45,1.55a.54.54,0,0,0-1,0L80.57,24.26,68.34,12.89h0a.42.42,0,0,0-.25-.12H68a.63.63,0,0,0-.26.05h0a.58.58,0,0,0-.19.19s0,0,0,.06a.52.52,0,0,0,0,.27h0L69.4,27,58.59,19l-.19-.32a.52.52,0,0,0-.91.51l.15.26v13.1c.34-.2.69-.39,1-.58Z"/><path class="cls-3" d="M73.56,45.66,68.3,36.3l-.93.5,5.45,9.69-8.4-8-.94.55,11.1,10.6.21.37a.53.53,0,0,0,.46.27.47.47,0,0,0,.25-.07.51.51,0,0,0,.2-.71l-.16-.3L71.79,34.52l-1,.48Z"/><path class="cls-3" d="M71.79,34.52l.37-.17-.53-.48Z"/><path class="cls-3" d="M22.27,39.39s-.09,0-.12,0a.35.35,0,0,0-.1.11l3.63-2.07A13.55,13.55,0,0,0,22.27,39.39Z"/><path class="cls-3" d="M84.84,137.15l-3.72-2.83c-.11.59-.21,1.1-.33,1.75l.87.19c-.09.65-.19,1.33-.32,2.17Z"/><path class="cls-4" d="M117.59,142.85c-.08.5-.17,1-.27,1.54a1.09,1.09,0,0,1-.15.35c0,.25.11.51.15.77A39.21,39.21,0,0,0,120,133.89,57,57,0,0,1,117.59,142.85Z"/><path class="cls-1" d="M30.54,114.45l15.08,47.46,97.17-41.27,19.58-62.18Zm110.73,3.9-92.88,39.1a1.52,1.52,0,0,1-1.18-2.81l92.88-39.11a1.53,1.53,0,0,1,1.18,2.82Zm2.14-33.27-.07,1.38A3.11,3.11,0,0,1,141.15,89c-1.91.74-1.87-.93-1.87-.93.1-2.1-.1-3.4-.6-3.91s-1.4-.52-2.71,0l-1.13.42-.59.22c-.2.08-.42.18-.63.29a7.38,7.38,0,0,0-1.14.67,5.55,5.55,0,0,0-1,.93,4.5,4.5,0,0,0-.68,1.37,10.57,10.57,0,0,0-.34,1.62c0,.22,0,.43,0,.63s0,.4-.05.58c-.09,1.8.07,3,.47,3.46s1.17.57,2.31.23a1.81,1.81,0,0,1,.31-.09,2.28,2.28,0,0,0,.35-.11c.26-.06.53-.15.82-.24s.56-.19.82-.29a12.54,12.54,0,0,1,5.68-.78q2.43.3,2.09,7.37a31.24,31.24,0,0,1-1.26,7.79,9.15,9.15,0,0,1-4.35,5.2c-.68.36-1.37.7-2.07,1s-1.38.63-2.09.93a11.83,11.83,0,0,1-6.15,1.23,2.2,2.2,0,0,1-1.51-1.57,14.31,14.31,0,0,1-.51-5.07c0-.9.08-1.8.12-2.7a3.45,3.45,0,0,1,2.07-2.92,1.3,1.3,0,0,1,2,1.29,17.12,17.12,0,0,0,.21,4.12c.22,1.08.95,1.38,2.2.89.51-.17,1.05-.37,1.58-.6l1.58-.65a6.46,6.46,0,0,0,2.92-2.13,9,9,0,0,0,1.09-4.56c.11-2.35-.2-3.59-1-3.71a6,6,0,0,0-2.88.47l-.69.27a5.39,5.39,0,0,1-.68.22l-.37.12-.33.06c-2.33.68-4.14.76-5.4.25s-1.79-3.17-1.56-8a20.6,20.6,0,0,1,1.53-7.51,8.77,8.77,0,0,1,4.22-4.34c.6-.29,1.19-.55,1.77-.8s1.15-.48,1.72-.69a13.75,13.75,0,0,1,5.91-1Q143.74,78.25,143.41,85.08Zm15.18-18.64L36.14,118A1.52,1.52,0,1,1,35,115.19L157.41,63.63a1.52,1.52,0,1,1,1.18,2.81Z"/><path class="cls-1" d="M115.55,144.87c-6.44-7.38-24.83-18.16-34.09-21.84l-.1-.07c-1.7.89-4.68,2.47-6.46,3.42,5.59,2.26,25.2,10.78,41.4,25.22a32.93,32.93,0,0,0-.65-6.66Z"/><path class="cls-1" d="M79.61,130.82c0,.09-.17.64-.2.78,3.11-.44,6.2,2,7.12,3.56l-1.26.79a2.26,2.26,0,0,0-.46-.58c-.55-.49-2.23-2.06-3.9-1.77a5.29,5.29,0,0,0-1.26.36,3.4,3.4,0,0,1-.77,3l-.13.15-.06.07h0c-.3.34-.6.69-.89,1l-.69.83c-.61.74-1.24,1.5-1.94,2.27l-.21.24a3.37,3.37,0,0,0-.59.93.93.93,0,0,0,0,.37,1.41,1.41,0,0,0,.55.82h0l.11.09.15.1a.57.57,0,0,0,.13.08,2.81,2.81,0,0,1,.56.35l.32.23a.46.46,0,0,1,.27-.18,11.76,11.76,0,0,1,2.19.25l-.09.3a8.88,8.88,0,0,1-1.67.62h-.18a3.46,3.46,0,0,1-.23,1.16l0,.08a1.87,1.87,0,0,0-.1.39c0,.07.11.22.17.35a2,2,0,0,0,.37.27l.36.14.35.14.07,0a.81.81,0,0,1,.25.08l.25.22.33.83V150l-1.16-.41-.06,0a.75.75,0,0,1-.32-.12l-.32-.12a3.3,3.3,0,0,0-.18.32.62.62,0,0,0,.06.76,1,1,0,0,1,.1.17,2.59,2.59,0,0,1,.42,2.53,3.77,3.77,0,0,1-.14.7,3.25,3.25,0,0,0,.43,2.35,1.79,1.79,0,0,0,.8.62,5.11,5.11,0,0,0,.75.2h0l.41.05h.08a30.8,30.8,0,0,1,4,.59l.2,0a.78.78,0,0,1,.38.06l.33,0c3.55-5.35,9.46-16.46,9.13-20.54-5.28-3.05-10.07-5.41-13.7-7.07A4.58,4.58,0,0,0,79.61,130.82Z"/><path class="cls-1" d="M98.11,231.78l-6.61,5.8a32,32,0,0,0-3.2-22.12l-.38-.68-.39.68a32,32,0,0,0-3.2,22.12l-6.61-5.8a30.53,30.53,0,0,0,8.59,20.95L80.44,249s1.68,9.79,7.09,11.6a1.27,1.27,0,0,0,.77,0c5.41-1.81,7.09-11.6,7.09-11.6l-5.87,3.72A30.53,30.53,0,0,0,98.11,231.78Z"/><path class="cls-1" d="M88,265.27a3.25,3.25,0,1,0,3.25,3.25A3.25,3.25,0,0,0,88,265.27Z"/><path class="cls-1" d="M141.28,78a13.75,13.75,0,0,0-5.91,1c-.57.21-1.15.44-1.72.69s-1.17.51-1.77.8a8.77,8.77,0,0,0-4.22,4.34,20.6,20.6,0,0,0-1.53,7.51c-.23,4.79.29,7.45,1.56,8s3.07.43,5.4-.25l.33-.06.37-.12a5.39,5.39,0,0,0,.68-.22l.69-.27a6,6,0,0,1,2.88-.47c.75.12,1.06,1.36,1,3.71a9,9,0,0,1-1.09,4.56,6.46,6.46,0,0,1-2.92,2.13l-1.58.65c-.53.23-1.07.43-1.58.6-1.25.49-2,.19-2.2-.89a17.12,17.12,0,0,1-.21-4.12,1.3,1.3,0,0,0-2-1.29,3.45,3.45,0,0,0-2.07,2.92c0,.9-.1,1.8-.12,2.7a14.31,14.31,0,0,0,.51,5.07,2.2,2.2,0,0,0,1.51,1.57,11.83,11.83,0,0,0,6.15-1.23c.71-.3,1.4-.61,2.09-.93s1.39-.68,2.07-1a9.15,9.15,0,0,0,4.35-5.2,31.24,31.24,0,0,0,1.26-7.79q.35-7.06-2.09-7.37a12.54,12.54,0,0,0-5.68.78c-.26.1-.53.2-.82.29s-.56.18-.82.24a2.28,2.28,0,0,1-.35.11,1.81,1.81,0,0,0-.31.09c-1.14.34-1.91.27-2.31-.23s-.56-1.66-.47-3.46c0-.18,0-.37.05-.58s0-.41,0-.63a10.57,10.57,0,0,1,.34-1.62,4.5,4.5,0,0,1,.68-1.37,5.55,5.55,0,0,1,1-.93,7.38,7.38,0,0,1,1.14-.67c.21-.11.43-.21.63-.29l.59-.22,1.13-.42c1.31-.49,2.21-.48,2.71,0s.7,1.81.6,3.91c0,0,0,1.67,1.87.93a3.11,3.11,0,0,0,2.19-2.49l.07-1.38Q143.74,78.26,141.28,78Z"/><path class="cls-1" d="M111.08,119.55a19.24,19.24,0,0,0-9.14-5.31,15.91,15.91,0,0,0-7.75-.34,13.55,13.55,0,0,0-3.54,1.4c-1.41,3.12-2.8,3.64-4.07,3.07l0,0a4.7,4.7,0,0,1-1.34,4c9.21,4.21,23.52,12.72,30.45,19.6a38,38,0,0,0,.41-11A20.71,20.71,0,0,0,111.08,119.55Z"/><path class="cls-1" d="M100.47,110a8.42,8.42,0,0,0-1.07,1.31l-.28.38a20.91,20.91,0,0,1,3.35.63,21.22,21.22,0,0,1,10.1,5.89,22.77,22.77,0,0,1,5.53,12.62,32.45,32.45,0,0,1,.23,3.48c1-5.15.89-10.42-1.89-14.29C111.6,113.22,107.41,110.59,100.47,110Z"/><path class="cls-3" d="M37.4,58.46h-.32l.14.21Z"/><path class="cls-1" d="M98.11,231.78l-6.61,5.8a32,32,0,0,0-3.2-22.12l-.38-.68-.39.68a32,32,0,0,0-3.2,22.12l-6.61-5.8a30.53,30.53,0,0,0,8.59,20.95L80.44,249s1.68,9.79,7.09,11.6a1.27,1.27,0,0,0,.77,0c5.41-1.81,7.09-11.6,7.09-11.6l-5.87,3.72A30.53,30.53,0,0,0,98.11,231.78Z"/><path class="cls-1" d="M88,265.27a3.25,3.25,0,1,0,3.25,3.25A3.25,3.25,0,0,0,88,265.27Z"/><path class="cls-1" d="M115.55,144.87c-6.44-7.38-24.83-18.16-34.09-21.84l-.1-.07c-1.7.89-4.68,2.47-6.46,3.42,5.59,2.26,25.2,10.78,41.4,25.22a32.93,32.93,0,0,0-.65-6.66Z"/><path class="cls-1" d="M79.61,130.82c0,.09-.17.64-.2.78,3.11-.44,6.2,2,7.12,3.56l-1.26.79a2.26,2.26,0,0,0-.46-.58c-.55-.49-2.23-2.06-3.9-1.77a5.29,5.29,0,0,0-1.26.36,3.4,3.4,0,0,1-.77,3l-.13.15-.06.07h0c-.3.34-.6.69-.89,1l-.69.83c-.61.74-1.24,1.5-1.94,2.27l-.21.24a3.37,3.37,0,0,0-.59.93.93.93,0,0,0,0,.37,1.41,1.41,0,0,0,.55.82h0l.11.09.15.1a.57.57,0,0,0,.13.08,2.81,2.81,0,0,1,.56.35l.32.23a.46.46,0,0,1,.27-.18,11.76,11.76,0,0,1,2.19.25l-.09.3a8.88,8.88,0,0,1-1.67.62h-.18a3.46,3.46,0,0,1-.23,1.16l0,.08a1.87,1.87,0,0,0-.1.39c0,.07.11.22.17.35a2,2,0,0,0,.37.27l.36.14.35.14.07,0a.81.81,0,0,1,.25.08l.25.22.33.83V150l-1.16-.41-.06,0a.75.75,0,0,1-.32-.12l-.32-.12a3.3,3.3,0,0,0-.18.32.62.62,0,0,0,.06.76,1,1,0,0,1,.1.17,2.59,2.59,0,0,1,.42,2.53,3.77,3.77,0,0,1-.14.7,3.25,3.25,0,0,0,.43,2.35,1.79,1.79,0,0,0,.8.62,5.11,5.11,0,0,0,.75.2h0l.41.05h.08a30.8,30.8,0,0,1,4,.59l.2,0a.78.78,0,0,1,.38.06l.33,0c3.55-5.35,9.46-16.46,9.13-20.54-5.28-3.05-10.07-5.41-13.7-7.07A4.58,4.58,0,0,0,79.61,130.82Z"/><path class="cls-1" d="M141.28,78a13.75,13.75,0,0,0-5.91,1c-.57.21-1.15.44-1.72.69s-1.17.51-1.77.8a8.77,8.77,0,0,0-4.22,4.34,20.6,20.6,0,0,0-1.53,7.51c-.23,4.79.29,7.45,1.56,8s3.07.43,5.4-.25l.33-.06.37-.12a5.39,5.39,0,0,0,.68-.22l.69-.27a6,6,0,0,1,2.88-.47c.75.12,1.06,1.36,1,3.71a9,9,0,0,1-1.09,4.56,6.46,6.46,0,0,1-2.92,2.13l-1.58.65c-.53.23-1.07.43-1.58.6-1.25.49-2,.19-2.2-.89a17.12,17.12,0,0,1-.21-4.12,1.3,1.3,0,0,0-2-1.29,3.45,3.45,0,0,0-2.07,2.92c0,.9-.1,1.8-.12,2.7a14.31,14.31,0,0,0,.51,5.07,2.2,2.2,0,0,0,1.51,1.57,11.83,11.83,0,0,0,6.15-1.23c.71-.3,1.4-.61,2.09-.93s1.39-.68,2.07-1a9.15,9.15,0,0,0,4.35-5.2,31.24,31.24,0,0,0,1.26-7.79q.35-7.06-2.09-7.37a12.54,12.54,0,0,0-5.68.78c-.26.1-.53.2-.82.29s-.56.18-.82.24a2.28,2.28,0,0,1-.35.11,1.81,1.81,0,0,0-.31.09c-1.14.34-1.91.27-2.31-.23s-.56-1.66-.47-3.46c0-.18,0-.37.05-.58s0-.41,0-.63a10.57,10.57,0,0,1,.34-1.62,4.5,4.5,0,0,1,.68-1.37,5.55,5.55,0,0,1,1-.93,7.38,7.38,0,0,1,1.14-.67c.21-.11.43-.21.63-.29l.59-.22,1.13-.42c1.31-.49,2.21-.48,2.71,0s.7,1.81.6,3.91c0,0,0,1.67,1.87.93a3.11,3.11,0,0,0,2.19-2.49l.07-1.38Q143.74,78.26,141.28,78Z"/><path class="cls-1" d="M111.08,119.55a19.24,19.24,0,0,0-9.14-5.31,15.91,15.91,0,0,0-7.75-.34,13.55,13.55,0,0,0-3.54,1.4c-1.41,3.12-2.8,3.64-4.07,3.07l0,0a4.7,4.7,0,0,1-1.34,4c9.21,4.21,23.52,12.72,30.45,19.6a38,38,0,0,0,.41-11A20.71,20.71,0,0,0,111.08,119.55Z"/><path class="cls-3" d="M137.43,58.46h-.49l.27.31Z"/><path class="cls-1" d="M117.76,174.09v0s-4.77-2.8-6.08-9.92C113,171.22,117.67,174,117.76,174.09Z"/><path class="cls-1" d="M58.79,87.41C54,79.42,48.48,71.81,48,71,48.24,71.49,53.89,79.24,58.79,87.41Z"/><path class="cls-1" d="M88,265.27a3.25,3.25,0,1,0,3.25,3.25A3.25,3.25,0,0,0,88,265.27Z"/><path class="cls-1" d="M67.91,148.26a95.87,95.87,0,0,1-3.68,10.53,33.92,33.92,0,0,1-9.67,4.27v0a34.15,34.15,0,0,0,9.66-4.27A94.48,94.48,0,0,0,67.91,148.26Z"/><path class="cls-1" d="M98.11,231.78l-6.61,5.8a32,32,0,0,0-3.2-22.12l-.38-.68-.39.68a32,32,0,0,0-3.2,22.12l-6.61-5.8a30.53,30.53,0,0,0,8.59,20.95L80.44,249s1.68,9.79,7.09,11.6a1.27,1.27,0,0,0,.77,0c5.41-1.81,7.09-11.6,7.09-11.6l-5.87,3.72A30.53,30.53,0,0,0,98.11,231.78Z"/><path class="cls-1" d="M141.28,78a13.75,13.75,0,0,0-5.91,1c-.57.21-1.15.44-1.72.69s-1.17.51-1.77.8a8.77,8.77,0,0,0-4.22,4.34,20.6,20.6,0,0,0-1.53,7.51c-.23,4.79.29,7.45,1.56,8s3.07.43,5.4-.25l.33-.06.37-.12a5.39,5.39,0,0,0,.68-.22l.69-.27a6,6,0,0,1,2.88-.47c.75.12,1.06,1.36,1,3.71a9,9,0,0,1-1.09,4.56,6.46,6.46,0,0,1-2.92,2.13l-1.58.65c-.53.23-1.07.43-1.58.6-1.25.49-2,.19-2.2-.89a17.12,17.12,0,0,1-.21-4.12,1.3,1.3,0,0,0-2-1.29,3.45,3.45,0,0,0-2.07,2.92c0,.9-.1,1.8-.12,2.7a14.31,14.31,0,0,0,.51,5.07,2.2,2.2,0,0,0,1.51,1.57,11.83,11.83,0,0,0,6.15-1.23c.71-.3,1.4-.61,2.09-.93s1.39-.68,2.07-1a9.15,9.15,0,0,0,4.35-5.2,31.24,31.24,0,0,0,1.26-7.79q.35-7.06-2.09-7.37a12.54,12.54,0,0,0-5.68.78c-.26.1-.53.2-.82.29s-.56.18-.82.24a2.28,2.28,0,0,1-.35.11,1.81,1.81,0,0,0-.31.09c-1.14.34-1.91.27-2.31-.23s-.56-1.66-.47-3.46c0-.18,0-.37.05-.58s0-.41,0-.63a10.57,10.57,0,0,1,.34-1.62,4.5,4.5,0,0,1,.68-1.37,5.55,5.55,0,0,1,1-.93,7.38,7.38,0,0,1,1.14-.67c.21-.11.43-.21.63-.29l.59-.22,1.13-.42c1.31-.49,2.21-.48,2.71,0s.7,1.81.6,3.91c0,0,0,1.67,1.87.93a3.11,3.11,0,0,0,2.19-2.49l.07-1.38Q143.74,78.26,141.28,78Z"/><path class="cls-3" d="M48,71s0,0,0,.07l0,0,5.28-5.59s12.94,7.26,24.14,10.76l0,0C66.2,72.63,53.27,65.38,53.27,65.38Z"/><path class="cls-4" d="M48,71s0,0,0,.07l0,0,5.28-5.59s12.94,7.26,24.14,10.76l0,0C66.2,72.63,53.27,65.38,53.27,65.38Z"/><path class="cls-3" d="M65.06,99.78a75.07,75.07,0,0,0-6.27-12.37,74.5,74.5,0,0,1,6.26,12.36c3.1,8.78,9.58,24.76,2.86,48.49C74.64,124.53,68.16,108.56,65.06,99.78Z"/><path class="cls-3" d="M117.79,192.3a32.07,32.07,0,0,0-18.14,14.57c-8.39-8-34.09-14.61-40.9-25.35-3.45-5.42-4.26-14.64-4.19-18.42h0c-.08,3.77.73,13,4.19,18.48,6.81,10.74,32.52,17.36,40.92,25.36a32.06,32.06,0,0,1,18.14-14.58c1.41-3.85,0-18.26,0-18.26h0C117.85,175,119.16,188.58,117.79,192.3Z"/><path class="cls-4" d="M117.79,192.3a32.07,32.07,0,0,0-18.14,14.57c-8.39-8-34.09-14.61-40.9-25.35-3.45-5.42-4.26-14.64-4.19-18.42h0c-.08,3.77.73,13,4.19,18.48,6.81,10.74,32.52,17.36,40.92,25.36a32.06,32.06,0,0,1,18.14-14.58c1.41-3.85,0-18.26,0-18.26h0C117.85,175,119.16,188.58,117.79,192.3Z"/><path class="cls-3" d="M74,157.15l-1.67-5.45c-1.23,4.18-2.64,7.46-4,9A17.11,17.11,0,0,1,61.67,164l-1.42,1.56c-.88,14.55,11.92,20.08,21.26,24.11,1.39.6,2.7,1.17,3.9,1.73,2.88,1.35,7.67,4,10.83,5.69l1,.56,2.09-.4c2.71-3.25,10.3-8.48,13.4-9.57l1.09-2c-.71-3.09-.6-10-.6-10l-.48-1.2a27.26,27.26,0,0,1-4.56-6.56c-2.38-5.27-1-14.12-.16-18.08l-3-2.24c-.68,2.87-3.17,14.58.05,21.7a29.25,29.25,0,0,0,4.74,7,70.13,70.13,0,0,0,.44,8.77,54,54,0,0,0-12.6,9c-3.21-1.75-8-4.33-10.89-5.71-1.25-.58-2.58-1.16-4-1.77-9-3.9-19.25-8.31-19.27-19.59,2.71-.83,6.13-2.79,7.26-4.07A20.13,20.13,0,0,0,74,157.15Z"/><path class="cls-3" d="M56.39,75.69c4.17,4,16.28,22.48,18.42,46l3.2-2.38A93.23,93.23,0,0,0,63.36,79.13c5.9,2.64,18.1,5.57,20.55,5.78A30.06,30.06,0,0,0,94.48,84c4.25-1.19,14.06-1.83,18-1,.25,4,2,18.35-.83,26.47a20.67,20.67,0,0,1,3,1.89l.06-.13c3.87-10.16,1.23-28.91,1.16-29.67l-1.12-1.44c-3.43-1.24-12-1.58-19.18.33-8.66,2.3-14.41.87-14.41.87-9-1.66-16.16-5-22.74-8.28Z"/><polygon class="cls-1" points="64.31 52.32 62.23 49.4 62.23 49.39 59.42 45.42 57.77 46.59 59.76 49.39 59.76 49.4 61.84 52.32 66.14 58.41 68.6 58.4 64.31 52.32"/><path class="cls-1" d="M64,134.13V119.49c0-3-.89-5.24-2.58-6.37s-4.05-1.1-6.88.07l-7.9,3.27a2.41,2.41,0,0,0-1.44,2.14v1.21a1.32,1.32,0,0,0,.57,1.16,1.39,1.39,0,0,0,1.32.09l.91-.37v24.67c0,.2-.08.32-.54.5l-.7.27a2.54,2.54,0,0,0-1.56,2.23v1.2a1.37,1.37,0,0,0,.53,1.17,1.18,1.18,0,0,0,.68.19,1.89,1.89,0,0,0,.67-.13L54,148.1A15.32,15.32,0,0,0,64,134.13Z"/><path class="cls-1" d="M88,265.27a3.25,3.25,0,1,0,3.25,3.25A3.25,3.25,0,0,0,88,265.27Z"/><path class="cls-1" d="M95.76,76.91l.85-1.19c-.8.22-1.85.5-3,.78l-.78,1.09Z"/><path class="cls-1" d="M98.11,231.78l-6.61,5.8a32,32,0,0,0-3.2-22.12l-.38-.68-.39.68a32,32,0,0,0-3.2,22.12l-6.61-5.8a30.53,30.53,0,0,0,8.59,20.95L80.44,249s1.68,9.79,7.09,11.6a1.27,1.27,0,0,0,.77,0c5.41-1.81,7.09-11.6,7.09-11.6l-5.87,3.72A30.53,30.53,0,0,0,98.11,231.78Z"/><polygon class="cls-1" points="113.2 52.32 115.27 49.39 117.26 46.59 115.61 45.42 112.8 49.39 110.72 52.32 106.38 58.46 108.84 58.46 113.2 52.32"/><path class="cls-1" d="M79.61,130.82c0,.09-.17.64-.2.78,3.11-.44,6.2,2,7.12,3.56l-1.26.79a2.26,2.26,0,0,0-.46-.58c-.55-.49-2.23-2.06-3.9-1.77a5.29,5.29,0,0,0-1.26.36,3.4,3.4,0,0,1-.77,3l-.13.15-.06.07h0c-.3.34-.6.69-.89,1l-.69.83c-.61.74-1.24,1.5-1.94,2.27l-.21.24a3.37,3.37,0,0,0-.59.93.93.93,0,0,0,0,.37,1.41,1.41,0,0,0,.55.82h0l.11.09.15.1a.57.57,0,0,0,.13.08,2.81,2.81,0,0,1,.56.35l.32.23a.46.46,0,0,1,.27-.18,11.76,11.76,0,0,1,2.19.25l-.09.3a8.88,8.88,0,0,1-1.67.62h-.18a3.46,3.46,0,0,1-.23,1.16l0,.08a1.87,1.87,0,0,0-.1.39c0,.07.11.22.17.35a2,2,0,0,0,.37.27l.36.14.35.14.07,0a.81.81,0,0,1,.25.08l.25.22.33.83V150l-1.16-.41-.06,0a.75.75,0,0,1-.32-.12l-.32-.12a3.3,3.3,0,0,0-.18.32.62.62,0,0,0,.06.76,1,1,0,0,1,.1.17,2.59,2.59,0,0,1,.42,2.53,3.77,3.77,0,0,1-.14.7,3.25,3.25,0,0,0,.43,2.35,1.79,1.79,0,0,0,.8.62,5.11,5.11,0,0,0,.75.2h0l.41.05h.08a30.8,30.8,0,0,1,4,.59l.2,0a.78.78,0,0,1,.38.06l.33,0c3.55-5.35,9.46-16.46,9.13-20.54-5.28-3.05-10.07-5.41-13.7-7.07A4.58,4.58,0,0,0,79.61,130.82Z"/><path class="cls-1" d="M141.28,78a13.75,13.75,0,0,0-5.91,1c-.57.21-1.15.44-1.72.69s-1.17.51-1.77.8a8.77,8.77,0,0,0-4.22,4.34,20.6,20.6,0,0,0-1.53,7.51c-.23,4.79.29,7.45,1.56,8s3.07.43,5.4-.25l.33-.06.37-.12a5.39,5.39,0,0,0,.68-.22l.69-.27a6,6,0,0,1,2.88-.47c.75.12,1.06,1.36,1,3.71a9,9,0,0,1-1.09,4.56,6.46,6.46,0,0,1-2.92,2.13l-1.58.65c-.53.23-1.07.43-1.58.6-1.25.49-2,.19-2.2-.89a17.12,17.12,0,0,1-.21-4.12,1.3,1.3,0,0,0-2-1.29,3.45,3.45,0,0,0-2.07,2.92c0,.9-.1,1.8-.12,2.7a14.31,14.31,0,0,0,.51,5.07,2.2,2.2,0,0,0,1.51,1.57,11.83,11.83,0,0,0,6.15-1.23c.71-.3,1.4-.61,2.09-.93s1.39-.68,2.07-1a9.15,9.15,0,0,0,4.35-5.2,31.24,31.24,0,0,0,1.26-7.79q.35-7.06-2.09-7.37a12.54,12.54,0,0,0-5.68.78c-.26.1-.53.2-.82.29s-.56.18-.82.24a2.28,2.28,0,0,1-.35.11,1.81,1.81,0,0,0-.31.09c-1.14.34-1.91.27-2.31-.23s-.56-1.66-.47-3.46c0-.18,0-.37.05-.58s0-.41,0-.63a10.57,10.57,0,0,1,.34-1.62,4.5,4.5,0,0,1,.68-1.37,5.55,5.55,0,0,1,1-.93,7.38,7.38,0,0,1,1.14-.67c.21-.11.43-.21.63-.29l.59-.22,1.13-.42c1.31-.49,2.21-.48,2.71,0s.7,1.81.6,3.91c0,0,0,1.67,1.87.93a3.11,3.11,0,0,0,2.19-2.49l.07-1.38Q143.74,78.26,141.28,78Z"/><path class="cls-1" d="M111.08,119.55a19.24,19.24,0,0,0-9.14-5.31,15.91,15.91,0,0,0-7.75-.34,13.55,13.55,0,0,0-3.54,1.4c-1.41,3.12-2.8,3.64-4.07,3.07l0,0a4.7,4.7,0,0,1-1.34,4c9.21,4.21,23.52,12.72,30.45,19.6a38,38,0,0,0,.41-11A20.71,20.71,0,0,0,111.08,119.55Z"/><path class="cls-1" d="M115.55,144.87c-6.44-7.38-24.83-18.16-34.09-21.84l-.1-.07c-1.7.89-4.68,2.47-6.46,3.42,5.59,2.26,25.2,10.78,41.4,25.22a32.93,32.93,0,0,0-.65-6.66Z"/><path class="cls-1" d="M100.47,110a8.42,8.42,0,0,0-1.07,1.31l-.28.38a20.91,20.91,0,0,1,3.35.63,21.22,21.22,0,0,1,10.1,5.89,22.77,22.77,0,0,1,5.53,12.62,32.45,32.45,0,0,1,.23,3.48c1-5.15.89-10.42-1.89-14.29C111.6,113.22,107.41,110.59,100.47,110Z"/><path class="cls-1" d="M118.1,130.78a32.45,32.45,0,0,1,.23,3.48,28.69,28.69,0,0,0,.53-6.48l-1.2.51C117.86,129.17,118,130,118.1,130.78Z"/><path class="cls-1" d="M115.67,142a38,38,0,0,0,.41-11c-.08-.61-.2-1.27-.34-1.95L105,133.62A76,76,0,0,1,115.67,142Z"/><path class="cls-1" d="M116.3,151.6a32.93,32.93,0,0,0-.65-6.66l-.1-.07c-2.7-3.09-7.49-6.78-12.84-10.29l-6.24,2.63A132,132,0,0,1,116.3,151.6Z"/><path class="cls-1" d="M64.23,158.79a33.92,33.92,0,0,1-9.67,4.27v0h0c-.08,3.77.73,13,4.19,18.48,6.81,10.74,32.52,17.36,40.92,25.36a32.06,32.06,0,0,1,18.14-14.58c1.41-3.85,0-18.26,0-18.26h0v0s-4.77-2.8-6.08-9.92a26.21,26.21,0,0,1,1.17-12.62l4,3.05s0-.18.12-.51a.76.76,0,0,1-.48-.19A127.15,127.15,0,0,0,96.4,138.94c-.58,5.05-5.93,14.66-8.8,19.18a17.54,17.54,0,0,0,3.81-.15c3.57-.56,5.51-2.52,5.37-1.76s-2,2.57-4.76,3.17c-1.65.36-5.78.74-5.78.74-.36.54-.3.56-.45.78.12.37.24.75.37,1.13s.31.92.44,1.35a5.41,5.41,0,0,0,.66,1.37l1.06,1.46L86.57,166c-.91-.13-1.28-1.3-2-3.73-.08-.28-.17-.61-.27-1l-.5,0a1,1,0,0,1-.6-.2,1,1,0,0,1-.21-1.42l.17-.24-.2-.05c-1.5-.23-2.81-.74-3.84-.88l-.52-.08a4.22,4.22,0,0,1-1.06-.28,3.72,3.72,0,0,1-1.7-1.25,3.64,3.64,0,0,1-.55-3c0-.16.08-.33.12-.49s.08-.41.13-.62v-.16a4.86,4.86,0,0,0-.19-1.28,2.34,2.34,0,0,1,0-2.92c.43,1,.4.88,0-.07a1.73,1.73,0,0,1-.43-1.23,1.37,1.37,0,0,1,.07-.63c0-.07.07-.19.11-.32v0l-7.46,3.14A97.92,97.92,0,0,1,64.23,158.79Z"/><path class="cls-1" d="M79.78,130.15a4.58,4.58,0,0,0-.17.67c0,.09-.17.64-.2.78,3.11-.44,6.2,2,7.12,3.56l-1.26.79a2.26,2.26,0,0,0-.46-.58c-.55-.49-2.23-2.06-3.9-1.77a5.29,5.29,0,0,0-1.26.36,3.4,3.4,0,0,1-.77,3l-.13.15-.06.07h0c-.3.34-.6.69-.89,1l-.69.83c-.61.74-1.24,1.5-1.94,2.27l-.21.24a3.37,3.37,0,0,0-.59.93.93.93,0,0,0,0,.37.89.89,0,0,0,.11.31l17-7.14C86.94,133.55,82.93,131.59,79.78,130.15Z"/><path class="cls-1" d="M116.44,120c-4.84-6.75-9-9.38-16-10a8.42,8.42,0,0,0-1.07,1.31l-.28.38a20.91,20.91,0,0,1,3.35.63,21.22,21.22,0,0,1,10.1,5.89,20.62,20.62,0,0,1,4.25,7.17l1.65-.69A12.6,12.6,0,0,0,116.44,120Z"/><path class="cls-1" d="M78.53,144.9a8.88,8.88,0,0,1-1.67.62h-.12l-.06,0a3.57,3.57,0,0,1-.23,1.14l0,.08a1.87,1.87,0,0,0-.1.39c0,.07.11.22.17.35a2,2,0,0,0,.37.27l.36.14.35.14.07,0a.81.81,0,0,1,.25.08l.25.22.33.83V150l-1.16-.41-.06,0a.75.75,0,0,1-.32-.12l-.32-.12a3.3,3.3,0,0,0-.18.32.62.62,0,0,0,.06.76,1,1,0,0,1,.1.17,2.59,2.59,0,0,1,.42,2.53,3.77,3.77,0,0,1-.14.7,3.25,3.25,0,0,0,.43,2.35,1.79,1.79,0,0,0,.8.62,5.11,5.11,0,0,0,.75.2h0l.41.05h.08a30.8,30.8,0,0,1,4,.59l.2,0a.78.78,0,0,1,.38.06l.33,0c3.23-4.87,8.4-14.49,9.06-19.26l-14.83,6.24Z"/><path class="cls-1" d="M111.08,119.55a19.24,19.24,0,0,0-9.14-5.31,15.91,15.91,0,0,0-7.75-.34,13.55,13.55,0,0,0-3.54,1.4c-1.41,3.12-2.8,3.64-4.07,3.07l0,0a4.7,4.7,0,0,1-1.34,4,148.81,148.81,0,0,1,16.68,9.18l13-5.48A18.47,18.47,0,0,0,111.08,119.55Z"/><path class="cls-1" d="M81.46,123l-.1-.07c-1.7.89-4.68,2.47-6.46,3.42a158.34,158.34,0,0,1,18.27,8.91l6.42-2.71A128.21,128.21,0,0,0,81.46,123Z"/><path class="cls-1" d="M98.11,231.78l-6.61,5.8a32,32,0,0,0-3.2-22.12l-.38-.68-.39.68a32,32,0,0,0-3.2,22.12l-6.61-5.8a30.53,30.53,0,0,0,8.59,20.95L80.44,249s1.68,9.79,7.09,11.6a1.27,1.27,0,0,0,.77,0c5.41-1.81,7.09-11.6,7.09-11.6l-5.87,3.72A30.53,30.53,0,0,0,98.11,231.78Z"/><path class="cls-1" d="M68.61,145.63,73,143.76a2,2,0,0,1-.21-.73,2.53,2.53,0,0,1,.13-1,3.91,3.91,0,0,1,.83-1.38l0-.06c.07-.08.14-.17.22-.25h0c.6-.69,1.19-1.39,1.78-2.09.27-.33.55-.66.83-1l.9-1.06c.53-.59.59-.67.08-.08.66-.78.68-1.26.4-2.43l-.06-.29-.11-.42-.14-.52.2-.82c0-.19.07-.34.1-.47s.06-.39.08-.54a3.82,3.82,0,0,1,.25-1.07c-3.39-1.51-5.49-2.29-5.56-2.32a.76.76,0,0,1-.1-1.38c.27-.15,6.08-3.26,8.37-4.43l.94-1.14c.12-.18.23-.36.35-.53l.1-.16a19.36,19.36,0,0,1,8.09-6.84,12.66,12.66,0,0,1,5.76-1.16h0c.3,0,.61,0,.92,0,.34-.42.63-.82.89-1.17.88-1.22,1.46-2,2.37-1.94,7.47.67,11.95,3.44,17.09,10.58,2.39-5.93,3.06-17.58,3.29-23.56a81.93,81.93,0,0,0-.33-13L66.9,105.05A69.44,69.44,0,0,1,68.61,145.63Z"/><path class="cls-1" d="M88,265.27a3.25,3.25,0,1,0,3.25,3.25A3.25,3.25,0,0,0,88,265.27Z"/><path class="cls-1" d="M141.28,78a13.75,13.75,0,0,0-5.91,1c-.57.21-1.15.44-1.72.69s-1.17.51-1.77.8a8.77,8.77,0,0,0-4.22,4.34,20.6,20.6,0,0,0-1.53,7.51c-.23,4.79.29,7.45,1.56,8s3.07.43,5.4-.25l.33-.06.37-.12a5.39,5.39,0,0,0,.68-.22l.69-.27a6,6,0,0,1,2.88-.47c.75.12,1.06,1.36,1,3.71a9,9,0,0,1-1.09,4.56,6.46,6.46,0,0,1-2.92,2.13l-1.58.65c-.53.23-1.07.43-1.58.6-1.25.49-2,.19-2.2-.89a17.12,17.12,0,0,1-.21-4.12,1.3,1.3,0,0,0-2-1.29,3.45,3.45,0,0,0-2.07,2.92c0,.9-.1,1.8-.12,2.7a14.31,14.31,0,0,0,.51,5.07,2.2,2.2,0,0,0,1.51,1.57,11.83,11.83,0,0,0,6.15-1.23c.71-.3,1.4-.61,2.09-.93s1.39-.68,2.07-1a9.15,9.15,0,0,0,4.35-5.2,31.24,31.24,0,0,0,1.26-7.79q.35-7.06-2.09-7.37a12.54,12.54,0,0,0-5.68.78c-.26.1-.53.2-.82.29s-.56.18-.82.24a2.28,2.28,0,0,1-.35.11,1.81,1.81,0,0,0-.31.09c-1.14.34-1.91.27-2.31-.23s-.56-1.66-.47-3.46c0-.18,0-.37.05-.58s0-.41,0-.63a10.57,10.57,0,0,1,.34-1.62,4.5,4.5,0,0,1,.68-1.37,5.55,5.55,0,0,1,1-.93,7.38,7.38,0,0,1,1.14-.67c.21-.11.43-.21.63-.29l.59-.22,1.13-.42c1.31-.49,2.21-.48,2.71,0s.7,1.81.6,3.91c0,0,0,1.67,1.87.93a3.11,3.11,0,0,0,2.19-2.49l.07-1.38Q143.74,78.26,141.28,78Z"/><path class="cls-1" d="M120.59,82.45a25,25,0,0,0-.59-3.07L65.9,102.16c.32.9.66,1.87,1,2.89Z"/><path class="cls-1" d="M118.86,127.78a17.85,17.85,0,0,0-.39-3.14l-1.65.69a25.21,25.21,0,0,1,.84,3Z"/><path class="cls-1" d="M115.74,129.09a23.57,23.57,0,0,0-.81-3l-13,5.48c1,.66,2.07,1.34,3.08,2Z"/><path class="cls-1" d="M76.68,145.52v0l.06,0S76.7,145.52,76.68,145.52Z"/><path class="cls-1" d="M102.71,134.58c-1-.67-2.06-1.34-3.12-2l-6.42,2.71q1.62.92,3.3,1.92Z"/><path class="cls-1" d="M74.88,143.68h0l.11.09.15.1a.57.57,0,0,0,.13.08,2.81,2.81,0,0,1,.56.35l.32.23a.46.46,0,0,1,.27-.18,11.76,11.76,0,0,1,2.19.25l0,.14,14.83-6.24a6.48,6.48,0,0,0,.07-1.28c-.7-.41-1.4-.8-2.09-1.19l-17,7.14A2.13,2.13,0,0,0,74.88,143.68Z"/><path class="cls-3" d="M78.53,144.9l0-.16-1.84.78h.12A8.88,8.88,0,0,0,78.53,144.9Z"/><path class="cls-3" d="M98.14,75.33H98C97.88,75.37,97.9,75.37,98.14,75.33Z"/><polygon class="cls-1" points="77.5 74.42 80.43 75.09 64.31 52.32 61.84 52.32 77.5 74.42"/><polygon class="cls-1" points="59.42 45.42 57.77 46.59 59.76 49.39 59.76 49.4 62.23 49.4 62.23 49.39 59.42 45.42"/><path class="cls-3" d="M49.2,49.4Q47.49,50.89,46,52.32H59.34L57.27,49.4Z"/><polygon class="cls-3" points="110.3 49.39 64.73 49.4 66.8 52.32 108.23 52.32 110.3 49.39"/><path class="cls-3" d="M81.26,138.87l4.31-1.58L81,133.8c-.14.73-.26,1.36-.41,2.17l1.08.23C81.54,137,81.42,137.84,81.26,138.87Z"/><path class="cls-1" d="M118.57,132.81l-.29.12c0,.44,0,.88,0,1.33C118.42,133.78,118.5,133.3,118.57,132.81Z"/><path class="cls-1" d="M116.29,133.75l-7,2.89a60.7,60.7,0,0,1,6.42,5.39A43,43,0,0,0,116.29,133.75Z"/><path class="cls-1" d="M65.11,159l-.11.28-.25.15a38.25,38.25,0,0,1-9.17,4.24c0,4.53,1.09,12.62,4,17.28,3.77,6,13.63,10.68,23.17,15.23,6.5,3.09,12.67,6,16.43,9.21a33.19,33.19,0,0,1,17.52-13.87c.87-3.35.22-13-.17-17.06-1.89-1.4-9.6-8.2-4.87-23.37l.34-1.1a132,132,0,0,0-12.75-9.2l-3.67,1.51c-1.73,5.21-5.67,12.21-8,15.87a17.54,17.54,0,0,0,3.81-.15c3.57-.56,5.51-2.52,5.37-1.76s-2,2.57-4.76,3.17c-1.65.36-5.78.74-5.78.74-.36.54-.3.56-.45.78.12.37.24.75.37,1.13s.31.92.44,1.35a5.41,5.41,0,0,0,.66,1.37l1.06,1.46L86.57,166c-.91-.13-1.28-1.3-2-3.73-.08-.28-.17-.61-.27-1l-.5,0a1,1,0,0,1-.6-.2,1,1,0,0,1-.21-1.42l.17-.24-.2-.05c-1.5-.23-2.81-.74-3.84-.88l-.52-.08a4.22,4.22,0,0,1-1.06-.28,3.72,3.72,0,0,1-1.7-1.25,3.64,3.64,0,0,1-.55-3c0-.16.08-.33.12-.49s.08-.41.13-.62v-.16a4.86,4.86,0,0,0-.19-1.28,2.24,2.24,0,0,1-.4-.69L67,154C66.43,155.62,65.81,157.27,65.11,159Z"/><path class="cls-1" d="M88,265.27a3.25,3.25,0,1,0,3.25,3.25A3.25,3.25,0,0,0,88,265.27Z"/><path class="cls-1" d="M98.11,231.78l-6.61,5.8a32,32,0,0,0-3.2-22.12l-.38-.68-.39.68a32,32,0,0,0-3.2,22.12l-6.61-5.8a30.53,30.53,0,0,0,8.59,20.95L80.44,249s1.68,9.79,7.09,11.6a1.27,1.27,0,0,0,.77,0c5.41-1.81,7.09-11.6,7.09-11.6l-5.87,3.72A30.53,30.53,0,0,0,98.11,231.78Z"/><path class="cls-1" d="M76.6,150.56a2.59,2.59,0,0,1,.42,2.53,3.77,3.77,0,0,1-.14.7,3.25,3.25,0,0,0,.43,2.35,1.79,1.79,0,0,0,.8.62,5.11,5.11,0,0,0,.75.2h0l.41.05h.08a30.8,30.8,0,0,1,4,.59l.2,0a.78.78,0,0,1,.38.06l.33,0a90.15,90.15,0,0,0,7.43-13.94l-13.3,5.47v.7l-.92-.33-1.18.49a1.06,1.06,0,0,0,.12.24A1,1,0,0,1,76.6,150.56Z"/><path class="cls-1" d="M87.86,78.53l-.25,0c-10.32.44-30.17-10.26-34-12.39l-4.27,4.56.8,1.15c3.44,5,12.45,18.14,15.64,26.73L117.92,77a5.41,5.41,0,0,0-.63-1C114.77,73.61,101.05,74.15,87.86,78.53Z"/><path class="cls-1" d="M116,146.56c-.08-.56-.18-1.11-.3-1.62l-.1-.07a52.75,52.75,0,0,0-8.52-7.32L101,140a126.6,126.6,0,0,1,15.09,11.37A24.73,24.73,0,0,0,116,146.56Z"/><polygon class="cls-3" points="78.48 149.28 77.56 149.66 78.48 149.99 78.48 149.28"/><path class="cls-1" d="M116.21,119.63l-.26-.42.13-.25c1.26-2.76,2.88-9.15,3.44-23.9.15-3.88.6-15.69-2.34-19.06-2.51-2.41-16.18-1.87-29.31,2.5l-.25,0-.61,0c-10.4,0-29.52-10.32-33.27-12.41l-4.26,4.56.78,1.14C53.77,77,63.07,90.56,66.06,99.13l.46,1.32c3.67,10.38,10.48,29.72-1.31,58.44l-.11.27-.1.06h0l-.25.15a38.79,38.79,0,0,1-9,4.19c0,4.54,1.09,12.6,4,17.25,3.74,6,13.57,10.67,23.06,15.21,6.48,3.1,12.63,6,16.37,9.22a33.11,33.11,0,0,1,17.45-13.87c.87-3.35.22-13-.17-17-1.88-1.39-9.56-8.19-4.85-23.36l.34-1.1a133.06,133.06,0,0,0-12.66-9.13L101,140a126.84,126.84,0,0,1,15,11.28,24,24,0,0,0-.21-5.46l-.05-.29,0-.08c0-.18-.06-.37-.1-.54l-.1-.07a52.75,52.75,0,0,0-8.52-7.32l2.22-.91a60.7,60.7,0,0,1,6.42,5.39,43,43,0,0,0,.62-8.28l2-.82c0,.44,0,.88,0,1.33.09-.48.17-1,.24-1.45l0,0C118.87,128.22,118.41,123.19,116.21,119.63Z"/><path class="cls-1" d="M88,265.27a3.25,3.25,0,1,0,3.25,3.25A3.25,3.25,0,0,0,88,265.27Z"/><path class="cls-1" d="M98.11,231.78l-6.61,5.8a32,32,0,0,0-3.2-22.12l-.38-.68-.39.68a32,32,0,0,0-3.2,22.12l-6.61-5.8a30.53,30.53,0,0,0,8.59,20.95L80.44,249s1.68,9.79,7.09,11.6a1.27,1.27,0,0,0,.77,0c5.41-1.81,7.09-11.6,7.09-11.6l-5.87,3.72A30.53,30.53,0,0,0,98.11,231.78Z"/><path class="cls-3" d="M65,159.23h0l-.15.1a38.47,38.47,0,0,1-9.13,4.23v0a38.79,38.79,0,0,0,9-4.19Z"/><path class="cls-5" d="M150,58.46c-1.95,2.84-3.75,5.49-5,7.31l17.35-7.19,0-.12Z"/><path class="cls-5" d="M50.11,71.89l-.8-1.15,4.27-4.56c3.86,2.13,23.71,12.83,34,12.39l.25,0c13.19-4.38,26.91-4.92,29.43-2.51a5.41,5.41,0,0,1,.63,1l23.24-9.63a89.92,89.92,0,0,0-6.89-8.9H111.34L100.62,73.59a87.26,87.26,0,0,0-8.77,1.87l12-17H71.15L83.63,76.09a1.14,1.14,0,0,1,.16.38A51.49,51.49,0,0,1,74.67,74l-11-15.54-23.59.05a64.67,64.67,0,0,0-7.21,9.62,1,1,0,0,1-.85.52h0a1,1,0,0,1-.84-.45c-.06-.07-3.11-4.58-6.61-9.69H12.65l17.51,54.91L65.75,98.62C62.56,90,53.55,76.9,50.11,71.89Z"/><path class="cls-5" d="M117.59,145.85a23.85,23.85,0,0,1-.27,8.68l-.35,1.32-4-3.08c-4,14.72,4.44,20,4.81,20.26l.39.24,0,.46c.06.59,1.43,14.68,0,18.68l-.15.42-.42.14a31.1,31.1,0,0,0-17.41,14.12l-.54,1.12-.89-.86c-3.4-3.28-9.89-6.38-16.76-9.66C72.29,193,62.23,188.23,58.2,181.8c-3.7-5.92-4.34-15.72-4.28-19l0-.74.71-.14a31.37,31.37,0,0,0,9-4c.41-1,.79-2,1.16-3l-18.94,7.78L87.93,294.6l54-171.4L120.46,132A40,40,0,0,1,117.59,145.85ZM88,271.77a3.25,3.25,0,1,1,3.25-3.25A3.24,3.24,0,0,1,88,271.77ZM95.39,249s-1.68,9.79-7.09,11.6a1.27,1.27,0,0,1-.77,0c-5.41-1.81-7.09-11.6-7.09-11.6l5.87,3.72a30.53,30.53,0,0,1-8.59-20.95l6.61,5.8a32,32,0,0,1,3.2-22.12l.39-.68.38.68a32,32,0,0,1,3.2,22.12l6.61-5.8a30.53,30.53,0,0,1-8.59,20.95Z"/><path class="cls-1" d="M138.54,60.4c1.87,2.32,3.21,4.2,4,5.36.91-1.35,2.48-3.66,4.29-6.3h-7.61Z"/><path class="cls-1" d="M30.16,52.32,28.05,49.4l-5.49-7.64a12.89,12.89,0,0,0-3.28,5.56l1.46,2.08,2,2.92c1.15,1.66,2.32,3.37,3.45,5h7.54Z"/><polygon class="cls-1" points="64.31 52.32 62.23 49.4 62.23 49.39 59.44 45.45 57.84 46.68 59.76 49.39 59.76 49.4 61.84 52.32 65.39 57.34 67.85 57.34 64.31 52.32"/><path class="cls-1" d="M59.34,52.32,57.27,49.4h0l-1-1.47-.52.39a1,1,0,0,1-.62.21H55a1,1,0,0,1-.67-.39L52.9,46.33c-1.3,1-2.54,2.05-3.7,3.07S47,51.36,46,52.32c-1.85,1.75-3.47,3.44-4.91,5H62.9Z"/><path class="cls-1" d="M115.69,52.32l-3.56,5h21.14c-1.42-1.59-3-3.27-4.8-5q-1.47-1.44-3.11-2.93t-3.23-2.8L121,48.12a1,1,0,0,1-.68.39h-.13a1,1,0,0,1-.62-.21l-.64-.49-1.12,1.57Z"/><polygon class="cls-1" points="113.2 52.32 115.27 49.39 117.26 46.59 115.61 45.42 112.8 49.39 110.72 52.32 107.17 57.34 109.64 57.34 113.2 52.32"/><path class="cls-1" d="M58.89,43.31l.77-.59L59,41.87l-1.23-1.61L55,36.68l-1.25-1.63-1.11-1.46-4.12,3.15-.27.21,1.4,1.83,3.59,4.69,1.23,1.61.76,1,.17-.13a.93.93,0,0,1,.33-.43Z"/><path class="cls-1" d="M151.73,52.32l2-2.93c.5-.72,1-1.42,1.45-2.06a12.79,12.79,0,0,0-3.3-5.54l-5.47,7.6-2.1,2.93-3.61,5h7.54C149.41,55.69,150.58,54,151.73,52.32Z"/><path class="cls-1" d="M43.08,52.32c1-1,2-1.93,3.09-2.92,1.69-1.54,3.51-3.11,5.5-4.68l-4.54-5.94H28.65a10.36,10.36,0,0,0-4.5,1.71l6.41,8.91,2.1,2.92,3.61,5h2.09C39.73,55.77,41.3,54.09,43.08,52.32Z"/><path class="cls-1" d="M141.84,52.32,144,49.39l6.38-8.88a10.43,10.43,0,0,0-4.56-1.72H128.1L123.36,45c1.78,1.48,3.43,3,5,4.41,1,1,2.06,2,3,2.93,1.73,1.77,3.27,3.45,4.63,5h2.25Z"/><path class="cls-1" d="M119.35,45.61l.61.47.58-.77,1.23-1.61,3.76-4.91L126.94,37l-.26-.2-4.13-3.16-1.38,1.82L119.93,37l-2.56,3.35L116.13,42l-.56.73,3.28,2.51.42.29Z"/><path class="cls-1" d="M64.73,49.4l2.07,2.92,3.56,5h34.32l3.55-5,2.07-2.93L114,44.11l-.51-.39a1,1,0,0,1-.19-1.43l1.12-1.46c-1.09-.75-2.23-1.47-3.38-2.19l-.93-.55c-1-.61-2-1.2-3.08-1.77l-.92-.51q-1.22-.64-2.46-1.26l-1.87-.92q-2.1-1-4.31-1.83l-1-.38c-.82-.31-1.64-.62-2.47-.91l-1-.33c-1.9-.63-3.84-1.21-5.84-1.71q-2.28.71-4.44,1.47l-1,.36c-1.05.38-2.09.78-3.11,1.18l-1,.4c-1.55.64-3.07,1.29-4.53,2l-1,.5-.53-.48.16.65-1,.48c-.86.43-1.7.86-2.53,1.3l-.93.5c-1,.55-2,1.1-3,1.67l-.94.55c-.95.57-1.87,1.14-2.77,1.72l1.18,1.55a1,1,0,0,1-.18,1.43l-.65.49,3.67,5.18Z"/><path class="cls-1" d="M35.89,60.3l-.6-.84H27.67c1.79,2.62,3.34,4.9,4.26,6.26C32.7,64.53,34,62.64,35.89,60.3Z"/><path class="cls-1" d="M62,37.57,62.9,37c1.13-.67,2.28-1.34,3.48-2l.92-.5c1-.52,2-1,3-1.54l1.22-.6c1.66-.79,3.39-1.56,5.17-2.29l1-.41c1.12-.45,2.25-.89,3.41-1.31-1.19.06-2.53.16-4,.32L76,28.82c-1.62.22-3.36.52-5.16.93l-1.28.31c-1.34.34-2.71.75-4.09,1.23-.33.11-.67.23-1,.36a42.29,42.29,0,0,0-4.9,2.19l-1,.53c-.64.36-1.28.74-1.91,1.15l2.77,3.61C60.28,38.6,61.12,38.08,62,37.57Z"/><path class="cls-1" d="M97.47,29.58l1,.39q2.48,1,4.82,2.1c.33.15.65.32,1,.48,1,.48,2,1,2.92,1.49.31.16.62.32.92.49,1.24.68,2.43,1.38,3.6,2.1l.92.57c1.06.66,2.1,1.33,3.1,2l2.58-3.37c-.85-.57-1.73-1.09-2.61-1.58-.32-.18-.64-.36-1-.52a42.12,42.12,0,0,0-5-2.18c-.33-.12-.66-.25-1-.36-1.29-.44-2.57-.81-3.84-1.13-.44-.12-.87-.22-1.3-.32-1.6-.36-3.15-.64-4.62-.84l-1.1-.15c-1.14-.14-2.21-.24-3.22-.31l-.35,0c.11,0,.21.08.32.12C95.59,28.88,96.54,29.22,97.47,29.58Z"/><path class="cls-1" d="M142.53,68.61h0a1,1,0,0,1-.84-.49,81.32,81.32,0,0,0-6.53-8.66h-24.5L99.65,75c-.84.17-1.43.31-1.63.37l-1.41.39,11.53-16.26h-2.47l-12.06,17c-.76.18-1.56.35-2.34.51a1,1,0,0,1,.13-.92l11.78-16.63H71.85L83.63,76.09a1,1,0,0,1,0,1.16l-.12.13c-.58,0-1.13-.11-1.64-.17L69.35,59.46H66.88L79.13,76.77c-1.06-.33-2.15-.71-3.25-1.11L64.4,59.46H39.21a61.69,61.69,0,0,0-6.35,8.62,1,1,0,0,1-.85.52h0a1,1,0,0,1-.84-.45c-.05-.07-2.72-4-5.92-8.69H14.12L88,291l73-231.57H149.29c-3.2,4.69-5.87,8.63-5.92,8.7A1,1,0,0,1,142.53,68.61Z"/><polygon class="cls-3" points="59.42 45.42 57.77 46.59 57.84 46.68 59.44 45.45 59.42 45.42"/><path class="cls-3" d="M96.61,75.72,98,75.33c.2-.06.79-.2,1.63-.37l11-15.5h-2.49Z"/><path class="cls-3" d="M91.4,76.09a1,1,0,0,0-.13.92c.78-.16,1.58-.33,2.34-.51l12.06-17h-2.49Z"/><path class="cls-3" d="M119.27,45.52l-.42-.29.5.38Z"/><polygon class="cls-3" points="108.23 52.32 104.68 57.34 107.17 57.34 110.72 52.32 112.8 49.39 115.61 45.42 117.26 46.59 115.27 49.39 113.2 52.32 109.64 57.34 112.14 57.34 115.69 52.32 117.77 49.39 118.89 47.82 114.04 44.11 110.3 49.39 108.23 52.32"/><path class="cls-3" d="M119.51,46.94a1,1,0,0,0-.16-1.33l-.5-.38-2.89-2a1,1,0,0,0-.76-.18,1,1,0,0,0-.66.42l-.5.69,4.85,3.71Z"/><path class="cls-3" d="M75.88,75.66c1.1.4,2.19.78,3.25,1.11L66.88,59.46H64.4Z"/><polygon class="cls-3" points="57.27 49.4 59.34 52.32 62.9 57.34 65.39 57.34 61.84 52.32 59.76 49.4 59.76 49.39 57.84 46.68 56.22 47.92 57.26 49.39 57.27 49.4"/><path class="cls-3" d="M55.77,45.52a.93.93,0,0,0-.33.43l3.45-2.64Z"/><path class="cls-3" d="M81.89,77.21c.51.06,1.06.12,1.64.17l.12-.13a1,1,0,0,0,0-1.16L71.85,59.46h-2.5Z"/><polygon class="cls-3" points="62.23 49.39 62.23 49.4 64.31 52.32 67.85 57.34 70.36 57.34 66.8 52.32 64.73 49.4 64.73 49.39 61.06 44.21 59.44 45.45 62.23 49.39"/><path class="cls-3" d="M57.77,46.59l1.65-1.16,0,0,1.62-1.24-.56-.79a1.07,1.07,0,0,0-.66-.42,1,1,0,0,0-.76.18l-.19.13L55.44,46a1,1,0,0,0,.09,1l.69,1,1.61-1.24Z"/><path class="cls-3" d="M157.31,47.24a14.57,14.57,0,0,0-4.85-7.67,1.2,1.2,0,0,0-.11-.12.59.59,0,0,0-.14-.06,13.21,13.21,0,0,0-6.37-2.64H129.37A1,1,0,0,0,129,36l-.26-.19a2.21,2.21,0,0,0,1.13-.83,2.36,2.36,0,0,0,.37-1.8,5.7,5.7,0,0,0-5.79-4.1,2.4,2.4,0,0,0-1.58.95,2.32,2.32,0,0,0-.4,1.19.87.87,0,0,0-.23,0,1,1,0,0,0-.67.39l-2,2.67c-.83-.56-1.68-1.09-2.53-1.58l-1-.57a44.61,44.61,0,0,0-5.16-2.34c-.33-.12-.66-.25-1-.36-1.46-.52-2.9-.95-4.33-1.32l-1.54-.37c-1.35-.3-2.66-.54-3.92-.73l-1.09-.16c-1.28-.17-2.5-.29-3.63-.38l-1.07-.06a48.4,48.4,0,0,0-7,0h-.1a1,1,0,0,0-.14,2l.27.07c2,.5,3.94,1.08,5.84,1.71l1,.33c.83.29,1.65.6,2.47.91l1,.38q2.2.87,4.31,1.83l1.87.92q1.25.62,2.46,1.26l.92.51c1.05.57,2.07,1.16,3.08,1.77l.93.55c1.15.72,2.29,1.44,3.38,2.19l-1.12,1.46a1,1,0,0,0,.19,1.43l.51.39.5-.69a1,1,0,0,1,.66-.42,1,1,0,0,1,.76.18l2.89,2-3.28-2.51.56-.73,1.24-1.61L119.93,37l1.24-1.62,1.38-1.82,4.13,3.16.26.2-1.41,1.84-3.76,4.91-1.23,1.61-.58.77-.61-.47a1,1,0,0,1,.16,1.33l-.62.88.64.49a1,1,0,0,0,.62.21h.13a1,1,0,0,0,.68-.39l1.17-1.53q1.68,1.41,3.23,2.8t3.11,2.93c1.78,1.75,3.38,3.43,4.8,5l1,1.12.86,1a81.32,81.32,0,0,1,6.53,8.66,1,1,0,0,0,.84.49h0a1,1,0,0,0,.84-.45c0-.07,2.72-4,5.92-8.7l.69-1,.77-1.12c1.15-1.68,2.33-3.39,3.46-5l2-2.93.91-1.29A1,1,0,0,0,157.31,47.24Zm-41.62-8c-1-.68-2-1.35-3.1-2l-.92-.57c-1.17-.72-2.36-1.42-3.6-2.1-.3-.17-.61-.33-.92-.49-1-.51-1.93-1-2.92-1.49-.32-.16-.64-.33-1-.48Q100.92,31,98.44,30l-1-.39c-.93-.36-1.88-.7-2.84-1-.11,0-.21-.09-.32-.12l.35,0c1,.07,2.08.17,3.22.31l1.1.15c1.47.2,3,.48,4.62.84.43.1.86.2,1.3.32,1.27.32,2.55.69,3.84,1.13.34.11.67.24,1,.36a42.12,42.12,0,0,1,5,2.18c.33.16.65.34,1,.52.88.49,1.76,1,2.61,1.58Zm15.66,13.11c-.95-1-2-1.94-3-2.93-1.55-1.45-3.2-2.93-5-4.41l4.74-6.19h17.67a10.43,10.43,0,0,1,4.56,1.72L144,49.39l-2.11,2.93-3.61,5-.8,1.12-.22.31-.27-.31-1-1.12C134.62,55.77,133.08,54.09,131.35,52.32Zm22.42-2.93-2,2.93c-1.15,1.66-2.32,3.37-3.45,5l-.77,1.12-.68,1c-1.81,2.64-3.38,4.95-4.29,6.3-.79-1.16-2.13-3-4-5.36l.68-.94.72-1,.8-1.12,3.61-5,2.1-2.93,5.47-7.6a12.79,12.79,0,0,1,3.3,5.54C154.76,48,154.27,48.67,153.77,49.39Z"/><path class="cls-3" d="M87,28.4a1,1,0,0,1,.14-2h.1a44.92,44.92,0,0,0-5.5-.11l-1.08,0c-1.38.07-2.91.19-4.57.4-.36,0-.74.09-1.11.15-1.4.2-2.86.46-4.37.8L69.05,28c-1.51.39-3,.86-4.6,1.42l-1,.36A44.92,44.92,0,0,0,58.68,32c-.35.19-.7.38-1,.58-.73.41-1.46.85-2.18,1.32l-1.78-2.34a1,1,0,0,0-.68-.39,1,1,0,0,0-.75.2l-.15.12a2.37,2.37,0,0,0-.49-1.73A2.35,2.35,0,0,0,50,28.91a5.68,5.68,0,0,0-5.5,4.48A2.39,2.39,0,0,0,45,35.16a2.32,2.32,0,0,0,1.32.78h0a1,1,0,0,0-.39.79H28.59a11.42,11.42,0,0,0-2.91.73l-3.63,2.07h0a14.52,14.52,0,0,0-4.86,7.68,1.05,1.05,0,0,0,.15.86c.3.41.61.85.93,1.31.64.91,1.32,1.9,2,2.92l3.45,5,.77,1.12.69,1c3.2,4.68,5.87,8.62,5.92,8.69a1,1,0,0,0,.84.45h0a1,1,0,0,0,.85-.52,61.69,61.69,0,0,1,6.35-8.62c.27-.33.56-.66.86-1l1-1.12c1.44-1.58,3.06-3.27,4.91-5q1.52-1.44,3.22-2.92c1.16-1,2.4-2,3.7-3.07l1.38,1.79a1,1,0,0,0,.67.39h.13a1,1,0,0,0,.62-.21l.52-.39-.69-1a1,1,0,0,1-.09-1l-.17.13-.76-1-1.23-1.61-3.59-4.69L48.29,37l.27-.21,4.12-3.15,1.11,1.46L55,36.68l2.74,3.58L59,41.87l.65.85-.77.59.19-.13a1,1,0,0,1,.76-.18,1.07,1.07,0,0,1,.66.42l.56.79.65-.49a1,1,0,0,0,.18-1.43l-1.18-1.55c.9-.58,1.82-1.15,2.77-1.72l.94-.55c1-.57,2-1.12,3-1.67l.93-.5c.83-.44,1.67-.87,2.53-1.3l1-.48-.16-.65.53.48,1-.5c1.46-.68,3-1.33,4.53-2l1-.4c1-.4,2.06-.8,3.11-1.18l1-.36q2.16-.77,4.44-1.47ZM35.89,60.3c-1.87,2.34-3.19,4.23-4,5.42-.92-1.36-2.47-3.64-4.26-6.26l-.68-1-.77-1.12c-1.13-1.65-2.3-3.36-3.45-5l-2-2.92-1.46-2.08a12.89,12.89,0,0,1,3.28-5.56l5.49,7.64,2.11,2.92,3.6,5,.81,1.12.72,1ZM51.67,44.72c-2,1.57-3.81,3.14-5.5,4.68-1.09,1-2.13,2-3.09,2.92-1.78,1.77-3.35,3.45-4.72,5l-1,1.12-.18.21-.14-.21-.81-1.12-3.61-5-2.1-2.92-6.41-8.91a10.36,10.36,0,0,1,4.5-1.71H47.13Zm26-15-1,.41c-1.78.73-3.51,1.5-5.17,2.29l-1.22.6c-1,.5-2,1-3,1.54l-.92.5c-1.2.65-2.35,1.32-3.48,2l-.94.56c-.84.51-1.68,1-2.48,1.56l-2.77-3.61c.63-.41,1.27-.79,1.91-1.15l1-.53a42.29,42.29,0,0,1,4.9-2.19c.33-.13.67-.25,1-.36,1.38-.48,2.75-.89,4.09-1.23l1.28-.31c1.8-.41,3.54-.71,5.16-.93l1.12-.13c1.43-.16,2.77-.26,4-.32C79.93,28.79,78.8,29.23,77.68,29.68Z"/><polygon class="cls-3" points="107.17 57.34 104.68 57.34 103.88 58.46 103.18 59.46 105.67 59.46 106.38 58.46 107.17 57.34"/><polygon class="cls-3" points="112.14 57.34 109.64 57.34 108.84 58.46 108.14 59.46 110.63 59.46 111.34 58.46 112.14 57.34"/><polygon class="cls-3" points="65.39 57.34 62.9 57.34 63.66 58.41 64.4 59.46 66.88 59.46 66.14 58.41 65.39 57.34"/><polygon class="cls-3" points="70.36 57.34 67.85 57.34 68.6 58.4 69.35 59.46 71.86 59.46 71.15 58.46 70.36 57.34"/><path class="cls-1" d="M88,272.76a4.17,4.17,0,1,1,4.15-4.17A4.16,4.16,0,0,1,88,272.76Z"/><path class="cls-3" d="M88,265.34a3.26,3.26,0,1,1-3.24,3.25A3.25,3.25,0,0,1,88,265.34m0-1.83a5.09,5.09,0,1,0,5.06,5.08A5.08,5.08,0,0,0,88,263.51Z"/><path class="cls-1" d="M87.92,261.64a2.79,2.79,0,0,1-.61-.08c-5.91-2-7.67-11.94-7.75-12.36l-.34-2L82.15,249a30.9,30.9,0,0,1-5.31-17.29l.09-1.89,6,5.33A32.91,32.91,0,0,1,86.76,215l1.16-2.09L89.1,215a32.86,32.86,0,0,1,3.77,20.18l6-5.33.1,1.89A30.9,30.9,0,0,1,93.69,249l2.93-1.86-.35,2c-.07.42-1.84,10.37-7.68,12.34A2.64,2.64,0,0,1,87.92,261.64Z"/><path class="cls-3" d="M87.92,214.75l.38.69a32.15,32.15,0,0,1,3.2,22.16l6.59-5.81a30.68,30.68,0,0,1-8.57,21l5.86-3.72s-1.68,9.8-7.08,11.62a1.23,1.23,0,0,1-.76,0c-5.4-1.82-7.08-11.62-7.08-11.62l5.86,3.72a30.63,30.63,0,0,1-8.57-21l6.59,5.81a32.15,32.15,0,0,1,3.2-22.16l.38-.69m0-3.77-1.6,2.89-.36.65A33.94,33.94,0,0,0,81.83,233L79,230.41l-2.83-2.49-.19,3.78a31.32,31.32,0,0,0,3.53,14.54l-1.49-1,.7,4.07c.19,1.11,2,10.94,8.29,13.05l.06,0h.06a3,3,0,0,0,1.68,0h.06l.06,0c6.25-2.11,8.1-11.94,8.29-13.05l.7-4.07-1.49,1a31.32,31.32,0,0,0,3.53-14.54l-.19-3.78-2.83,2.49L94,233a33.91,33.91,0,0,0-4.14-18.43l-.36-.65L87.92,211Z"/><path class="cls-6" d="M116.44,174.33c.39,4.08,1,13.7.17,17a33.11,33.11,0,0,0-17.45,13.87c-3.74-3.19-9.89-6.12-16.37-9.22-9.49-4.54-19.32-9.23-23.06-15.21-2.92-4.65-4-12.71-4-17.25l-.14.05c0,4.53,1.09,12.62,4,17.28,3.77,6,13.63,10.68,23.17,15.23,6.5,3.09,12.67,6,16.43,9.21a33.19,33.19,0,0,1,17.52-13.87c.87-3.35.22-13-.17-17.06-1.89-1.4-9.6-8.2-4.87-23.37l.34-1.1-.09-.07-.34,1.1C106.88,166.14,114.56,172.94,116.44,174.33Z"/><path class="cls-6" d="M115.76,145.85a24,24,0,0,1,.21,5.46l.11.09a24.73,24.73,0,0,0-.13-4.84c0-.37-.13-.72-.2-1.08l0,.08Z"/><path class="cls-3" d="M65.11,159l-.11.27.1-.06.11-.27c11.79-28.72,5-48.06,1.31-58.44l-.46-1.32c-3-8.57-12.29-22.16-15.8-27.28l-.78-1.14,4.26-4.56C57.49,68.24,76.61,78.56,87,78.56l.61,0,.25,0c13.13-4.37,26.8-4.91,29.31-2.5,2.94,3.37,2.49,15.18,2.34,19.06-.56,14.75-2.18,21.14-3.44,23.9l-.07.31.26.42c2.2,3.56,2.6,8.53,2.34,13.1l1.85-.76c.15-4.46-.46-9.12-2.54-12.75,1.82-4.36,3-12.48,3.41-24.15.29-7.65.23-16.87-2.86-20.4-3.77-3.64-19.36-1.88-31,2H87c-10.84,0-32.77-12.39-33-12.52l-.61-.35L47.69,70c-.53.56-.5.61,1.09,2.93,3.13,4.58,12.67,18.51,15.58,26.85l.46,1.32c3.44,9.75,9.72,27.58,0,53.84L67,154C66.43,155.62,65.81,157.27,65.11,159Z"/><path class="cls-3" d="M66.43,100.49,66,99.17c-.06-.18-.14-.37-.21-.55L30.16,113.37l15.72,49.31L67,154C76.16,128,69.89,110.27,66.43,100.49Zm-2.47,19v14.64a15.32,15.32,0,0,1-10,14L47,150.79a1.89,1.89,0,0,1-.67.13,1.18,1.18,0,0,1-.68-.19,1.37,1.37,0,0,1-.53-1.17v-1.2a2.54,2.54,0,0,1,1.56-2.23l.7-.27c.46-.18.54-.3.54-.5V120.69l-.91.37a1.39,1.39,0,0,1-1.32-.09,1.32,1.32,0,0,1-.57-1.16V118.6a2.41,2.41,0,0,1,1.44-2.14l7.9-3.27c2.83-1.17,5.21-1.19,6.88-.07S64,116.45,64,119.49Zm-28.41-1.37a1.52,1.52,0,0,1-.59-2.93l30.23-12.73c.32.91.65,1.87,1,2.9L36.14,118A1.52,1.52,0,0,1,35.55,118.12ZM47.8,157.57a1.53,1.53,0,0,1-.59-2.93l20.3-8.55c-.32,1.23-.67,2.49-1.06,3.76l-18.06,7.6A1.52,1.52,0,0,1,47.8,157.57Z"/><path class="cls-3" d="M53.6,143.44a8.7,8.7,0,0,0,5.59-7.82V121c0-1.56-.42-2.67-1.2-3.19a2.31,2.31,0,0,0-1.33-.37,5,5,0,0,0-1.88.43l-1.67.68a.52.52,0,0,0-.38.51v24.71h0Z"/><path class="cls-1" d="M79.78,130.15a4.58,4.58,0,0,0-.17.67c0,.09-.17.64-.2.78,3.11-.44,6.2,2,7.12,3.56l-1.26.79a2.26,2.26,0,0,0-.46-.58c-.55-.49-2.23-2.06-3.9-1.77a5.29,5.29,0,0,0-1.26.36,3.4,3.4,0,0,1-.77,3l-.13.15-.06.07h0c-.3.34-.6.69-.89,1l-.69.83c-.61.74-1.24,1.5-1.94,2.27l-.21.24a3.37,3.37,0,0,0-.59.93.93.93,0,0,0,0,.37.89.89,0,0,0,.11.31,2.13,2.13,0,0,0,.44.51h0l.11.09.15.1a.57.57,0,0,0,.13.08,2.81,2.81,0,0,1,.56.35l.32.23a.46.46,0,0,1,.27-.18,11.76,11.76,0,0,1,2.19.25l0,.14-1.84.78s0,0-.06,0v0a3.57,3.57,0,0,1-.23,1.14l0,.08a1.87,1.87,0,0,0-.1.39c0,.07.11.22.17.35a2,2,0,0,0,.37.27l.36.14.35.14.07,0a.81.81,0,0,1,.25.08l.25.22.33.83v.08l-.92.37-.24-.08-.06,0a.75.75,0,0,1-.32-.12l-.32-.12a3.3,3.3,0,0,0-.18.32.55.55,0,0,0-.06.52,1.06,1.06,0,0,0,.12.24,1,1,0,0,1,.1.17,2.59,2.59,0,0,1,.42,2.53,3.77,3.77,0,0,1-.14.7,3.25,3.25,0,0,0,.43,2.35,1.79,1.79,0,0,0,.8.62,5.11,5.11,0,0,0,.75.2h0l.41.05h.08a30.8,30.8,0,0,1,4,.59l.2,0a.78.78,0,0,1,.38.06l.33,0a90.15,90.15,0,0,0,7.43-13.94,24.34,24.34,0,0,0,1.63-5.32,6.48,6.48,0,0,0,.07-1.28c-.7-.41-1.4-.8-2.09-1.19C86.94,133.55,82.93,131.59,79.78,130.15Z"/><path class="cls-1" d="M141.27,118.35a1.53,1.53,0,0,0-1.18-2.82l-20.23,8.52a25.72,25.72,0,0,1,.54,3.08Z"/><path class="cls-1" d="M158.59,66.44a1.52,1.52,0,1,0-1.18-2.81L120.6,79.13a28.56,28.56,0,0,1,.56,3.07Z"/><path class="cls-1" d="M141.28,78a13.75,13.75,0,0,0-5.91,1c-.57.21-1.15.44-1.72.69s-1.17.51-1.77.8a8.77,8.77,0,0,0-4.22,4.34,20.6,20.6,0,0,0-1.53,7.51c-.23,4.79.29,7.45,1.56,8s3.07.43,5.4-.25l.33-.06.37-.12a5.39,5.39,0,0,0,.68-.22l.69-.27a6,6,0,0,1,2.88-.47c.75.12,1.06,1.36,1,3.71a9,9,0,0,1-1.09,4.56,6.46,6.46,0,0,1-2.92,2.13l-1.58.65c-.53.23-1.07.43-1.58.6-1.25.49-2,.19-2.2-.89a17.12,17.12,0,0,1-.21-4.12,1.3,1.3,0,0,0-2-1.29,3.45,3.45,0,0,0-2.07,2.92c0,.9-.1,1.8-.12,2.7a14.31,14.31,0,0,0,.51,5.07,2.2,2.2,0,0,0,1.51,1.57,11.83,11.83,0,0,0,6.15-1.23c.71-.3,1.4-.61,2.09-.94s1.39-.67,2.07-1a9.15,9.15,0,0,0,4.35-5.2,31.24,31.24,0,0,0,1.26-7.79q.35-7.06-2.09-7.37a12.54,12.54,0,0,0-5.68.78c-.26.1-.53.2-.82.29s-.56.18-.82.24a2.28,2.28,0,0,1-.35.11,1.81,1.81,0,0,0-.31.09c-1.14.34-1.91.27-2.31-.23s-.56-1.66-.47-3.46c0-.18,0-.37.05-.58s0-.41,0-.63a10.57,10.57,0,0,1,.34-1.62,4.5,4.5,0,0,1,.68-1.37,5.55,5.55,0,0,1,1-.93,7.38,7.38,0,0,1,1.14-.67c.21-.11.43-.21.63-.29l.59-.22,1.13-.42c1.31-.49,2.21-.48,2.71,0s.7,1.81.6,3.91c0,0,0,1.67,1.87.93a3.11,3.11,0,0,0,2.19-2.49l.07-1.38Q143.74,78.26,141.28,78Z"/><path class="cls-1" d="M115.75,145.48c0-.18-.06-.37-.1-.54l-.1-.07a52.75,52.75,0,0,0-8.52-7.32c-1.38-1-2.82-2-4.32-3-1-.67-2.06-1.34-3.12-2A128.21,128.21,0,0,0,81.46,123l-.1-.07c-1.7.89-4.68,2.47-6.46,3.42a158.34,158.34,0,0,1,18.27,8.91q1.62.92,3.3,1.92,2.22,1.33,4.52,2.82a126.84,126.84,0,0,1,15,11.28l.11.09a24.73,24.73,0,0,0-.13-4.84C115.9,146.19,115.82,145.84,115.75,145.48Z"/><path class="cls-1" d="M116.08,131c-.08-.61-.2-1.27-.34-1.95a23.57,23.57,0,0,0-.81-3,18.47,18.47,0,0,0-3.85-6.58,19.24,19.24,0,0,0-9.14-5.31,15.91,15.91,0,0,0-7.75-.34,13.55,13.55,0,0,0-3.54,1.4c-1.41,3.12-2.8,3.64-4.07,3.07l0,0a4.7,4.7,0,0,1-1.34,4,148.81,148.81,0,0,1,16.68,9.18c1,.66,2.07,1.34,3.08,2,1.48,1,2.92,2,4.27,3a60.7,60.7,0,0,1,6.42,5.39,43,43,0,0,0,.62-8.28C116.26,132.82,116.19,131.91,116.08,131Z"/><path class="cls-1" d="M116,119.46l0-.07c-4.67-6.31-8.81-8.82-15.55-9.44a8.42,8.42,0,0,0-1.07,1.31l-.28.38a20.91,20.91,0,0,1,3.35.63,21.22,21.22,0,0,1,10.1,5.89,20.62,20.62,0,0,1,4.25,7.17,25.21,25.21,0,0,1,.84,3c.2.88.34,1.72.44,2.49s.14,1.42.18,2.15c0,.44,0,.88,0,1.33.09-.48.17-1,.24-1.45s.16-1.24.21-1.85c0-4-.63-8-2.54-11.08Z"/><polygon class="cls-3" points="119.66 132.36 120.46 132.03 120.46 132.03 119.66 132.36"/><path class="cls-1" d="M115.75,145.48c0-.18-.06-.37-.1-.54l-.1-.07a52.75,52.75,0,0,0-8.52-7.32c-1.38-1-2.82-2-4.32-3-1-.67-2.06-1.34-3.12-2A128.21,128.21,0,0,0,81.46,123l-.1-.07c-1.7.89-4.68,2.47-6.46,3.42a158.34,158.34,0,0,1,18.27,8.91q1.62.92,3.3,1.92,2.22,1.33,4.52,2.82a126.84,126.84,0,0,1,15,11.28l.11.09a24.73,24.73,0,0,0-.13-4.84C115.9,146.19,115.82,145.84,115.75,145.48Z"/><path class="cls-1" d="M141.28,78a13.75,13.75,0,0,0-5.91,1c-.57.21-1.15.44-1.72.69s-1.17.51-1.77.8a8.77,8.77,0,0,0-4.22,4.34,20.6,20.6,0,0,0-1.53,7.51c-.23,4.79.29,7.45,1.56,8s3.07.43,5.4-.25l.33-.06.37-.12a5.39,5.39,0,0,0,.68-.22l.69-.27a6,6,0,0,1,2.88-.47c.75.12,1.06,1.36,1,3.71a9,9,0,0,1-1.09,4.56,6.46,6.46,0,0,1-2.92,2.13l-1.58.65c-.53.23-1.07.43-1.58.6-1.25.49-2,.19-2.2-.89a17.12,17.12,0,0,1-.21-4.12,1.3,1.3,0,0,0-2-1.29,3.45,3.45,0,0,0-2.07,2.92c0,.9-.1,1.8-.12,2.7a14.31,14.31,0,0,0,.51,5.07,2.2,2.2,0,0,0,1.51,1.57,11.83,11.83,0,0,0,6.15-1.23c.71-.3,1.4-.61,2.09-.94s1.39-.67,2.07-1a9.15,9.15,0,0,0,4.35-5.2,31.24,31.24,0,0,0,1.26-7.79q.35-7.06-2.09-7.37a12.54,12.54,0,0,0-5.68.78c-.26.1-.53.2-.82.29s-.56.18-.82.24a2.28,2.28,0,0,1-.35.11,1.81,1.81,0,0,0-.31.09c-1.14.34-1.91.27-2.31-.23s-.56-1.66-.47-3.46c0-.18,0-.37.05-.58s0-.41,0-.63a10.57,10.57,0,0,1,.34-1.62,4.5,4.5,0,0,1,.68-1.37,5.55,5.55,0,0,1,1-.93,7.38,7.38,0,0,1,1.14-.67c.21-.11.43-.21.63-.29l.59-.22,1.13-.42c1.31-.49,2.21-.48,2.71,0s.7,1.81.6,3.91c0,0,0,1.67,1.87.93a3.11,3.11,0,0,0,2.19-2.49l.07-1.38Q143.74,78.26,141.28,78Z"/><path class="cls-1" d="M140.09,115.53l-20.23,8.52a25.72,25.72,0,0,1,.54,3.08l20.87-8.78a1.53,1.53,0,0,0-1.18-2.82Z"/><path class="cls-1" d="M116.08,131c-.08-.61-.2-1.27-.34-1.95a23.57,23.57,0,0,0-.81-3,18.47,18.47,0,0,0-3.85-6.58,19.24,19.24,0,0,0-9.14-5.31,15.91,15.91,0,0,0-7.75-.34,13.55,13.55,0,0,0-3.54,1.4c-1.41,3.12-2.8,3.64-4.07,3.07l0,0a4.7,4.7,0,0,1-1.34,4,148.81,148.81,0,0,1,16.68,9.18c1,.66,2.07,1.34,3.08,2,1.48,1,2.92,2,4.27,3a60.7,60.7,0,0,1,6.42,5.39,43,43,0,0,0,.62-8.28C116.26,132.82,116.19,131.91,116.08,131Z"/><path class="cls-1" d="M116,119.46l0-.07c-4.67-6.31-8.81-8.82-15.55-9.44a8.42,8.42,0,0,0-1.07,1.31l-.28.38a20.91,20.91,0,0,1,3.35.63,21.22,21.22,0,0,1,10.1,5.89,20.62,20.62,0,0,1,4.25,7.17,25.21,25.21,0,0,1,.84,3c.2.88.34,1.72.44,2.49s.14,1.42.18,2.15c0,.44,0,.88,0,1.33.09-.48.17-1,.24-1.45s.16-1.24.21-1.85c0-4-.63-8-2.54-11.08Z"/><path class="cls-1" d="M157.41,63.63,120.6,79.13a28.56,28.56,0,0,1,.56,3.07l37.43-15.76.15-.08.63-2A1.52,1.52,0,0,0,157.41,63.63Z"/><path class="cls-1" d="M79.78,130.15a4.58,4.58,0,0,0-.17.67c0,.09-.17.64-.2.78,3.11-.44,6.2,2,7.12,3.56l-1.26.79a2.26,2.26,0,0,0-.46-.58c-.55-.49-2.23-2.06-3.9-1.77a5.29,5.29,0,0,0-1.26.36,3.4,3.4,0,0,1-.77,3l-.13.15-.06.07h0c-.3.34-.6.69-.89,1l-.69.83c-.61.74-1.24,1.5-1.94,2.27l-.21.24a3.37,3.37,0,0,0-.59.93.93.93,0,0,0,0,.37.89.89,0,0,0,.11.31,2.13,2.13,0,0,0,.44.51h0l.11.09.15.1a.57.57,0,0,0,.13.08,2.81,2.81,0,0,1,.56.35l.32.23a.46.46,0,0,1,.27-.18,11.76,11.76,0,0,1,2.19.25l0,.14-1.84.78s0,0-.06,0v0a3.57,3.57,0,0,1-.23,1.14l0,.08a1.87,1.87,0,0,0-.1.39c0,.07.11.22.17.35a2,2,0,0,0,.37.27l.36.14.35.14.07,0a.81.81,0,0,1,.25.08l.25.22.33.83v.08l-.92.37-.24-.08-.06,0a.75.75,0,0,1-.32-.12l-.32-.12a3.3,3.3,0,0,0-.18.32.55.55,0,0,0-.06.52,1.06,1.06,0,0,0,.12.24,1,1,0,0,1,.1.17,2.59,2.59,0,0,1,.42,2.53,3.77,3.77,0,0,1-.14.7,3.25,3.25,0,0,0,.43,2.35,1.79,1.79,0,0,0,.8.62,5.11,5.11,0,0,0,.75.2h0l.41.05h.08a30.8,30.8,0,0,1,4,.59l.2,0a.78.78,0,0,1,.38.06l.33,0a90.15,90.15,0,0,0,7.43-13.94,24.34,24.34,0,0,0,1.63-5.32,6.48,6.48,0,0,0,.07-1.28c-.7-.41-1.4-.8-2.09-1.19C86.94,133.55,82.93,131.59,79.78,130.15Z"/><path class="cls-3" d="M158.59,66.44,121.16,82.2a28.56,28.56,0,0,0-.56-3.07l36.81-15.5a1.52,1.52,0,0,1,2,.74l1.54-4.91h-.7L145,65.77l-1.62,2.39a1,1,0,0,1-.84.45h0a1,1,0,0,1-.84-.49l-.5-.76L117.92,77c2.25,4.25,1.86,14.53,1.72,18.11-.49,12.85-1.78,19.36-3,22.65-4.76-6.21-9.14-8.69-16.15-9.32-.91-.09-1.49.72-2.37,1.94-.26.35-.55.75-.89,1.17-.31,0-.62,0-.92,0h0a12.66,12.66,0,0,0-5.76,1.16,19.36,19.36,0,0,0-8.09,6.84l-.1.16c-.12.17-.23.35-.35.53l-.94,1.14c-2.29,1.17-8.1,4.28-8.37,4.43a.76.76,0,0,0,.1,1.38c.07,0,2.17.81,5.56,2.32a3.82,3.82,0,0,0-.25,1.07c0,.15,0,.31-.08.54s-.06.28-.1.47l-.2.82.14.52.11.42.06.29a2.22,2.22,0,0,1-.4,2.43c.51-.59.45-.51-.08.08l-.9,1.06c-.28.32-.56.65-.83,1-.59.7-1.18,1.4-1.78,2.09h0c-.08.08-.15.17-.22.25l0,.06A3.91,3.91,0,0,0,73,142a2.53,2.53,0,0,0-.13,1,2,2,0,0,0,.21.73,3,3,0,0,0,.94,1.12l.16.12a2.35,2.35,0,0,0,.45.31l.31.18.08,0a.7.7,0,0,1,.06.69v0c0,.13-.09.25-.11.32a1.37,1.37,0,0,0-.07.63,1.73,1.73,0,0,0,.43,1.23c.43.95.46,1,0,.07a2.52,2.52,0,0,0-.35,2.23,2.24,2.24,0,0,0,.4.69,4.86,4.86,0,0,1,.19,1.28v.16c0,.21-.1.41-.13.62s-.09.33-.12.49a3.64,3.64,0,0,0,.55,3,3.72,3.72,0,0,0,1.7,1.25,4.22,4.22,0,0,0,1.06.28l.52.08c1,.14,2.34.65,3.84.88l.2.05-.17.24a1,1,0,0,0,.21,1.42,1,1,0,0,0,.6.2l.5,0c.1.34.19.67.27,1,.7,2.43,1.07,3.6,2,3.73l1.75.24-1.06-1.46a5.41,5.41,0,0,1-.66-1.37c-.13-.43-.28-.89-.44-1.35s-.25-.76-.37-1.13c.15-.22.09-.24.45-.78,0,0,4.13-.38,5.78-.74,2.72-.6,4.63-2.38,4.76-3.17s-1.8,1.2-5.37,1.76a17.54,17.54,0,0,1-3.81.15c2.33-3.66,6.27-10.66,8-15.87a17.46,17.46,0,0,0,.8-3.31c.94.57,1.9,1.19,2.87,1.8a133.06,133.06,0,0,1,12.66,9.13l.09.07-.34,1.1c-4.73,15.17,3,22,4.87,23.37.39,4.08,1,13.71.17,17.06A33.19,33.19,0,0,0,99.2,205.34c-3.76-3.18-9.93-6.12-16.43-9.21-9.54-4.55-19.4-9.24-23.17-15.23-2.93-4.66-4-12.75-4-17.28l.14-.05v0a38.47,38.47,0,0,0,9.13-4.23l.15-.1.11-.27c.7-1.68,1.32-3.33,1.89-4.95l-2.18.9c-.37,1-.75,2-1.16,3a31.37,31.37,0,0,1-9,4l-.71.14,0,.74c-.06,3.28.58,13.08,4.28,19,4,6.43,14.09,11.24,23.82,15.89,6.87,3.28,13.36,6.38,16.76,9.66l.89.86.54-1.12A31.1,31.1,0,0,1,117.62,193l.42-.14.15-.42c1.44-4,.07-18.09,0-18.68l0-.46-.39-.24c-.37-.22-8.84-5.54-4.81-20.26l4,3.08.35-1.32a23.85,23.85,0,0,0,.27-8.68A40,40,0,0,0,120.46,132h0l20.2-8.3,18.08-57.37ZM93.41,138.5a24.34,24.34,0,0,1-1.63,5.32,90.15,90.15,0,0,1-7.43,13.94l-.33,0a.78.78,0,0,0-.38-.06l-.2,0a30.8,30.8,0,0,0-4-.59h-.08L78.9,157h0a5.11,5.11,0,0,1-.75-.2,1.79,1.79,0,0,1-.8-.62,3.25,3.25,0,0,1-.43-2.35,3.77,3.77,0,0,0,.14-.7,2.59,2.59,0,0,0-.42-2.53,1,1,0,0,0-.1-.17,1.06,1.06,0,0,1-.12-.24.55.55,0,0,1,.06-.52,3.3,3.3,0,0,1,.18-.32l.32.12a.75.75,0,0,0,.32.12l.06,0,.24.08.92-.37v-.08l-.33-.83-.25-.22a.81.81,0,0,0-.25-.08l-.07,0-.35-.14-.36-.14a2,2,0,0,1-.37-.27c-.06-.13-.13-.28-.17-.35a1.87,1.87,0,0,1,.1-.39l0-.08a3.57,3.57,0,0,0,.23-1.14v0s0,0,.06,0l1.84-.78,0-.14a11.76,11.76,0,0,0-2.19-.25.46.46,0,0,0-.27.18l-.32-.23a2.81,2.81,0,0,0-.56-.35.57.57,0,0,1-.13-.08l-.15-.1-.11-.09h0a2.13,2.13,0,0,1-.44-.51.89.89,0,0,1-.11-.31.93.93,0,0,1,0-.37,3.37,3.37,0,0,1,.59-.93l.21-.24c.7-.77,1.33-1.53,1.94-2.27l.69-.83c.29-.35.59-.7.89-1h0l.06-.07.13-.15a3.4,3.4,0,0,0,.77-3,5.29,5.29,0,0,1,1.26-.36c1.67-.29,3.35,1.28,3.9,1.77a2.26,2.26,0,0,1,.46.58l1.26-.79c-.92-1.61-4-4-7.12-3.56,0-.14.19-.69.2-.78a4.58,4.58,0,0,1,.17-.67c3.15,1.44,7.16,3.4,11.61,5.88.69.39,1.39.78,2.09,1.19A6.48,6.48,0,0,1,93.41,138.5Zm22.67,12.9-.11-.09A126.84,126.84,0,0,0,101,140q-2.3-1.49-4.52-2.82-1.68-1-3.3-1.92a158.34,158.34,0,0,0-18.27-8.91c1.78-.95,4.76-2.53,6.46-3.42l.1.07a128.21,128.21,0,0,1,18.13,9.55c1.06.66,2.1,1.33,3.12,2,1.5,1,2.94,2,4.32,3a52.75,52.75,0,0,1,8.52,7.32l.1.07c0,.17.06.36.1.54.07.36.15.71.2,1.08A24.73,24.73,0,0,1,116.08,151.4Zm-.41-9.37a60.7,60.7,0,0,0-6.42-5.39c-1.35-1-2.79-2-4.27-3-1-.67-2-1.35-3.08-2a148.81,148.81,0,0,0-16.68-9.18,4.7,4.7,0,0,0,1.34-4l0,0c1.27.57,2.66,0,4.07-3.07a13.55,13.55,0,0,1,3.54-1.4,15.91,15.91,0,0,1,7.75.34,19.24,19.24,0,0,1,9.14,5.31,18.47,18.47,0,0,1,3.85,6.58,23.57,23.57,0,0,1,.81,3c.14.68.26,1.34.34,1.95.11.87.18,1.78.21,2.71A43,43,0,0,1,115.67,142Zm2.9-9.22c-.07.49-.15,1-.24,1.45,0-.45,0-.89,0-1.33,0-.73-.09-1.45-.18-2.15s-.24-1.61-.44-2.49a25.21,25.21,0,0,0-.84-3,20.62,20.62,0,0,0-4.25-7.17,21.22,21.22,0,0,0-10.1-5.89,20.91,20.91,0,0,0-3.35-.63l.28-.38a8.42,8.42,0,0,1,1.07-1.31c.14-.08.73.08.9.1s.61.07.91.12c.57.08,1.14.19,1.7.32a17.33,17.33,0,0,1,3.09,1c7.46,3.16,11.5,10.72,11.59,18.58A22.2,22.2,0,0,1,118.57,132.81Zm22.7-14.46-20.87,8.78a25.72,25.72,0,0,0-.54-3.08l20.23-8.52a1.53,1.53,0,0,1,1.18,2.82Zm2.14-33.27-.07,1.38A3.11,3.11,0,0,1,141.15,89c-1.91.74-1.87-.93-1.87-.93.1-2.1-.1-3.4-.6-3.91s-1.4-.52-2.71,0l-1.13.42-.59.22c-.2.08-.42.18-.63.29a7.38,7.38,0,0,0-1.14.67,5.55,5.55,0,0,0-1,.93,4.5,4.5,0,0,0-.68,1.37,10.57,10.57,0,0,0-.34,1.62c0,.22,0,.43,0,.63s0,.4-.05.58c-.09,1.8.07,3,.47,3.46s1.17.57,2.31.23a1.81,1.81,0,0,1,.31-.09,2.28,2.28,0,0,0,.35-.11c.26-.06.53-.15.82-.24s.56-.19.82-.29a12.54,12.54,0,0,1,5.68-.78q2.43.3,2.09,7.37a31.24,31.24,0,0,1-1.26,7.79,9.15,9.15,0,0,1-4.35,5.2c-.68.36-1.37.7-2.07,1s-1.38.64-2.09.94a11.83,11.83,0,0,1-6.15,1.23,2.2,2.2,0,0,1-1.51-1.57,14.31,14.31,0,0,1-.51-5.07c0-.9.08-1.8.12-2.7a3.45,3.45,0,0,1,2.07-2.92,1.3,1.3,0,0,1,2,1.29,17.12,17.12,0,0,0,.21,4.12c.22,1.08.95,1.38,2.2.89.51-.17,1.05-.37,1.58-.6l1.58-.65a6.46,6.46,0,0,0,2.92-2.13,9,9,0,0,0,1.09-4.56c.11-2.35-.2-3.59-1-3.71a6,6,0,0,0-2.88.47l-.69.27a5.39,5.39,0,0,1-.68.22l-.37.12-.33.06c-2.33.68-4.14.76-5.4.25s-1.79-3.17-1.56-8a20.6,20.6,0,0,1,1.53-7.51,8.77,8.77,0,0,1,4.22-4.34c.6-.29,1.19-.55,1.77-.8s1.15-.48,1.72-.69a13.75,13.75,0,0,1,5.91-1Q143.74,78.25,143.41,85.08Z"/><path class="cls-3" d="M134.27,58.46l-1-1.12H112.13l-.79,1.12-.71,1h24.5Z"/><path class="cls-3" d="M63.66,58.41l-.76-1.07H41.07l-1,1.12c-.3.34-.59.67-.86,1H64.4Z"/><polygon class="cls-3" points="71.86 59.46 103.18 59.46 103.88 58.46 104.68 57.34 70.36 57.34 71.15 58.46 71.86 59.46"/><path class="cls-3" d="M150.75,57.34,150,58.46l-.68,1h11.61l-1.54,4.91a.16.16,0,0,0,0,.07,1.53,1.53,0,0,1-.67,1.92l-18.08,57.37L88,291,14.12,59.46H25.21l-.69-1-.77-1.12H11.23L88,298,163.8,57.34Z"/></svg>