<svg id="logo_couleur" data-name="logo couleur" xmlns="http://www.w3.org/2000/svg" viewBox="0 0 446.91 622.09"><defs><style>.cls-1{font-size:96.23px;font-family:SourceSansPro-Black, Source Sans Pro;}.cls-1,.cls-13,.cls-15,.cls-2{fill:#1b2c3d;}.cls-2{font-size:30.1px;font-family:SourceSansPro-Regular, Source Sans Pro;}.cls-3{letter-spacing:0.13em;}.cls-4{letter-spacing:0.13em;}.cls-5{letter-spacing:0.13em;}.cls-6{letter-spacing:0.11em;}.cls-7{letter-spacing:0.13em;}.cls-8{letter-spacing:0.12em;}.cls-11,.cls-12,.cls-9{fill:none;}.cls-12,.cls-15,.cls-9{stroke:#1b2c3d;}.cls-9{stroke-width:2px;}.cls-10{fill:#c21515;}.cls-12{stroke-linecap:round;stroke-linejoin:round;stroke-width:1.05px;}.cls-14{fill:#fff;}.cls-15{stroke-miterlimit:10;stroke-width:0.25px;}</style></defs><title>LOGO SDIS79-Artboard 1360ppi</title><text class="cls-1" transform="translate(61.19 517.15)">SDIS 79</text><text class="cls-2" transform="translate(65 561.07)"><tspan class="cls-3">SA</tspan><tspan class="cls-4" x="39.94" y="0">P</tspan><tspan class="cls-5" x="61.01" y="0">E</tspan><tspan class="cls-4" x="80.63" y="0">U</tspan><tspan class="cls-6" x="103.78" y="0">R</tspan><tspan class="cls-5" x="124.58" y="0">S-POM</tspan><tspan class="cls-7" x="228.17" y="0">PI</tspan><tspan class="cls-5" x="260.89" y="0">E</tspan><tspan class="cls-8" x="280.52" y="0">R</tspan><tspan x="301.34" y="0">S</tspan></text><line class="cls-9" x1="61.97" y1="419.27" x2="386.85" y2="419.27"/><rect class="cls-10" x="186.11" y="414.77" width="78.25" height="9"/><polygon class="cls-11" points="224.41 373.48 306.16 113.64 141.16 113.64 224.41 373.48"/><polygon class="cls-11" points="224.41 373.48 306.16 113.64 141.16 113.64 224.41 373.48"/><polygon class="cls-11" points="204.44 74.59 217.28 86.53 224.4 63.02 231.52 86.53 243.08 74.06 240.2 93.65 231.23 103.27 224.44 94.73 217.94 103.3 207.15 93.65 204.44 74.59"/><line class="cls-12" x1="224.4" y1="63.02" x2="224.44" y2="110.64"/><path class="cls-11" d="M275,121.72c1.86,2.32,3.2,4.2,4,5.36,2.29-3.38,8.65-12.72,12.68-18.44a12.74,12.74,0,0,0-3.29-5.53Z"/><path class="cls-11" d="M230.76,89.74a89.08,89.08,0,0,1,21.39,10.79l2.58-3.37C246.63,91.73,237.09,90.14,230.76,89.74Z"/><path class="cls-11" d="M273.66,120.09l13.13-18.26a10.73,10.73,0,0,0-4.56-1.73H264.55l-4.73,6.19A108.7,108.7,0,0,1,273.66,120.09Z"/><path class="cls-11" d="M275,121.72c1.86,2.32,3.2,4.2,4,5.36,2.29-3.38,8.65-12.72,12.68-18.44a12.74,12.74,0,0,0-3.29-5.53Z"/><path class="cls-11" d="M190.25,96.37l-1.12-1.46L185,98.06h3.09C188.81,97.46,189.53,96.9,190.25,96.37Z"/><path class="cls-11" d="M217.55,89.69c-6.15.28-16,1.7-24.38,7.14l2.76,3.62A106.28,106.28,0,0,1,217.55,89.69Z"/><polyline class="cls-11" points="190.97 106.4 191.73 107.39 196.12 104.04 195.47 103.19"/><path class="cls-11" d="M165.11,100.1c-.22,0-6.91.59-9.37,8.53,4,5.7,10.34,15,12.65,18.4a91.62,91.62,0,0,1,19.74-21l-4.55-5.94Z"/><path class="cls-11" d="M182.32,98.06a1,1,0,0,1,.38-.79l0,0a2.28,2.28,0,0,1-1.31-.77,2.35,2.35,0,0,1-.48-1.77,5.65,5.65,0,0,1,5.5-4.48,2.26,2.26,0,0,1,2.12,2.56l.15-.11a1,1,0,0,1,1.43.18l1.79,2.34c13.89-9.13,31-7.57,31.83-7.49a1,1,0,0,1,.91.92,1,1,0,0,1-.72,1.07,105.5,105.5,0,0,0-26.77,12.36l1.18,1.55a1,1,0,0,1-.19,1.42l-6,4.6a1.08,1.08,0,0,1-.62.21h-.13a1.08,1.08,0,0,1-.68-.39l-1.37-1.8c-1.31,1-2.54,2.06-3.71,3.07H306.29L224.37,63.45,162.14,98.8a11.62,11.62,0,0,1,2.9-.74Z"/><path class="cls-11" d="M183.58,100.1H165.11a10.27,10.27,0,0,0-4.5,1.7l6.4,8.91h15.61c1.69-1.53,3.51-3.1,5.51-4.67Z"/><path class="cls-11" d="M153.64,108.54a14.49,14.49,0,0,1,4.86-7.67h0l-17.34,9.85h13.55l-.92-1.31A1,1,0,0,1,153.64,108.54Z"/><polygon class="cls-11" points="189.74 104.79 190.97 106.4 191.73 107.39 196.12 104.04 195.47 103.19 194.23 101.57 191.49 97.99 190.25 96.37 189.13 94.91 185.02 98.06 184.75 98.27 186.15 100.1 189.74 104.79"/><path class="cls-11" d="M173.68,120c1.61-1.92,3.56-4.07,5.85-6.34H169.12Z"/><path class="cls-11" d="M159,103.08a12.91,12.91,0,0,0-3.28,5.55l1.46,2.09h7.31Z"/><path class="cls-11" d="M168.39,127c.77-1.18,2.08-3.07,4-5.42l-5.73-8h-7.38C162.77,118.77,166.68,124.51,168.39,127Z"/><path class="cls-11" d="M217.55,89.69c-6.15.28-16,1.7-24.38,7.14l2.76,3.62A106.28,106.28,0,0,1,217.55,89.69Z"/><path class="cls-11" d="M169.31,129.4a1,1,0,0,1-.84.52h-.05a1,1,0,0,1-.84-.45c-.07-.11-6-8.86-10.83-15.83H141.16l83.25,259.84,81.75-259.84H182.43C173.48,122.15,169.39,129.26,169.31,129.4Z"/><path class="cls-11" d="M288.38,103.11l-5.47,7.6h7.31l1.45-2.07A12.74,12.74,0,0,0,288.38,103.11Z"/><path class="cls-11" d="M279,129.93h0a1,1,0,0,1-.85-.49,93.28,93.28,0,0,0-13.18-15.8h-82.5c1-1,2.09-1.94,3.22-2.93h76.16c-1-.93-2.1-1.87-3.23-2.8l1.24-1.61c1.78,1.47,3.43,3,5,4.41h15.6l6.39-8.88a10.73,10.73,0,0,0-4.56-1.73H264.55l1.08-1.41a1,1,0,0,0,.19-.63H282.3a13.21,13.21,0,0,1,6.37,2.64.75.75,0,0,1,.13.06.68.68,0,0,1,.12.12,14.49,14.49,0,0,1,4.85,7.66,1,1,0,0,1-.15.87c-.29.41-.6.84-.91,1.29h13.58L224.37,63.45,162.14,98.8a13.53,13.53,0,0,0-3.42,1.9.67.67,0,0,0-.12.06,1.09,1.09,0,0,0-.1.11l-17.34,9.85h13.55l2,2.92H141.16l83.25,259.84,81.75-259.84h-15.5c-4.83,7-10.76,15.73-10.84,15.84A1,1,0,0,1,279,129.93Z"/><path class="cls-11" d="M273.66,120.09l4.64-6.45H267.8C270.07,115.94,272,118.14,273.66,120.09Z"/><path class="cls-11" d="M275,121.72c1.86,2.32,3.2,4.2,4,5.36,1.7-2.5,5.63-8.29,9.2-13.44H280.8Z"/><path class="cls-13" d="M310.76,110.84,224.9,61.32l-.52-.31-87.92,49.84,3.27,10.2L224.4,386.23l86.4-275.37v0Zm-4.6,2.8L224.41,373.48,141.16,113.64h15.59l-2-2.92H141.16l17.34-9.85a1.09,1.09,0,0,1,.1-.11.67.67,0,0,1,.12-.06,13.53,13.53,0,0,1,3.42-1.9l62.23-35.35,81.92,47.26H292.71l-2,2.93Z"/><polygon class="cls-11" points="231.06 136.41 233.99 135.74 249.65 113.64 247.18 113.64 231.06 136.41"/><polygon class="cls-11" points="253.71 107.91 252.06 106.74 249.25 110.71 251.73 110.71 253.71 107.91"/><path class="cls-13" d="M264.93,113.64q-1.49-1.44-3.12-2.93h-7.59l-2.07,2.93Z"/><path class="cls-11" d="M230,100.84l1.24,1.62,7-7.51c-1.39-.65-2.84-1.25-4.3-1.84Z"/><path class="cls-11" d="M209.28,107.81l-5.45-9.7c-1,.55-2,1.11-3,1.67Z"/><path class="cls-11" d="M228.46,98.8l.86,1.12L233,92.74c-.81-.32-1.63-.62-2.47-.91Z"/><path class="cls-11" d="M223.65,87.7a51.7,51.7,0,0,1,7,0l.34-1.13-6.58-21.7-6.57,21.7.32,1.06A50.13,50.13,0,0,1,223.65,87.7Z"/><path class="cls-11" d="M200.94,93a41.54,41.54,0,0,0-4.9,2.19l3.31,3.17c1.13-.68,2.29-1.34,3.48-2Z"/><path class="cls-11" d="M205.36,77.33,207,89c1.5-.34,3-.6,4.36-.8Z"/><path class="cls-11" d="M217.55,89.69c-1.2,0-2.53.15-4,.31l.55,1C215.25,90.55,216.39,90.11,217.55,89.69Z"/><path class="cls-11" d="M216.83,86.83h0l-10.33-9.6,6,10.82c1.65-.21,3.19-.34,4.57-.4Z"/><path class="cls-11" d="M219.39,100.46,220.44,99l-2.19-7.39c-1.06.38-2.09.77-3.11,1.18Z"/><path class="cls-11" d="M251.2,81.85,242,88.92l-.12.45c1.42.36,2.87.8,4.33,1.31Z"/><path class="cls-11" d="M242.09,77.18l-5.65,11.08c1.26.2,2.57.44,3.92.74Z"/><path class="cls-11" d="M252.39,81.87l-5.16,9.18a42.84,42.84,0,0,1,5.16,2.34Z"/><path class="cls-11" d="M240.93,77.14,232,86.79l-.27.94c1.13.08,2.34.21,3.62.38Z"/><path class="cls-11" d="M241.36,91.38l-.67,2.48c1,.49,2,1,2.91,1.5l1.6-2.84C243.91,92.07,242.62,91.7,241.36,91.38Z"/><path class="cls-11" d="M210,107l-2.72-10.66c-.86.43-1.71.87-2.54,1.31Z"/><path class="cls-11" d="M235.44,90.22l-.54,1.07c1.64.66,3.25,1.35,4.81,2.09l.34-2.31C238.45,90.71,236.91,90.43,235.44,90.22Z"/><path class="cls-11" d="M231.12,89.77l0,.09c1,.33,1.9.68,2.83,1l.42-.81C233.2,89.94,232.12,89.84,231.12,89.77Z"/><path class="cls-11" d="M237.21,106.72l5.4-9.59q-1.22-.64-2.46-1.26Z"/><path class="cls-11" d="M195.14,82.65V93.31a43.17,43.17,0,0,1,4.77-2.18Z"/><polygon class="cls-11" points="194.23 101.57 191.49 97.99 190.25 96.37 189.13 94.91 185.02 98.06 184.75 98.27 186.15 100.1 189.74 104.79 190.97 106.4 191.73 107.39 196.12 104.04 195.47 103.19 194.23 101.57"/><path class="cls-11" d="M237.79,107.83l8.81-8.43c-1-.6-2-1.19-3.07-1.77Z"/><path class="cls-11" d="M219.23,91.26l2,6.69L224,94.11a.51.51,0,0,1,.41-.21.49.49,0,0,1,.43.2l2.82,3.68,1.85-6.28c-1.9-.63-3.84-1.21-5.85-1.71C222.16,90.25,220.68,90.75,219.23,91.26Z"/><path class="cls-11" d="M193.17,96.83l2.76,3.62c.81-.53,1.64-1,2.49-1.57l-3.35-3.19C194.43,96.05,193.8,96.43,193.17,96.83Z"/><path class="cls-11" d="M205.5,89.33l-9.21-6.77,4.61,8.2c1.56-.56,3.1-1,4.61-1.41Z"/><path class="cls-11" d="M212.47,90.14c-1.63.22-3.36.52-5.16.93l.33,2.32.35.31q2.5-1.19,5.18-2.3Z"/><path class="cls-11" d="M201.94,92.61l1.81,3.23c1-.52,2-1,3-1.55L206,91.37C204.68,91.72,203.31,92.13,201.94,92.61Z"/><path class="cls-11" d="M217.87,102.53l.3-.41.54-.73-4.55-8.19c-1.55.64-3.06,1.29-4.52,2Z"/><path class="cls-11" d="M244.53,95.85c1.23.68,2.43,1.38,3.6,2.09l3-2.89a40.44,40.44,0,0,0-5-2.17Z"/><path class="cls-13" d="M230.76,89.74l.33.12,0-.09Z"/><path class="cls-13" d="M237.79,107.83l5.74-10.2-.92-.5-5.4,9.59,2.94-10.85c-.63-.31-1.24-.62-1.88-.92l-7,7.51L230,100.84,234,93.11l-1-.37-3.66,7.18-.86-1.12,2-7c-.33-.12-.66-.22-1-.33l-1.85,6.28-2.82-3.68a.49.49,0,0,0-.43-.2.51.51,0,0,0-.41.21L221.22,98l-2-6.69-1,.36L220.44,99l-1.05,1.45-4.25-7.66-1,.4,4.55,8.19-.54.73-.3.41-8.23-7.36-1,.49,9,8s0,0,0,0l6.32,7.15,0,0h0l0,0,.06.08.05,0,0,0,0,0h.06l0,0,.14,0h.16a0,0,0,0,1,0,0,.62.62,0,0,0,.25-.14l6.77-7.37h0l7.53-8.08-4,15a.06.06,0,0,0,0,0s0,0,0,.07,0,.08,0,.12a.64.64,0,0,0,0,.07.34.34,0,0,0,.06.12s0,0,0,0a.37.37,0,0,0,.13.12h0a.51.51,0,0,0,.26.07.6.6,0,0,0,.23-.06l.06,0,.07,0L247.53,100l-.93-.56Z"/><path class="cls-13" d="M195.14,82.65l4.77,8.48,1-.37-4.61-8.2,9.21,6.77v0L207,89l-1.66-11.66,6,10.86L212.5,88l-6-10.82,10.33,9.6h0l.24.81,1.08,0-.32-1.06,6.57-21.7L231,86.53l-.34,1.13,1.08.07.27-.94,8.94-9.65-5.59,11,1.1.15,5.65-11.08L240.36,89l1.54.37.12-.45,9.18-7.07-5,8.83,1,.37,5.16-9.18V93.39q.53.27,1.05.57V79.87s0,0,0,0a.66.66,0,0,0-.06-.2l0-.06a.52.52,0,0,0-.17-.16h-.06a.52.52,0,0,0-.21,0h-.07a.5.5,0,0,0-.24.09l-11,8.5,2-13.82a.55.55,0,0,0-.29-.55.53.53,0,0,0-.61.12L231.76,85.5,224.9,62.87a.54.54,0,0,0-1,0L217,85.57,204.8,74.21h0a.64.64,0,0,0-.25-.12h-.06a.4.4,0,0,0-.26,0h0a.61.61,0,0,0-.19.2l0,.06a.48.48,0,0,0,0,.27h0l1.93,13.62-10.82-8-.18-.33a.52.52,0,1,0-.91.52l.14.26V93.88q.53-.3,1-.57Z"/><path class="cls-13" d="M210,107l-5.26-9.35-.92.49,5.45,9.7-8.4-8-.94.55L211,110.94l.21.37a.5.5,0,0,0,.45.26.58.58,0,0,0,.26-.06.54.54,0,0,0,.2-.72l-.16-.29-3.75-14.66-1,.47Z"/><path class="cls-13" d="M208.25,95.84l.36-.18-.53-.47Z"/><path class="cls-13" d="M158.72,100.7a.67.67,0,0,0-.12.06,1.09,1.09,0,0,0-.1.11l3.64-2.07A13.53,13.53,0,0,0,158.72,100.7Z"/><path class="cls-13" d="M221.29,198.46l-3.71-2.83c-.11.59-.21,1.1-.33,1.76l.87.19c-.1.65-.2,1.33-.32,2.16Z"/><path class="cls-14" d="M254.05,204.17c-.09.5-.17,1-.28,1.54a1,1,0,0,1-.15.35c.06.25.11.5.16.76a39,39,0,0,0,2.62-11.61A58.69,58.69,0,0,1,254.05,204.17Z"/><path class="cls-11" d="M167,175.77l15.08,47.46L279.24,182l19.59-62.18Zm110.72,3.89-92.87,39.11a1.52,1.52,0,0,1-2-.82,1.54,1.54,0,0,1,.82-2l92.87-39.1a1.52,1.52,0,1,1,1.18,2.81Zm2.15-33.27-.07,1.38a3.14,3.14,0,0,1-2.19,2.5c-1.91.74-1.88-.93-1.88-.93.1-2.1-.1-3.4-.59-3.91s-1.41-.53-2.71,0l-1.13.43-.59.22a4.42,4.42,0,0,0-.63.29,6.3,6.3,0,0,0-1.14.67,4.7,4.7,0,0,0-1,.93,4.19,4.19,0,0,0-.68,1.37,11.92,11.92,0,0,0-.35,1.62c0,.21,0,.42,0,.63a3.9,3.9,0,0,0-.05.58c-.09,1.8.06,3,.46,3.45s1.17.58,2.32.24a1.58,1.58,0,0,1,.31-.09,2.68,2.68,0,0,0,.35-.11l.82-.24c.28-.1.56-.19.82-.3a12.8,12.8,0,0,1,5.67-.78q2.44.31,2.1,7.37a31.16,31.16,0,0,1-1.26,7.79,9.17,9.17,0,0,1-4.35,5.21c-.69.36-1.38.7-2.07,1s-1.39.64-2.09.94c-2.53,1.06-4.58,1.48-6.15,1.23a2.21,2.21,0,0,1-1.52-1.57,14.59,14.59,0,0,1-.51-5.07c0-.9.09-1.8.13-2.71a3.44,3.44,0,0,1,2.06-2.91c2-.8,2,1.29,2,1.29a17.75,17.75,0,0,0,.2,4.12c.22,1.07.95,1.38,2.21.89.51-.17,1-.38,1.57-.6l1.59-.65a6.59,6.59,0,0,0,2.92-2.13,9,9,0,0,0,1.09-4.57c.11-2.35-.21-3.58-1-3.7a6,6,0,0,0-2.87.46l-.69.28a5.39,5.39,0,0,1-.68.22l-.37.12a2.21,2.21,0,0,1-.33,0q-3.51,1-5.41.26t-1.56-8a20.91,20.91,0,0,1,1.53-7.5,8.75,8.75,0,0,1,4.23-4.34c.6-.29,1.19-.56,1.76-.8s1.16-.48,1.73-.69a13.71,13.71,0,0,1,5.91-1Q280.2,139.57,279.87,146.39Zm15.18-18.63L172.6,179.32a1.59,1.59,0,0,1-.59.12,1.52,1.52,0,0,1-1.41-.94,1.53,1.53,0,0,1,.81-2L293.86,125a1.53,1.53,0,0,1,1.19,2.81Z"/><path class="cls-11" d="M252,206.18c-6.44-7.37-24.84-18.16-34.09-21.83l-.1-.07c-1.71.88-4.69,2.47-6.47,3.42,5.6,2.26,25.21,10.77,41.41,25.21a33,33,0,0,0-.66-6.66Z"/><path class="cls-11" d="M216.07,192.14c0,.08-.18.64-.2.78,3.1-.44,6.2,2,7.12,3.56l-1.27.79a2.43,2.43,0,0,0-.45-.59c-.55-.49-2.24-2.06-3.91-1.76a5.56,5.56,0,0,0-1.26.36,3.34,3.34,0,0,1-.76,3l-.13.15-.06.07,0,0-.88,1-.69.83c-.61.74-1.24,1.51-1.95,2.28a2.2,2.2,0,0,1-.2.23,3.16,3.16,0,0,0-.59.94.74.74,0,0,0,0,.36,1.31,1.31,0,0,0,.55.82h0l.12.09.14.1.13.08a2.29,2.29,0,0,1,.57.35l.31.23a.48.48,0,0,1,.27-.18,11.87,11.87,0,0,1,2.2.25c0,.1-.07.2-.1.3a8.74,8.74,0,0,1-1.66.61h-.18a3.46,3.46,0,0,1-.23,1.17l0,.07a2,2,0,0,0-.09.4c0,.07.1.21.16.35a2.33,2.33,0,0,0,.38.26l.36.15.34.14.08,0a1.09,1.09,0,0,1,.25.09l.25.21.32.84v.78l-1.15-.42-.07,0a1,1,0,0,1-.32-.12l-.31-.12a1.93,1.93,0,0,0-.19.32.61.61,0,0,0,.07.75l.1.17a2.64,2.64,0,0,1,.42,2.54,3.66,3.66,0,0,1-.14.69,3.28,3.28,0,0,0,.42,2.36,2,2,0,0,0,.8.62,4.93,4.93,0,0,0,.76.2h0l.42.06h.07a31.2,31.2,0,0,1,4.06.59l.2,0a1.16,1.16,0,0,1,.38.06l.33,0c3.55-5.35,9.46-16.46,9.13-20.53-5.28-3-10.07-5.41-13.71-7.08A4.52,4.52,0,0,0,216.07,192.14Z"/><path class="cls-11" d="M234.57,293.1,228,298.9a32,32,0,0,0-3.21-22.12l-.38-.69-.38.69a32,32,0,0,0-3.21,22.12l-6.61-5.8a30.53,30.53,0,0,0,8.6,20.94l-5.88-3.72s1.69,9.79,7.1,11.61a1.47,1.47,0,0,0,.76,0c5.42-1.82,7.1-11.61,7.1-11.61L226,314A30.53,30.53,0,0,0,234.57,293.1Z"/><path class="cls-11" d="M224.47,326.59a3.25,3.25,0,1,0,3.25,3.25A3.25,3.25,0,0,0,224.47,326.59Z"/><path class="cls-11" d="M277.74,139.33a13.71,13.71,0,0,0-5.91,1c-.57.21-1.15.44-1.73.69s-1.16.51-1.76.8a8.75,8.75,0,0,0-4.23,4.34,20.91,20.91,0,0,0-1.53,7.5q-.34,7.19,1.56,8t5.41-.26a2.21,2.21,0,0,0,.33,0l.37-.12a5.39,5.39,0,0,0,.68-.22l.69-.28a6,6,0,0,1,2.87-.46c.75.12,1.07,1.35,1,3.7a9,9,0,0,1-1.09,4.57,6.59,6.59,0,0,1-2.92,2.13l-1.59.65c-.53.22-1.06.43-1.57.6-1.26.49-2,.18-2.21-.89a17.75,17.75,0,0,1-.2-4.12s0-2.09-2-1.29a3.44,3.44,0,0,0-2.06,2.91c0,.91-.1,1.81-.13,2.71a14.59,14.59,0,0,0,.51,5.07,2.21,2.21,0,0,0,1.52,1.57c1.57.25,3.62-.17,6.15-1.23.7-.3,1.4-.61,2.09-.94s1.38-.67,2.07-1a9.17,9.17,0,0,0,4.35-5.21,31.16,31.16,0,0,0,1.26-7.79q.34-7-2.1-7.37a12.8,12.8,0,0,0-5.67.78c-.26.11-.54.2-.82.3l-.82.24a2.68,2.68,0,0,1-.35.11,1.58,1.58,0,0,0-.31.09c-1.15.34-1.92.26-2.32-.24s-.55-1.65-.46-3.45a3.9,3.9,0,0,1,.05-.58c0-.21,0-.42,0-.63a11.92,11.92,0,0,1,.35-1.62,4.19,4.19,0,0,1,.68-1.37,4.7,4.7,0,0,1,1-.93,6.3,6.3,0,0,1,1.14-.67,4.42,4.42,0,0,1,.63-.29l.59-.22,1.13-.43c1.3-.49,2.2-.47,2.71,0s.69,1.81.59,3.91c0,0,0,1.67,1.88.93a3.14,3.14,0,0,0,2.19-2.5l.07-1.38Q280.2,139.57,277.74,139.33Z"/><path class="cls-11" d="M247.53,180.86a19.13,19.13,0,0,0-9.14-5.3,15.92,15.92,0,0,0-7.75-.35,13.37,13.37,0,0,0-3.54,1.41c-1.4,3.11-2.79,3.64-4.06,3.06l0,0a4.66,4.66,0,0,1-1.33,4c9.2,4.2,23.52,12.72,30.45,19.59a37.93,37.93,0,0,0,.4-11A20.74,20.74,0,0,0,247.53,180.86Z"/><path class="cls-11" d="M236.93,171.27a7.9,7.9,0,0,0-1.08,1.31c-.08.12-.18.25-.27.37a22,22,0,0,1,3.34.64A21.25,21.25,0,0,1,249,179.48a22.72,22.72,0,0,1,5.52,12.62,30,30,0,0,1,.24,3.48c1-5.16.89-10.42-1.89-14.3C248.06,174.54,243.87,171.91,236.93,171.27Z"/><path class="cls-13" d="M173.85,119.78h-.32l.15.2C173.73,119.92,173.8,119.85,173.85,119.78Z"/><path class="cls-11" d="M234.57,293.1,228,298.9a32,32,0,0,0-3.21-22.12l-.38-.69-.38.69a32,32,0,0,0-3.21,22.12l-6.61-5.8a30.53,30.53,0,0,0,8.6,20.94l-5.88-3.72s1.69,9.79,7.1,11.61a1.47,1.47,0,0,0,.76,0c5.42-1.82,7.1-11.61,7.1-11.61L226,314A30.53,30.53,0,0,0,234.57,293.1Z"/><path class="cls-11" d="M224.47,326.59a3.25,3.25,0,1,0,3.25,3.25A3.25,3.25,0,0,0,224.47,326.59Z"/><path class="cls-11" d="M252,206.18c-6.44-7.37-24.84-18.16-34.09-21.83l-.1-.07c-1.71.88-4.69,2.47-6.47,3.42,5.6,2.26,25.21,10.77,41.41,25.21a33,33,0,0,0-.66-6.66Z"/><path class="cls-11" d="M216.07,192.14c0,.08-.18.64-.2.78,3.1-.44,6.2,2,7.12,3.56l-1.27.79a2.43,2.43,0,0,0-.45-.59c-.55-.49-2.24-2.06-3.91-1.76a5.56,5.56,0,0,0-1.26.36,3.34,3.34,0,0,1-.76,3l-.13.15-.06.07,0,0-.88,1-.69.83c-.61.74-1.24,1.51-1.95,2.28a2.2,2.2,0,0,1-.2.23,3.16,3.16,0,0,0-.59.94.74.74,0,0,0,0,.36,1.31,1.31,0,0,0,.55.82h0l.12.09.14.1.13.08a2.29,2.29,0,0,1,.57.35l.31.23a.48.48,0,0,1,.27-.18,11.87,11.87,0,0,1,2.2.25c0,.1-.07.2-.1.3a8.74,8.74,0,0,1-1.66.61h-.18a3.46,3.46,0,0,1-.23,1.17l0,.07a2,2,0,0,0-.09.4c0,.07.1.21.16.35a2.33,2.33,0,0,0,.38.26l.36.15.34.14.08,0a1.09,1.09,0,0,1,.25.09l.25.21.32.84v.78l-1.15-.42-.07,0a1,1,0,0,1-.32-.12l-.31-.12a1.93,1.93,0,0,0-.19.32.61.61,0,0,0,.07.75l.1.17a2.64,2.64,0,0,1,.42,2.54,3.66,3.66,0,0,1-.14.69,3.28,3.28,0,0,0,.42,2.36,2,2,0,0,0,.8.62,4.93,4.93,0,0,0,.76.2h0l.42.06h.07a31.2,31.2,0,0,1,4.06.59l.2,0a1.16,1.16,0,0,1,.38.06l.33,0c3.55-5.35,9.46-16.46,9.13-20.53-5.28-3-10.07-5.41-13.71-7.08A4.52,4.52,0,0,0,216.07,192.14Z"/><path class="cls-11" d="M277.74,139.33a13.71,13.71,0,0,0-5.91,1c-.57.21-1.15.44-1.73.69s-1.16.51-1.76.8a8.75,8.75,0,0,0-4.23,4.34,20.91,20.91,0,0,0-1.53,7.5q-.34,7.19,1.56,8t5.41-.26a2.21,2.21,0,0,0,.33,0l.37-.12a5.39,5.39,0,0,0,.68-.22l.69-.28a6,6,0,0,1,2.87-.46c.75.12,1.07,1.35,1,3.7a9,9,0,0,1-1.09,4.57,6.59,6.59,0,0,1-2.92,2.13l-1.59.65c-.53.22-1.06.43-1.57.6-1.26.49-2,.18-2.21-.89a17.75,17.75,0,0,1-.2-4.12s0-2.09-2-1.29a3.44,3.44,0,0,0-2.06,2.91c0,.91-.1,1.81-.13,2.71a14.59,14.59,0,0,0,.51,5.07,2.21,2.21,0,0,0,1.52,1.57c1.57.25,3.62-.17,6.15-1.23.7-.3,1.4-.61,2.09-.94s1.38-.67,2.07-1a9.17,9.17,0,0,0,4.35-5.21,31.16,31.16,0,0,0,1.26-7.79q.34-7-2.1-7.37a12.8,12.8,0,0,0-5.67.78c-.26.11-.54.2-.82.3l-.82.24a2.68,2.68,0,0,1-.35.11,1.58,1.58,0,0,0-.31.09c-1.15.34-1.92.26-2.32-.24s-.55-1.65-.46-3.45a3.9,3.9,0,0,1,.05-.58c0-.21,0-.42,0-.63a11.92,11.92,0,0,1,.35-1.62,4.19,4.19,0,0,1,.68-1.37,4.7,4.7,0,0,1,1-.93,6.3,6.3,0,0,1,1.14-.67,4.42,4.42,0,0,1,.63-.29l.59-.22,1.13-.43c1.3-.49,2.2-.47,2.71,0s.69,1.81.59,3.91c0,0,0,1.67,1.88.93a3.14,3.14,0,0,0,2.19-2.5l.07-1.38Q280.2,139.57,277.74,139.33Z"/><path class="cls-11" d="M247.53,180.86a19.13,19.13,0,0,0-9.14-5.3,15.92,15.92,0,0,0-7.75-.35,13.37,13.37,0,0,0-3.54,1.41c-1.4,3.11-2.79,3.64-4.06,3.06l0,0a4.66,4.66,0,0,1-1.33,4c9.2,4.2,23.52,12.72,30.45,19.59a37.93,37.93,0,0,0,.4-11A20.74,20.74,0,0,0,247.53,180.86Z"/><path class="cls-13" d="M273.89,119.78h-.49l.26.31Z"/><path class="cls-11" d="M254.22,235.41v0s-4.77-2.8-6.07-9.93C249.42,232.53,254.13,235.36,254.22,235.41Z"/><path class="cls-11" d="M195.25,148.72c-4.8-8-10.31-15.59-10.77-16.37C184.7,132.81,190.34,140.56,195.25,148.72Z"/><path class="cls-11" d="M224.47,326.59a3.25,3.25,0,1,0,3.25,3.25A3.25,3.25,0,0,0,224.47,326.59Z"/><path class="cls-11" d="M204.37,209.57a93.4,93.4,0,0,1-3.69,10.54,33.75,33.75,0,0,1-9.66,4.27v0a33.74,33.74,0,0,0,9.65-4.28A93.93,93.93,0,0,0,204.37,209.57Z"/><path class="cls-11" d="M234.57,293.1,228,298.9a32,32,0,0,0-3.21-22.12l-.38-.69-.38.69a32,32,0,0,0-3.21,22.12l-6.61-5.8a30.53,30.53,0,0,0,8.6,20.94l-5.88-3.72s1.69,9.79,7.1,11.61a1.47,1.47,0,0,0,.76,0c5.42-1.82,7.1-11.61,7.1-11.61L226,314A30.53,30.53,0,0,0,234.57,293.1Z"/><path class="cls-11" d="M277.74,139.33a13.71,13.71,0,0,0-5.91,1c-.57.21-1.15.44-1.73.69s-1.16.51-1.76.8a8.75,8.75,0,0,0-4.23,4.34,20.91,20.91,0,0,0-1.53,7.5q-.34,7.19,1.56,8t5.41-.26a2.21,2.21,0,0,0,.33,0l.37-.12a5.39,5.39,0,0,0,.68-.22l.69-.28a6,6,0,0,1,2.87-.46c.75.12,1.07,1.35,1,3.7a9,9,0,0,1-1.09,4.57,6.59,6.59,0,0,1-2.92,2.13l-1.59.65c-.53.22-1.06.43-1.57.6-1.26.49-2,.18-2.21-.89a17.75,17.75,0,0,1-.2-4.12s0-2.09-2-1.29a3.44,3.44,0,0,0-2.06,2.91c0,.91-.1,1.81-.13,2.71a14.59,14.59,0,0,0,.51,5.07,2.21,2.21,0,0,0,1.52,1.57c1.57.25,3.62-.17,6.15-1.23.7-.3,1.4-.61,2.09-.94s1.38-.67,2.07-1a9.17,9.17,0,0,0,4.35-5.21,31.16,31.16,0,0,0,1.26-7.79q.34-7-2.1-7.37a12.8,12.8,0,0,0-5.67.78c-.26.11-.54.2-.82.3l-.82.24a2.68,2.68,0,0,1-.35.11,1.58,1.58,0,0,0-.31.09c-1.15.34-1.92.26-2.32-.24s-.55-1.65-.46-3.45a3.9,3.9,0,0,1,.05-.58c0-.21,0-.42,0-.63a11.92,11.92,0,0,1,.35-1.62,4.19,4.19,0,0,1,.68-1.37,4.7,4.7,0,0,1,1-.93,6.3,6.3,0,0,1,1.14-.67,4.42,4.42,0,0,1,.63-.29l.59-.22,1.13-.43c1.3-.49,2.2-.47,2.71,0s.69,1.81.59,3.91c0,0,0,1.67,1.88.93a3.14,3.14,0,0,0,2.19-2.5l.07-1.38Q280.2,139.57,277.74,139.33Z"/><path class="cls-13" d="M184.44,132.28s0,0,0,.07l0,0,5.28-5.58s12.94,7.26,24.14,10.76l0,0c-11.19-3.51-24.13-10.77-24.13-10.77Z"/><path class="cls-14" d="M184.44,132.28s0,0,0,.07l0,0,5.28-5.58s12.94,7.26,24.14,10.76l0,0c-11.19-3.51-24.13-10.77-24.13-10.77Z"/><path class="cls-13" d="M201.52,161.1a75.13,75.13,0,0,0-6.27-12.38,75.74,75.74,0,0,1,6.26,12.37c3.1,8.78,9.57,24.75,2.86,48.48C211.09,185.85,204.62,169.88,201.52,161.1Z"/><path class="cls-13" d="M254.25,253.61a32.07,32.07,0,0,0-18.14,14.57c-8.39-8-34.09-14.6-40.9-25.34-3.45-5.42-4.26-14.64-4.19-18.42h0c-.07,3.76.74,13,4.19,18.48,6.82,10.74,32.53,17.36,40.92,25.36a32.06,32.06,0,0,1,18.15-14.58c1.41-3.85,0-18.26,0-18.26h0C254.3,236.28,255.61,249.89,254.25,253.61Z"/><path class="cls-14" d="M254.25,253.61a32.07,32.07,0,0,0-18.14,14.57c-8.39-8-34.09-14.6-40.9-25.34-3.45-5.42-4.26-14.64-4.19-18.42h0c-.07,3.76.74,13,4.19,18.48,6.82,10.74,32.53,17.36,40.92,25.36a32.06,32.06,0,0,1,18.15-14.58c1.41-3.85,0-18.26,0-18.26h0C254.3,236.28,255.61,249.89,254.25,253.61Z"/><path class="cls-13" d="M210.45,218.47,208.78,213c-1.23,4.19-2.64,7.47-4,9a17.31,17.31,0,0,1-6.65,3.31l-1.41,1.56C195.83,241.45,208.62,247,218,251c1.38.6,2.69,1.16,3.9,1.73,2.88,1.35,7.66,4,10.83,5.68l1,.57,2.1-.41c2.7-3.24,10.3-8.47,13.4-9.56l1.08-2c-.7-3.1-.6-10-.6-10.05l-.47-1.19a27.64,27.64,0,0,1-4.57-6.57c-2.37-5.26-1-14.12-.16-18.07l-2.95-2.24c-.69,2.86-3.17,14.58.05,21.7a29.71,29.71,0,0,0,4.73,7,70.3,70.3,0,0,0,.44,8.77,53.57,53.57,0,0,0-12.6,9c-3.2-1.75-8-4.34-10.88-5.71-1.26-.59-2.59-1.16-4-1.77-9.05-3.9-19.25-8.31-19.28-19.59,2.72-.84,6.14-2.79,7.27-4.07A20,20,0,0,0,210.45,218.47Z"/><path class="cls-13" d="M192.84,137c4.18,4.05,16.29,22.48,18.43,46l3.2-2.39a93.09,93.09,0,0,0-14.66-40.18c5.9,2.64,18.1,5.57,20.56,5.78a30.25,30.25,0,0,0,10.56-.94c4.25-1.19,14.06-1.83,18-1,.25,4,2,18.35-.84,26.48a20.8,20.8,0,0,1,3,1.89l0-.14c3.87-10.15,1.23-28.91,1.17-29.67l-1.12-1.44c-3.43-1.23-12-1.58-19.18.34-8.66,2.3-14.41.86-14.41.86-9-1.65-16.17-5-22.74-8.27Z"/><polygon class="cls-11" points="200.76 113.64 198.69 110.71 198.69 110.71 195.88 106.74 194.23 107.91 196.22 110.71 196.22 110.71 198.29 113.64 202.6 119.72 205.06 119.72 200.76 113.64"/><path class="cls-11" d="M200.42,195.45V180.81c0-3-.9-5.24-2.58-6.37s-4.05-1.1-6.88.07l-7.9,3.26a2.42,2.42,0,0,0-1.44,2.15v1.21a1.34,1.34,0,0,0,.56,1.16,1.4,1.4,0,0,0,1.32.09l.91-.37v24.67c0,.2-.07.32-.53.5l-.7.27a2.52,2.52,0,0,0-1.56,2.22v1.21a1.34,1.34,0,0,0,.53,1.16,1.18,1.18,0,0,0,.67.2,1.85,1.85,0,0,0,.67-.13l6.93-2.69A15.32,15.32,0,0,0,200.42,195.45Z"/><path class="cls-11" d="M224.47,326.59a3.25,3.25,0,1,0,3.25,3.25A3.25,3.25,0,0,0,224.47,326.59Z"/><path class="cls-11" d="M232.22,138.23l.84-1.19c-.79.22-1.85.5-3,.77l-.77,1.09Z"/><path class="cls-11" d="M234.57,293.1,228,298.9a32,32,0,0,0-3.21-22.12l-.38-.69-.38.69a32,32,0,0,0-3.21,22.12l-6.61-5.8a30.53,30.53,0,0,0,8.6,20.94l-5.88-3.72s1.69,9.79,7.1,11.61a1.47,1.47,0,0,0,.76,0c5.42-1.82,7.1-11.61,7.1-11.61L226,314A30.53,30.53,0,0,0,234.57,293.1Z"/><polygon class="cls-11" points="249.65 113.64 251.73 110.71 253.71 107.91 252.06 106.74 249.25 110.71 247.18 113.64 242.83 119.78 245.3 119.78 249.65 113.64"/><path class="cls-11" d="M216.07,192.14c0,.08-.18.64-.2.78,3.1-.44,6.2,2,7.12,3.56l-1.27.79a2.43,2.43,0,0,0-.45-.59c-.55-.49-2.24-2.06-3.91-1.76a5.56,5.56,0,0,0-1.26.36,3.34,3.34,0,0,1-.76,3l-.13.15-.06.07,0,0-.88,1-.69.83c-.61.74-1.24,1.51-1.95,2.28a2.2,2.2,0,0,1-.2.23,3.16,3.16,0,0,0-.59.94.74.74,0,0,0,0,.36,1.31,1.31,0,0,0,.55.82h0l.12.09.14.1.13.08a2.29,2.29,0,0,1,.57.35l.31.23a.48.48,0,0,1,.27-.18,11.87,11.87,0,0,1,2.2.25c0,.1-.07.2-.1.3a8.74,8.74,0,0,1-1.66.61h-.18a3.46,3.46,0,0,1-.23,1.17l0,.07a2,2,0,0,0-.09.4c0,.07.1.21.16.35a2.33,2.33,0,0,0,.38.26l.36.15.34.14.08,0a1.09,1.09,0,0,1,.25.09l.25.21.32.84v.78l-1.15-.42-.07,0a1,1,0,0,1-.32-.12l-.31-.12a1.93,1.93,0,0,0-.19.32.61.61,0,0,0,.07.75l.1.17a2.64,2.64,0,0,1,.42,2.54,3.66,3.66,0,0,1-.14.69,3.28,3.28,0,0,0,.42,2.36,2,2,0,0,0,.8.62,4.93,4.93,0,0,0,.76.2h0l.42.06h.07a31.2,31.2,0,0,1,4.06.59l.2,0a1.16,1.16,0,0,1,.38.06l.33,0c3.55-5.35,9.46-16.46,9.13-20.53-5.28-3-10.07-5.41-13.71-7.08A4.52,4.52,0,0,0,216.07,192.14Z"/><path class="cls-11" d="M277.74,139.33a13.71,13.71,0,0,0-5.91,1c-.57.21-1.15.44-1.73.69s-1.16.51-1.76.8a8.75,8.75,0,0,0-4.23,4.34,20.91,20.91,0,0,0-1.53,7.5q-.34,7.19,1.56,8t5.41-.26a2.21,2.21,0,0,0,.33,0l.37-.12a5.39,5.39,0,0,0,.68-.22l.69-.28a6,6,0,0,1,2.87-.46c.75.12,1.07,1.35,1,3.7a9,9,0,0,1-1.09,4.57,6.59,6.59,0,0,1-2.92,2.13l-1.59.65c-.53.22-1.06.43-1.57.6-1.26.49-2,.18-2.21-.89a17.75,17.75,0,0,1-.2-4.12s0-2.09-2-1.29a3.44,3.44,0,0,0-2.06,2.91c0,.91-.1,1.81-.13,2.71a14.59,14.59,0,0,0,.51,5.07,2.21,2.21,0,0,0,1.52,1.57c1.57.25,3.62-.17,6.15-1.23.7-.3,1.4-.61,2.09-.94s1.38-.67,2.07-1a9.17,9.17,0,0,0,4.35-5.21,31.16,31.16,0,0,0,1.26-7.79q.34-7-2.1-7.37a12.8,12.8,0,0,0-5.67.78c-.26.11-.54.2-.82.3l-.82.24a2.68,2.68,0,0,1-.35.11,1.58,1.58,0,0,0-.31.09c-1.15.34-1.92.26-2.32-.24s-.55-1.65-.46-3.45a3.9,3.9,0,0,1,.05-.58c0-.21,0-.42,0-.63a11.92,11.92,0,0,1,.35-1.62,4.19,4.19,0,0,1,.68-1.37,4.7,4.7,0,0,1,1-.93,6.3,6.3,0,0,1,1.14-.67,4.42,4.42,0,0,1,.63-.29l.59-.22,1.13-.43c1.3-.49,2.2-.47,2.71,0s.69,1.81.59,3.91c0,0,0,1.67,1.88.93a3.14,3.14,0,0,0,2.19-2.5l.07-1.38Q280.2,139.57,277.74,139.33Z"/><path class="cls-11" d="M247.53,180.86a19.13,19.13,0,0,0-9.14-5.3,15.92,15.92,0,0,0-7.75-.35,13.37,13.37,0,0,0-3.54,1.41c-1.4,3.11-2.79,3.64-4.06,3.06l0,0a4.66,4.66,0,0,1-1.33,4c9.2,4.2,23.52,12.72,30.45,19.59a37.93,37.93,0,0,0,.4-11A20.74,20.74,0,0,0,247.53,180.86Z"/><path class="cls-11" d="M252,206.18c-6.44-7.37-24.84-18.16-34.09-21.83l-.1-.07c-1.71.88-4.69,2.47-6.47,3.42,5.6,2.26,25.21,10.77,41.41,25.21a33,33,0,0,0-.66-6.66Z"/><path class="cls-11" d="M236.93,171.27a7.9,7.9,0,0,0-1.08,1.31c-.08.12-.18.25-.27.37a22,22,0,0,1,3.34.64A21.25,21.25,0,0,1,249,179.48a22.72,22.72,0,0,1,5.52,12.62,30,30,0,0,1,.24,3.48c1-5.16.89-10.42-1.89-14.3C248.06,174.54,243.87,171.91,236.93,171.27Z"/><path class="cls-11" d="M254.55,192.1a30,30,0,0,1,.24,3.48,29.33,29.33,0,0,0,.53-6.48l-1.2.5C254.31,190.49,254.46,191.33,254.55,192.1Z"/><path class="cls-11" d="M252.13,203.34a37.93,37.93,0,0,0,.4-11c-.07-.6-.19-1.26-.33-1.94l-10.76,4.53A76,76,0,0,1,252.13,203.34Z"/><path class="cls-11" d="M252.76,212.91a33,33,0,0,0-.66-6.66l-.09-.07c-2.7-3.08-7.5-6.77-12.84-10.28l-6.25,2.63A131.22,131.22,0,0,1,252.76,212.91Z"/><path class="cls-11" d="M200.68,220.11a33.75,33.75,0,0,1-9.66,4.27v0h0c-.07,3.76.74,13,4.19,18.48,6.82,10.74,32.53,17.36,40.92,25.36a32.06,32.06,0,0,1,18.15-14.58c1.41-3.85,0-18.26,0-18.26h0v0s-4.77-2.8-6.07-9.93a26,26,0,0,1,1.17-12.61l4,3s.05-.19.11-.51a.75.75,0,0,1-.47-.19,127.44,127.44,0,0,0-20.13-14.92c-.59,5.05-5.93,14.65-8.81,19.18a18.28,18.28,0,0,0,3.82-.15c3.56-.56,5.5-2.53,5.37-1.76s-2,2.56-4.77,3.16c-1.65.37-5.77.75-5.77.75-.36.54-.3.56-.45.77.11.38.24.76.37,1.14s.31.91.44,1.35a5.54,5.54,0,0,0,.65,1.37l1.07,1.45-1.76-.24c-.9-.12-1.28-1.29-2-3.72-.08-.28-.17-.61-.28-.95l-.49,0a1,1,0,0,1-.6-.2,1,1,0,0,1-.21-1.43,2.29,2.29,0,0,0,.16-.23.87.87,0,0,0-.19,0c-1.51-.23-2.81-.75-3.84-.89l-.53-.07a4.26,4.26,0,0,1-1-.29,3.45,3.45,0,0,1-2.25-4.2,3.89,3.89,0,0,1,.12-.49,6.18,6.18,0,0,1,.12-.62V214a5.41,5.41,0,0,0-.18-1.28,2.31,2.31,0,0,1,0-2.91c.42,1,.4.88,0-.08a1.66,1.66,0,0,1-.43-1.23,1.33,1.33,0,0,1,.06-.62l.12-.32v0L204,210.69A95.44,95.44,0,0,1,200.68,220.11Z"/><path class="cls-11" d="M216.23,191.46a4.52,4.52,0,0,0-.16.68c0,.08-.18.64-.2.78,3.1-.44,6.2,2,7.12,3.56l-1.27.79a2.43,2.43,0,0,0-.45-.59c-.55-.49-2.24-2.06-3.91-1.76a5.56,5.56,0,0,0-1.26.36,3.34,3.34,0,0,1-.76,3l-.13.15-.06.07,0,0-.88,1-.69.83c-.61.74-1.24,1.51-1.95,2.28a2.2,2.2,0,0,1-.2.23,3.16,3.16,0,0,0-.59.94.74.74,0,0,0,0,.36.76.76,0,0,0,.11.32l16.95-7.14C223.4,194.87,219.38,192.9,216.23,191.46Z"/><path class="cls-11" d="M252.9,181.28c-4.84-6.74-9-9.37-16-10a7.9,7.9,0,0,0-1.08,1.31c-.08.12-.18.25-.27.37a22,22,0,0,1,3.34.64A21.25,21.25,0,0,1,249,179.48a20.5,20.5,0,0,1,4.24,7.17l1.65-.7A12.58,12.58,0,0,0,252.9,181.28Z"/><path class="cls-11" d="M215,206.22a8.74,8.74,0,0,1-1.66.61h-.12l-.07,0a3.52,3.52,0,0,1-.22,1.14l0,.07a2,2,0,0,0-.09.4c0,.07.1.21.16.35a2.33,2.33,0,0,0,.38.26l.36.15.34.14.08,0a1.09,1.09,0,0,1,.25.09l.25.21.32.84v.78l-1.15-.42-.07,0a1,1,0,0,1-.32-.12l-.31-.12a1.93,1.93,0,0,0-.19.32.61.61,0,0,0,.07.75l.1.17a2.64,2.64,0,0,1,.42,2.54,3.66,3.66,0,0,1-.14.69,3.28,3.28,0,0,0,.42,2.36,2,2,0,0,0,.8.62,4.93,4.93,0,0,0,.76.2h0l.42.06h.07a31.2,31.2,0,0,1,4.06.59l.2,0a1.16,1.16,0,0,1,.38.06l.33,0c3.23-4.87,8.4-14.49,9.06-19.26L215,206.06Z"/><path class="cls-11" d="M247.53,180.86a19.13,19.13,0,0,0-9.14-5.3,15.92,15.92,0,0,0-7.75-.35,13.37,13.37,0,0,0-3.54,1.41c-1.4,3.11-2.79,3.64-4.06,3.06l0,0a4.66,4.66,0,0,1-1.33,4,147.15,147.15,0,0,1,16.67,9.18l13-5.49A18.49,18.49,0,0,0,247.53,180.86Z"/><path class="cls-11" d="M217.92,184.35l-.1-.07c-1.71.88-4.69,2.47-6.47,3.42a158.54,158.54,0,0,1,18.28,8.9l6.42-2.7A127.7,127.7,0,0,0,217.92,184.35Z"/><path class="cls-11" d="M234.57,293.1,228,298.9a32,32,0,0,0-3.21-22.12l-.38-.69-.38.69a32,32,0,0,0-3.21,22.12l-6.61-5.8a30.53,30.53,0,0,0,8.6,20.94l-5.88-3.72s1.69,9.79,7.1,11.61a1.47,1.47,0,0,0,.76,0c5.42-1.82,7.1-11.61,7.1-11.61L226,314A30.53,30.53,0,0,0,234.57,293.1Z"/><path class="cls-11" d="M205.06,206.94l4.44-1.86a2.45,2.45,0,0,1-.22-.73,2.52,2.52,0,0,1,.14-1,3.87,3.87,0,0,1,.82-1.38l.06-.07.22-.24h0c.6-.69,1.19-1.39,1.77-2.09l.83-1c.29-.35.59-.7.91-1.05.53-.6.59-.68.07-.09.67-.78.69-1.26.41-2.42,0-.1-.05-.2-.07-.29l-.1-.43-.14-.51.19-.83a7.59,7.59,0,0,0,.18-1,4,4,0,0,1,.26-1.08c-3.4-1.51-5.49-2.29-5.57-2.31a.75.75,0,0,1-.49-.66.76.76,0,0,1,.4-.73c.26-.14,6.08-3.25,8.37-4.43l.94-1.13c.12-.18.23-.36.34-.54l.11-.16A19.31,19.31,0,0,1,227,174a12.83,12.83,0,0,1,5.76-1.17h0l.93,0c.33-.42.63-.82.88-1.17.89-1.21,1.46-2,2.37-1.93,7.47.67,12,3.44,17.09,10.57,2.4-5.92,3.06-17.57,3.29-23.55a79.78,79.78,0,0,0-.33-13l-53.68,22.61A69.35,69.35,0,0,1,205.06,206.94Z"/><path class="cls-11" d="M224.47,326.59a3.25,3.25,0,1,0,3.25,3.25A3.25,3.25,0,0,0,224.47,326.59Z"/><path class="cls-11" d="M277.74,139.33a13.71,13.71,0,0,0-5.91,1c-.57.21-1.15.44-1.73.69s-1.16.51-1.76.8a8.75,8.75,0,0,0-4.23,4.34,20.91,20.91,0,0,0-1.53,7.5q-.34,7.19,1.56,8t5.41-.26a2.21,2.21,0,0,0,.33,0l.37-.12a5.39,5.39,0,0,0,.68-.22l.69-.28a6,6,0,0,1,2.87-.46c.75.12,1.07,1.35,1,3.7a9,9,0,0,1-1.09,4.57,6.59,6.59,0,0,1-2.92,2.13l-1.59.65c-.53.22-1.06.43-1.57.6-1.26.49-2,.18-2.21-.89a17.75,17.75,0,0,1-.2-4.12s0-2.09-2-1.29a3.44,3.44,0,0,0-2.06,2.91c0,.91-.1,1.81-.13,2.71a14.59,14.59,0,0,0,.51,5.07,2.21,2.21,0,0,0,1.52,1.57c1.57.25,3.62-.17,6.15-1.23.7-.3,1.4-.61,2.09-.94s1.38-.67,2.07-1a9.17,9.17,0,0,0,4.35-5.21,31.16,31.16,0,0,0,1.26-7.79q.34-7-2.1-7.37a12.8,12.8,0,0,0-5.67.78c-.26.11-.54.2-.82.3l-.82.24a2.68,2.68,0,0,1-.35.11,1.58,1.58,0,0,0-.31.09c-1.15.34-1.92.26-2.32-.24s-.55-1.65-.46-3.45a3.9,3.9,0,0,1,.05-.58c0-.21,0-.42,0-.63a11.92,11.92,0,0,1,.35-1.62,4.19,4.19,0,0,1,.68-1.37,4.7,4.7,0,0,1,1-.93,6.3,6.3,0,0,1,1.14-.67,4.42,4.42,0,0,1,.63-.29l.59-.22,1.13-.43c1.3-.49,2.2-.47,2.71,0s.69,1.81.59,3.91c0,0,0,1.67,1.88.93a3.14,3.14,0,0,0,2.19-2.5l.07-1.38Q280.2,139.57,277.74,139.33Z"/><path class="cls-11" d="M257,143.76a25.25,25.25,0,0,0-.58-3.06l-54.1,22.77c.32.91.66,1.87,1,2.9Z"/><path class="cls-11" d="M255.32,189.1a18.09,18.09,0,0,0-.4-3.15l-1.65.7a25.19,25.19,0,0,1,.85,2.95Z"/><path class="cls-11" d="M252.2,190.41a22.62,22.62,0,0,0-.82-3l-13,5.49q1.58,1,3.09,2Z"/><path class="cls-11" d="M213.14,206.83s0,0,0,0l.07,0Z"/><path class="cls-11" d="M239.17,195.9c-1-.68-2.07-1.35-3.12-2l-6.42,2.7c1.07.61,2.17,1.26,3.29,1.93Z"/><path class="cls-11" d="M211.34,205h0l.12.09.14.1.13.08a2.29,2.29,0,0,1,.57.35l.31.23a.48.48,0,0,1,.27-.18,11.87,11.87,0,0,1,2.2.25l-.05.14,14.84-6.25a6.42,6.42,0,0,0,.07-1.27c-.71-.41-1.4-.81-2.09-1.19l-16.95,7.14A1.61,1.61,0,0,0,211.34,205Z"/><path class="cls-13" d="M215,206.22l.05-.16-1.83.77h.12A8.74,8.74,0,0,0,215,206.22Z"/><path class="cls-13" d="M234.6,136.64h-.13C234.34,136.68,234.36,136.69,234.6,136.64Z"/><polygon class="cls-11" points="213.96 135.74 216.89 136.41 200.76 113.64 198.29 113.64 213.96 135.74"/><polygon class="cls-11" points="195.88 106.74 194.23 107.91 196.22 110.71 196.22 110.71 198.69 110.71 198.69 110.71 195.88 106.74"/><path class="cls-13" d="M185.65,110.71c-1.13,1-2.21,2-3.22,2.93H195.8l-2.08-2.93Z"/><polygon class="cls-13" points="246.76 110.71 201.19 110.71 203.26 113.64 244.69 113.64 246.76 110.71"/><path class="cls-13" d="M217.72,200.19l4.31-1.58-4.59-3.49c-.13.73-.25,1.36-.4,2.16l1.08.24C218,198.32,217.87,199.16,217.72,200.19Z"/><path class="cls-11" d="M255,194.13l-.28.12c0,.44,0,.88,0,1.33C254.88,195.1,255,194.61,255,194.13Z"/><path class="cls-11" d="M252.74,195.06l-7,2.9a60.69,60.69,0,0,1,6.42,5.38A42.07,42.07,0,0,0,252.74,195.06Z"/><path class="cls-11" d="M201.57,220.27l-.11.27-.26.16a38,38,0,0,1-9.16,4.23c0,4.54,1.09,12.63,4,17.29,3.77,6,13.63,10.68,23.17,15.22,6.5,3.1,12.66,6,16.43,9.22a33.14,33.14,0,0,1,17.52-13.87c.87-3.35.21-13-.17-17.07-1.89-1.39-9.61-8.19-4.87-23.36l.34-1.1a130.43,130.43,0,0,0-12.76-9.2l-3.66,1.51c-1.73,5.21-5.68,12.2-8,15.87a18.28,18.28,0,0,0,3.82-.15c3.56-.56,5.5-2.53,5.37-1.76s-2,2.56-4.77,3.16c-1.65.37-5.77.75-5.77.75-.36.54-.3.56-.45.77.11.38.24.76.37,1.14s.31.91.44,1.35a5.54,5.54,0,0,0,.65,1.37l1.07,1.45-1.76-.24c-.9-.12-1.28-1.29-2-3.72-.08-.28-.17-.62-.28-.95l-.49,0a1,1,0,0,1-.6-.2,1,1,0,0,1-.21-1.43,2.29,2.29,0,0,0,.16-.23.87.87,0,0,0-.19,0c-1.51-.23-2.81-.75-3.84-.89l-.53-.07a4.26,4.26,0,0,1-1-.29,3.45,3.45,0,0,1-2.25-4.2,3.89,3.89,0,0,1,.12-.49,6.18,6.18,0,0,1,.12-.62V214a5.41,5.41,0,0,0-.18-1.28,2.13,2.13,0,0,1-.41-.68l-7.95,3.27Q202.6,217.75,201.57,220.27Z"/><path class="cls-11" d="M224.47,326.59a3.25,3.25,0,1,0,3.25,3.25A3.25,3.25,0,0,0,224.47,326.59Z"/><path class="cls-11" d="M234.57,293.1,228,298.9a32,32,0,0,0-3.21-22.12l-.38-.69-.38.69a32,32,0,0,0-3.21,22.12l-6.61-5.8a30.53,30.53,0,0,0,8.6,20.94l-5.88-3.72s1.69,9.79,7.1,11.61a1.47,1.47,0,0,0,.76,0c5.42-1.82,7.1-11.61,7.1-11.61L226,314A30.53,30.53,0,0,0,234.57,293.1Z"/><path class="cls-11" d="M213.06,211.87a2.64,2.64,0,0,1,.42,2.54,3.66,3.66,0,0,1-.14.69,3.28,3.28,0,0,0,.42,2.36,2,2,0,0,0,.8.62,4.93,4.93,0,0,0,.76.2h0l.42.06h.07a31.2,31.2,0,0,1,4.06.59l.2,0a1.16,1.16,0,0,1,.38.06l.33,0a89.18,89.18,0,0,0,7.42-13.93l-13.3,5.46v.71L214,211l-1.19.49a2,2,0,0,0,.13.23Z"/><path class="cls-11" d="M224.32,139.84l-.25,0c-10.32.43-30.17-10.26-34-12.4l-4.27,4.56.79,1.16c3.45,5,12.46,18.14,15.65,26.72l52.16-21.62a4.64,4.64,0,0,0-.63-1C251.23,134.93,237.51,135.47,224.32,139.84Z"/><path class="cls-11" d="M252.41,207.88c-.09-.56-.18-1.11-.31-1.63l-.09-.07a53.64,53.64,0,0,0-8.52-7.31l-6,2.48a126.52,126.52,0,0,1,15.08,11.37A24.62,24.62,0,0,0,252.41,207.88Z"/><polygon class="cls-13" points="214.93 210.6 214.01 210.98 214.93 211.31 214.93 210.6"/><path class="cls-11" d="M252.66,181l-.25-.42.13-.25c1.26-2.76,2.88-9.15,3.44-23.9.14-3.89.59-15.69-2.35-19.06-2.5-2.42-16.17-1.88-29.31,2.5l-.24,0h-.61c-10.4,0-29.53-10.32-33.28-12.4L185.94,132l.78,1.14c3.5,5.12,12.81,18.71,15.79,27.27l.47,1.32c3.66,10.39,10.48,29.72-1.31,58.44l-.11.28-.1.06h0l-.26.16a38.49,38.49,0,0,1-9,4.19c0,4.53,1.09,12.59,4,17.24,3.75,6,13.57,10.68,23.07,15.22,6.48,3.09,12.62,6,16.37,9.21a33.06,33.06,0,0,1,17.45-13.86c.87-3.35.21-13-.17-17-1.89-1.4-9.57-8.2-4.85-23.36l.34-1.1a130.19,130.19,0,0,0-12.67-9.13l1.73-.71a126.56,126.56,0,0,1,15,11.28,23.45,23.45,0,0,0-.22-5.46l0-.3,0-.07c0-.18-.06-.37-.11-.55l-.09-.07a53.64,53.64,0,0,0-8.52-7.31l2.22-.91a60.69,60.69,0,0,1,6.42,5.38,42.07,42.07,0,0,0,.61-8.28l2-.81c0,.44,0,.88,0,1.33.09-.48.16-1,.23-1.45l0,0C255.32,189.54,254.86,184.5,252.66,181Z"/><path class="cls-11" d="M224.47,326.59a3.25,3.25,0,1,0,3.25,3.25A3.25,3.25,0,0,0,224.47,326.59Z"/><path class="cls-11" d="M234.57,293.1,228,298.9a32,32,0,0,0-3.21-22.12l-.38-.69-.38.69a32,32,0,0,0-3.21,22.12l-6.61-5.8a30.53,30.53,0,0,0,8.6,20.94l-5.88-3.72s1.69,9.79,7.1,11.61a1.47,1.47,0,0,0,.76,0c5.42-1.82,7.1-11.61,7.1-11.61L226,314A30.53,30.53,0,0,0,234.57,293.1Z"/><path class="cls-13" d="M201.46,220.54h0l-.16.09a37.41,37.41,0,0,1-9.12,4.23v0a38.49,38.49,0,0,0,9-4.19Z"/><path class="cls-10" d="M286.44,119.78c-1.95,2.84-3.76,5.49-5,7.3l17.34-7.19,0-.11Z"/><path class="cls-10" d="M186.56,133.21l-.79-1.16,4.27-4.56c3.86,2.14,23.71,12.83,34,12.4l.25,0c13.19-4.37,26.91-4.91,29.42-2.5a4.64,4.64,0,0,1,.63,1l23.25-9.64a89.62,89.62,0,0,0-6.9-8.89H247.8l-10.73,15.13a87,87,0,0,0-8.76,1.86l12-17H207.61l12.48,17.63a1,1,0,0,1,.15.38,51.63,51.63,0,0,1-9.11-2.52l-11-15.54-23.59,0a65.86,65.86,0,0,0-7.21,9.62,1,1,0,0,1-.84.52h-.05a1,1,0,0,1-.84-.45c-.05-.08-3.1-4.58-6.6-9.69H149.11l17.5,54.91,35.6-14.76C199,151.35,190,138.22,186.56,133.21Z"/><path class="cls-10" d="M254,207.17a23.78,23.78,0,0,1-.26,8.68l-.35,1.31-4-3.07c-4,14.72,4.43,20,4.81,20.26l.39.23,0,.46c.06.6,1.44,14.69,0,18.69l-.15.41-.41.14a31.13,31.13,0,0,0-17.41,14.13l-.54,1.12-.89-.86c-3.41-3.29-9.89-6.39-16.76-9.67-9.73-4.65-19.79-9.46-23.82-15.89-3.71-5.91-4.35-15.72-4.28-19v-.73l.71-.14a31.44,31.44,0,0,0,9-4c.42-1,.8-2,1.17-3L182.33,224l42.06,131.91,54-171.4-21.51,8.84A39.56,39.56,0,0,1,254,207.17ZM224.47,333.09a3.25,3.25,0,1,1,3.25-3.25A3.26,3.26,0,0,1,224.47,333.09Zm7.38-22.77s-1.68,9.79-7.1,11.61a1.47,1.47,0,0,1-.76,0c-5.41-1.82-7.1-11.61-7.1-11.61l5.88,3.72a30.53,30.53,0,0,1-8.6-20.94l6.61,5.8A32,32,0,0,1,224,276.78l.38-.69.38.69A32,32,0,0,1,228,298.9l6.61-5.8A30.53,30.53,0,0,1,226,314Z"/><path class="cls-11" d="M275,121.72c1.86,2.32,3.2,4.2,4,5.36l4.29-6.3h-7.61Z"/><path class="cls-11" d="M166.61,113.64l-2.1-2.93L159,103.08a12.91,12.91,0,0,0-3.28,5.55l1.46,2.08,2,2.93,3.45,5h7.54Z"/><polygon class="cls-11" points="200.76 113.64 198.69 110.71 198.69 110.71 195.9 106.77 194.29 108 196.22 110.71 196.22 110.71 198.29 113.64 201.84 118.66 204.31 118.66 200.76 113.64"/><path class="cls-11" d="M195.8,113.64l-2.08-2.93h0l-1.05-1.48-.51.4a1.08,1.08,0,0,1-.62.21h-.13a1.08,1.08,0,0,1-.68-.39l-1.37-1.8c-1.31,1-2.54,2.06-3.71,3.07s-2.21,2-3.22,2.93c-1.84,1.75-3.46,3.44-4.9,5h21.82Z"/><path class="cls-11" d="M252.15,113.64l-3.56,5h21.14c-1.43-1.59-3-3.28-4.8-5q-1.49-1.44-3.12-2.93c-1-.93-2.1-1.87-3.23-2.8l-1.17,1.53a1,1,0,0,1-.67.39h-.14a1.08,1.08,0,0,1-.62-.21l-.64-.49-1.12,1.57Z"/><polygon class="cls-11" points="249.65 113.64 251.73 110.71 253.71 107.91 252.06 106.74 249.25 110.71 247.18 113.64 243.63 118.66 246.09 118.66 249.65 113.64"/><path class="cls-11" d="M195.35,104.62l.77-.58-.65-.85-1.24-1.62L191.49,98l-1.24-1.62-1.12-1.46L185,98.06l-.27.21,1.4,1.83,3.59,4.69L191,106.4l.76,1,.17-.12a1,1,0,0,1,.32-.43Z"/><path class="cls-11" d="M288.19,113.64l2-2.93,1.45-2.07a12.74,12.74,0,0,0-3.29-5.53l-5.47,7.6-2.11,2.93-3.6,5h7.53Z"/><path class="cls-11" d="M179.53,113.64c1-1,2-1.93,3.09-2.93,1.69-1.53,3.51-3.1,5.51-4.67l-4.55-5.94H165.11a10.27,10.27,0,0,0-4.5,1.7l6.4,8.91,2.11,2.93,3.61,5h2.09C176.19,117.09,177.75,115.41,179.53,113.64Z"/><path class="cls-11" d="M278.3,113.64l2.1-2.93,6.39-8.88a10.73,10.73,0,0,0-4.56-1.73H264.55l-4.73,6.19c1.78,1.47,3.43,3,5,4.41,1.05,1,2.06,2,3,2.93,1.74,1.76,3.27,3.45,4.64,5h2.25Z"/><path class="cls-11" d="M255.8,106.92l.61.47.59-.76,1.23-1.61,3.76-4.91,1.41-1.84-.26-.2L259,94.91l-1.39,1.82-1.24,1.61-2.56,3.35-1.23,1.61L252,104l3.27,2.5.42.3S255.77,106.9,255.8,106.92Z"/><path class="cls-11" d="M201.19,110.71l2.07,2.93,3.55,5h34.32l3.56-5,2.07-2.93,3.74-5.28L250,105a1,1,0,0,1-.19-1.42l1.12-1.47c-1.09-.74-2.22-1.46-3.38-2.18l-.93-.56c-1-.6-2-1.19-3.07-1.77l-.92-.5q-1.22-.64-2.46-1.26c-.63-.31-1.24-.62-1.88-.92-1.39-.65-2.84-1.25-4.3-1.84l-1-.37c-.81-.32-1.63-.62-2.47-.91-.33-.12-.66-.22-1-.33-1.9-.63-3.84-1.21-5.85-1.71-1.51.46-3,1-4.44,1.47l-1,.36c-1.06.38-2.09.77-3.11,1.18l-1,.4c-1.55.64-3.06,1.29-4.52,2l-1,.49-.53-.47.17.65-1,.47c-.86.43-1.71.87-2.54,1.31l-.92.49c-1,.55-2,1.11-3,1.67l-.94.55c-.95.57-1.87,1.15-2.77,1.73l1.18,1.55a1,1,0,0,1-.19,1.42l-.64.5,3.66,5.18Z"/><path class="cls-11" d="M172.34,121.61l-.6-.83h-7.61c1.79,2.61,3.34,4.9,4.26,6.25C169.16,125.85,170.47,124,172.34,121.61Z"/><path class="cls-11" d="M198.42,98.88l.93-.55c1.13-.68,2.29-1.34,3.48-2l.92-.5c1-.53,2-1,3-1.55L208,93.7q2.5-1.19,5.18-2.3l1-.4c1.11-.45,2.25-.89,3.41-1.31-1.2,0-2.53.15-4,.31l-1.12.14c-1.63.22-3.36.52-5.16.93-.43.09-.85.19-1.28.3-1.35.35-2.72.76-4.09,1.24-.34.11-.67.23-1,.36a41.54,41.54,0,0,0-4.9,2.19l-1,.53c-.64.36-1.27.74-1.9,1.14l2.76,3.61Q197.15,99.66,198.42,98.88Z"/><path class="cls-11" d="M233.92,90.89l1,.4c1.64.66,3.25,1.35,4.81,2.09l1,.48c1,.49,2,1,2.91,1.5l.93.49c1.23.68,2.43,1.38,3.6,2.09l.92.57c1,.67,2.09,1.34,3.1,2l2.58-3.37c-.86-.57-1.73-1.09-2.61-1.59l-1-.52a40.44,40.44,0,0,0-5-2.17c-.33-.13-.67-.25-1-.36-1.29-.45-2.58-.82-3.84-1.14l-1.31-.31c-1.6-.36-3.14-.64-4.61-.85l-1.1-.14c-1.14-.14-2.22-.24-3.22-.31l-.36,0,.33.12C232.05,90.19,233,90.54,233.92,90.89Z"/><path class="cls-11" d="M279,129.93h0a1,1,0,0,1-.85-.49,76.94,76.94,0,0,0-6.53-8.66H247.09l-11,15.5c-.84.17-1.42.3-1.63.36,0,0-.55.17-1.41.4l11.53-16.26h-2.46l-12.07,17c-.76.18-1.55.36-2.33.52a1,1,0,0,1,.13-.92l11.77-16.63H208.31l11.78,16.63a1,1,0,0,1,0,1.16.69.69,0,0,1-.11.13c-.58,0-1.13-.11-1.64-.17l-12.54-17.75h-2.47l12.25,17.31c-1.06-.34-2.15-.71-3.25-1.11l-11.49-16.2H175.66a63.82,63.82,0,0,0-6.35,8.62,1,1,0,0,1-.84.52h-.05a1,1,0,0,1-.84-.45c-.05-.07-2.71-4-5.92-8.69H150.58l73.83,231.57,73-231.57H285.75c-3.21,4.68-5.88,8.63-5.93,8.7A1,1,0,0,1,279,129.93Z"/><polygon class="cls-13" points="195.88 106.74 194.23 107.91 194.29 108 195.9 106.77 195.88 106.74"/><path class="cls-13" d="M233.06,137c.86-.23,1.41-.4,1.41-.4.21-.06.79-.19,1.63-.36l11-15.5h-2.5Z"/><path class="cls-13" d="M227.86,137.41a1,1,0,0,0-.13.92c.78-.16,1.57-.34,2.33-.52l12.07-17h-2.5Z"/><path class="cls-13" d="M255.72,106.84l-.42-.3.5.38S255.75,106.86,255.72,106.84Z"/><polygon class="cls-13" points="244.69 113.64 241.13 118.66 243.63 118.66 247.18 113.64 249.25 110.71 252.06 106.74 253.71 107.91 251.73 110.71 249.65 113.64 246.09 118.66 248.59 118.66 252.15 113.64 254.22 110.71 255.34 109.14 250.5 105.43 246.76 110.71 244.69 113.64"/><path class="cls-13" d="M256,108.26a1,1,0,0,0-.16-1.34l-.5-.38-2.89-2.05a1,1,0,0,0-1.42.24l-.49.7,4.84,3.71Z"/><path class="cls-13" d="M212.34,137c1.1.4,2.19.77,3.25,1.11l-12.25-17.31h-2.49Z"/><polygon class="cls-13" points="193.72 110.71 195.8 113.64 199.35 118.66 201.84 118.66 198.29 113.64 196.22 110.71 196.22 110.71 194.29 108 192.67 109.23 193.72 110.71 193.72 110.71"/><path class="cls-13" d="M192.22,106.84a1,1,0,0,0-.32.43l3.45-2.65Z"/><path class="cls-13" d="M218.35,138.53c.51.06,1.06.12,1.64.17a.69.69,0,0,0,.11-.13,1,1,0,0,0,0-1.16l-11.78-16.63h-2.5Z"/><polygon class="cls-13" points="198.69 110.71 198.69 110.71 200.76 113.64 204.31 118.66 206.81 118.66 203.26 113.64 201.19 110.71 201.19 110.71 197.51 105.53 195.9 106.77 198.69 110.71"/><path class="cls-13" d="M194.23,107.91l1.65-1.17,0,0,1.62-1.24-.57-.8a1,1,0,0,0-.66-.41,1,1,0,0,0-.76.17l-.18.13-3.45,2.65a1,1,0,0,0,.08,1l.69,1,1.62-1.23Z"/><path class="cls-13" d="M293.77,108.55a14.49,14.49,0,0,0-4.85-7.66.68.68,0,0,0-.12-.12.75.75,0,0,0-.13-.06,13.21,13.21,0,0,0-6.37-2.64H265.82a1,1,0,0,0-.38-.8l-.25-.19a2.27,2.27,0,0,0,1.13-.83,2.35,2.35,0,0,0,.36-1.8,5.65,5.65,0,0,0-5.78-4.1,2.36,2.36,0,0,0-1.58.94,2.21,2.21,0,0,0-.4,1.2.93.93,0,0,0-.23,0,1.08,1.08,0,0,0-.68.39l-2,2.68c-.83-.57-1.68-1.09-2.53-1.58q-.52-.3-1.05-.57a42.84,42.84,0,0,0-5.16-2.34l-1-.37c-1.46-.51-2.91-1-4.33-1.31L240.36,89c-1.35-.3-2.66-.54-3.92-.74l-1.1-.15c-1.28-.17-2.49-.3-3.62-.38l-1.08-.07a51.7,51.7,0,0,0-7,0h-.1a1,1,0,0,0-.92.94,1,1,0,0,0,.78,1.07l.26.07c2,.5,4,1.08,5.85,1.71.33.11.66.21,1,.33.84.29,1.66.59,2.47.91l1,.37c1.46.59,2.91,1.19,4.3,1.84.64.3,1.25.61,1.88.92q1.24.61,2.46,1.26l.92.5c1,.58,2.07,1.17,3.07,1.77l.93.56c1.16.72,2.29,1.44,3.38,2.18l-1.12,1.47A1,1,0,0,0,250,105l.52.4.49-.7a1,1,0,0,1,1.42-.24l2.89,2.05L252,104l.56-.74,1.23-1.61,2.56-3.35,1.24-1.61L259,94.91l4.13,3.16.26.2L262,100.11,258.23,105,257,106.63l-.59.76-.61-.47a1,1,0,0,1,.16,1.34l-.62.88.64.49a1.08,1.08,0,0,0,.62.21h.14a1,1,0,0,0,.67-.39l1.17-1.53c1.13.93,2.2,1.87,3.23,2.8s2.13,2,3.12,2.93c1.78,1.74,3.37,3.43,4.8,5l1,1.12.86,1a76.94,76.94,0,0,1,6.53,8.66,1,1,0,0,0,.85.49h0a1,1,0,0,0,.84-.45c.05-.07,2.72-4,5.93-8.7.23-.33.45-.67.69-1l.76-1.12,3.46-5,2-2.93c.31-.45.62-.88.91-1.29A1,1,0,0,0,293.77,108.55Zm-41.62-8c-1-.68-2.05-1.35-3.1-2l-.92-.57c-1.17-.71-2.37-1.41-3.6-2.09l-.93-.49c-.95-.52-1.92-1-2.91-1.5l-1-.48c-1.56-.74-3.17-1.43-4.81-2.09l-1-.4c-.93-.35-1.87-.7-2.83-1l-.33-.12.36,0c1,.07,2.08.17,3.22.31l1.1.14c1.47.21,3,.49,4.61.85l1.31.31c1.26.32,2.55.69,3.84,1.14.33.11.67.23,1,.36a40.44,40.44,0,0,1,5,2.17l1,.52c.88.5,1.75,1,2.61,1.59Zm15.65,13.11c-.94-1-1.95-1.94-3-2.93-1.55-1.46-3.2-2.94-5-4.41l4.73-6.19h17.68a10.73,10.73,0,0,1,4.56,1.73l-6.39,8.88-2.1,2.93-3.61,5-.8,1.12-.23.31-.26-.31-1-1.12C271.07,117.09,269.54,115.4,267.8,113.64Zm22.42-2.93-2,2.93-3.46,5-.76,1.12-.69,1-4.29,6.3c-.79-1.16-2.13-3-4-5.36l.67-.94.72-1,.81-1.12,3.6-5,2.11-2.93,5.47-7.6a12.74,12.74,0,0,1,3.29,5.53Z"/><path class="cls-13" d="M223.41,89.72a1,1,0,0,1-.78-1.07,1,1,0,0,1,.92-.94h.1a50.13,50.13,0,0,0-5.5-.11l-1.08,0c-1.38.06-2.92.19-4.57.4l-1.12.15c-1.39.2-2.86.46-4.36.8l-1.51.36c-1.51.39-3,.85-4.61,1.41l-1,.37a43.17,43.17,0,0,0-4.77,2.18q-.52.27-1,.57c-.73.42-1.45.85-2.17,1.32l-1.79-2.34a1,1,0,0,0-1.43-.18l-.15.11a2.26,2.26,0,0,0-2.12-2.56,5.65,5.65,0,0,0-5.5,4.48,2.35,2.35,0,0,0,.48,1.77,2.28,2.28,0,0,0,1.31.77l0,0a1,1,0,0,0-.38.79H165a11.62,11.62,0,0,0-2.9.74l-3.64,2.07h0a14.49,14.49,0,0,0-4.86,7.67,1,1,0,0,0,.15.87l.92,1.31,2,2.92c1.13,1.62,2.3,3.34,3.46,5l.77,1.12.68,1c3.21,4.68,5.87,8.62,5.92,8.69a1,1,0,0,0,.84.45h.05a1,1,0,0,0,.84-.52,63.82,63.82,0,0,1,6.35-8.62l.86-1c.32-.37.67-.74,1-1.12,1.44-1.58,3.06-3.27,4.9-5,1-1,2.09-1.94,3.22-2.93s2.4-2,3.71-3.07l1.37,1.8a1.08,1.08,0,0,0,.68.39h.13a1.08,1.08,0,0,0,.62-.21l.51-.4-.69-1a1,1,0,0,1-.08-1l-.17.12-.76-1-1.23-1.61-3.59-4.69-1.4-1.83.27-.21,4.11-3.15,1.12,1.46L191.49,98l2.74,3.58,1.24,1.62.65.85-.77.58.18-.13a1,1,0,0,1,.76-.17,1,1,0,0,1,.66.41l.57.8.64-.5a1,1,0,0,0,.19-1.42l-1.18-1.55c.9-.58,1.82-1.16,2.77-1.73l.94-.55c1-.56,1.94-1.12,3-1.67l.92-.49c.83-.44,1.68-.88,2.54-1.31l1-.47-.17-.65.53.47,1-.49c1.46-.68,3-1.33,4.52-2l1-.4c1-.41,2.05-.8,3.11-1.18l1-.36c1.45-.51,2.93-1,4.44-1.47Zm-51.07,31.89c-1.87,2.35-3.18,4.24-4,5.42-.92-1.35-2.47-3.64-4.26-6.25l-.68-1-.77-1.12-3.45-5-2-2.93-1.46-2.08a12.91,12.91,0,0,1,3.28-5.55l5.49,7.63,2.1,2.93,3.61,5,.81,1.12.71,1ZM188.13,106c-2,1.57-3.82,3.14-5.51,4.67-1.09,1-2.12,2-3.09,2.93-1.78,1.77-3.34,3.45-4.71,5l-1,1.12c0,.07-.12.14-.17.2l-.15-.2-.8-1.12-3.61-5L167,110.71l-6.4-8.91a10.27,10.27,0,0,1,4.5-1.7h18.47Zm26-15-1,.4q-2.67,1.11-5.18,2.3l-1.22.59c-1,.51-2,1-3,1.55l-.92.5c-1.19.65-2.35,1.31-3.48,2l-.93.55q-1.28.78-2.49,1.56l-2.76-3.61c.63-.4,1.26-.78,1.9-1.14l1-.53a41.54,41.54,0,0,1,4.9-2.19c.33-.13.66-.25,1-.36,1.37-.48,2.74-.89,4.09-1.24.43-.11.85-.21,1.28-.3,1.8-.41,3.53-.71,5.16-.93l1.12-.14c1.43-.16,2.76-.26,4-.31C216.39,90.11,215.25,90.55,214.14,91Z"/><polygon class="cls-13" points="243.63 118.66 241.13 118.66 240.34 119.78 239.63 120.78 242.13 120.78 242.83 119.78 243.63 118.66"/><polygon class="cls-13" points="248.59 118.66 246.09 118.66 245.3 119.78 244.59 120.78 247.09 120.78 247.8 119.78 248.59 118.66"/><polygon class="cls-13" points="201.84 118.66 199.35 118.66 200.11 119.73 200.85 120.78 203.34 120.78 202.6 119.72 201.84 118.66"/><polygon class="cls-13" points="206.81 118.66 204.31 118.66 205.06 119.72 205.81 120.78 208.31 120.78 207.6 119.78 206.81 118.66"/><path class="cls-11" d="M224.47,334.08a4.17,4.17,0,1,1,4.15-4.17A4.16,4.16,0,0,1,224.47,334.08Z"/><path class="cls-13" d="M224.47,326.66a3.26,3.26,0,1,1-3.24,3.25,3.24,3.24,0,0,1,3.24-3.25m0-1.83a5.09,5.09,0,1,0,5.07,5.08,5.08,5.08,0,0,0-5.07-5.08Z"/><path class="cls-11" d="M224.38,323a2.45,2.45,0,0,1-.61-.09c-5.91-2-7.68-11.93-7.75-12.35l-.35-2,2.93,1.86a30.86,30.86,0,0,1-5.3-17.29l.09-1.89,6,5.32a32.79,32.79,0,0,1,3.79-20.21l1.16-2.1,1.17,2.14a32.77,32.77,0,0,1,3.77,20.17l6-5.32.09,1.89a31,31,0,0,1-5.3,17.29l2.93-1.86-.35,2c-.07.42-1.84,10.37-7.69,12.33A2.49,2.49,0,0,1,224.38,323Z"/><path class="cls-13" d="M224.37,276.07l.38.69a32.15,32.15,0,0,1,3.2,22.16l6.59-5.81a30.63,30.63,0,0,1-8.57,21l5.86-3.73s-1.68,9.81-7.08,11.63a1.43,1.43,0,0,1-.75,0c-5.4-1.82-7.08-11.63-7.08-11.63l5.86,3.73a30.63,30.63,0,0,1-8.57-21l6.59,5.81a32.09,32.09,0,0,1,3.2-22.16l.37-.69m0-3.78-1.59,2.9-.36.65a33.84,33.84,0,0,0-4.13,18.43l-2.88-2.54-2.83-2.5-.19,3.78a31.41,31.41,0,0,0,3.52,14.55l-1.48-.95.69,4.06c.19,1.12,2,10.95,8.3,13.05l.06,0,.06,0a3.22,3.22,0,0,0,1.67,0l.06,0,.06,0c6.25-2.1,8.11-11.93,8.3-13.05l.69-4.06-1.48.95A31.41,31.41,0,0,0,236.36,293l-.19-3.78-2.83,2.5-2.88,2.54a33.94,33.94,0,0,0-4.13-18.43l-.36-.65-1.6-2.9Z"/><path class="cls-15" d="M252.9,235.65c.38,4.08,1,13.7.17,17a33.06,33.06,0,0,0-17.45,13.86c-3.75-3.18-9.89-6.12-16.37-9.21-9.5-4.54-19.32-9.24-23.07-15.22-2.91-4.65-4-12.71-4-17.24l-.14,0c0,4.54,1.09,12.63,4,17.29,3.77,6,13.63,10.68,23.17,15.22,6.5,3.1,12.66,6,16.43,9.22a33.14,33.14,0,0,1,17.52-13.87c.87-3.35.21-13-.17-17.07-1.89-1.39-9.61-8.19-4.87-23.36l.34-1.1-.09-.07-.34,1.1C243.33,227.45,251,234.25,252.9,235.65Z"/><path class="cls-15" d="M252.21,207.17a23.45,23.45,0,0,1,.22,5.46l.1.09a24.62,24.62,0,0,0-.12-4.84c-.06-.37-.13-.73-.2-1.08l0,.07Z"/><path class="cls-13" d="M201.57,220.27l-.11.27.1-.06.11-.28c11.79-28.72,5-48,1.31-58.44l-.47-1.32c-3-8.56-12.29-22.15-15.79-27.27l-.78-1.14,4.25-4.56c3.75,2.08,22.88,12.4,33.28,12.4h.61l.24,0c13.14-4.38,26.81-4.92,29.31-2.5,2.94,3.37,2.49,15.17,2.35,19.06-.56,14.75-2.18,21.14-3.44,23.9l-.07.31.26.42c2.2,3.55,2.59,8.53,2.33,13.1l1.85-.76c.15-4.47-.45-9.12-2.54-12.75,1.82-4.36,3-12.48,3.41-24.15.29-7.65.24-16.87-2.85-20.4-3.78-3.64-19.36-1.88-31.05,2h-.42c-10.84,0-32.78-12.39-33-12.51l-.62-.35-5.69,6.1c-.54.56-.51.6,1.08,2.93,3.14,4.58,12.68,18.51,15.58,26.84l.47,1.33c3.44,9.75,9.71,27.57,0,53.83l2.18-.89Q202.6,217.75,201.57,220.27Z"/><path class="cls-13" d="M202.88,161.81l-.46-1.32c-.06-.18-.15-.37-.21-.56l-35.6,14.76L182.33,224l21.13-8.68C212.61,189.31,206.35,171.59,202.88,161.81Zm-2.46,19v14.64a15.32,15.32,0,0,1-10,14l-6.93,2.69a1.85,1.85,0,0,1-.67.13,1.18,1.18,0,0,1-.67-.2,1.34,1.34,0,0,1-.53-1.16v-1.21a2.52,2.52,0,0,1,1.56-2.22l.7-.27c.46-.18.53-.3.53-.5V182l-.91.37a1.4,1.4,0,0,1-1.32-.09,1.34,1.34,0,0,1-.56-1.16v-1.21a2.42,2.42,0,0,1,1.44-2.15l7.9-3.26c2.83-1.17,5.21-1.19,6.88-.07S200.42,177.77,200.42,180.81ZM172,179.44a1.52,1.52,0,0,1-1.41-.94,1.53,1.53,0,0,1,.81-2l30.23-12.72c.32.9.65,1.87,1,2.89l-30,12.65A1.59,1.59,0,0,1,172,179.44Zm12.25,39.45a1.53,1.53,0,0,1-.59-2.94L204,207.41c-.31,1.23-.67,2.48-1.06,3.76l-18.05,7.6A1.52,1.52,0,0,1,184.26,218.89Z"/><path class="cls-13" d="M190.05,204.76a8.7,8.7,0,0,0,5.59-7.82v-14.6c0-1.57-.41-2.67-1.2-3.2a2.35,2.35,0,0,0-1.32-.36,5.07,5.07,0,0,0-1.88.42l-1.67.69a.51.51,0,0,0-.38.51v24.7h0Z"/><path class="cls-11" d="M216.23,191.46a4.52,4.52,0,0,0-.16.68c0,.08-.18.64-.2.78,3.1-.44,6.2,2,7.12,3.56l-1.27.79a2.43,2.43,0,0,0-.45-.59c-.55-.49-2.24-2.06-3.91-1.76a5.56,5.56,0,0,0-1.26.36,3.34,3.34,0,0,1-.76,3l-.13.15-.06.07,0,0-.88,1-.69.83c-.61.74-1.24,1.51-1.95,2.28a2.2,2.2,0,0,1-.2.23,3.16,3.16,0,0,0-.59.94.74.74,0,0,0,0,.36.76.76,0,0,0,.11.32,1.61,1.61,0,0,0,.44.5h0l.12.09.14.1.13.08a2.29,2.29,0,0,1,.57.35l.31.23a.48.48,0,0,1,.27-.18,11.87,11.87,0,0,1,2.2.25l-.05.14-1.83.77h-.06s0,0,0,0a3.52,3.52,0,0,1-.22,1.14l0,.07a2,2,0,0,0-.09.4c0,.07.1.21.16.35a2.33,2.33,0,0,0,.38.26l.36.15.34.14.08,0a1.09,1.09,0,0,1,.25.09l.25.21.32.84v.07L214,211l-.24-.09-.07,0a1,1,0,0,1-.32-.12l-.31-.12a1.93,1.93,0,0,0-.19.32.6.6,0,0,0-.06.52,2,2,0,0,0,.13.23l.1.17a2.64,2.64,0,0,1,.42,2.54,3.66,3.66,0,0,1-.14.69,3.28,3.28,0,0,0,.42,2.36,2,2,0,0,0,.8.62,4.93,4.93,0,0,0,.76.2h0l.42.06h.07a31.2,31.2,0,0,1,4.06.59l.2,0a1.16,1.16,0,0,1,.38.06l.33,0a89.18,89.18,0,0,0,7.42-13.93,24.34,24.34,0,0,0,1.64-5.33,6.42,6.42,0,0,0,.07-1.27c-.71-.41-1.4-.81-2.09-1.19C223.4,194.87,219.38,192.9,216.23,191.46Z"/><path class="cls-11" d="M277.72,179.66a1.52,1.52,0,1,0-1.18-2.81l-20.23,8.52a23.87,23.87,0,0,1,.54,3.08Z"/><path class="cls-11" d="M295.05,127.76a1.53,1.53,0,0,0-1.19-2.81l-36.81,15.5a26.24,26.24,0,0,1,.57,3.07Z"/><path class="cls-11" d="M277.74,139.33a13.71,13.71,0,0,0-5.91,1c-.57.21-1.15.44-1.73.69s-1.16.51-1.76.8a8.75,8.75,0,0,0-4.23,4.34,20.91,20.91,0,0,0-1.53,7.5q-.34,7.19,1.56,8t5.41-.26a2.21,2.21,0,0,0,.33,0l.37-.12a5.39,5.39,0,0,0,.68-.22l.69-.28a6,6,0,0,1,2.87-.46c.75.12,1.07,1.35,1,3.7a9,9,0,0,1-1.09,4.57,6.59,6.59,0,0,1-2.92,2.13l-1.59.65c-.53.22-1.06.43-1.57.6-1.26.49-2,.18-2.21-.89a17.75,17.75,0,0,1-.2-4.12s0-2.09-2-1.29a3.44,3.44,0,0,0-2.06,2.91c0,.91-.1,1.81-.13,2.71a14.59,14.59,0,0,0,.51,5.07,2.21,2.21,0,0,0,1.52,1.57c1.57.25,3.62-.17,6.15-1.23.7-.3,1.4-.61,2.09-.94s1.38-.67,2.07-1a9.17,9.17,0,0,0,4.35-5.21,31.16,31.16,0,0,0,1.26-7.79q.34-7-2.1-7.37a12.8,12.8,0,0,0-5.67.78c-.26.11-.54.2-.82.3l-.82.24-.35.11a1.58,1.58,0,0,0-.31.09c-1.15.34-1.92.26-2.32-.24s-.55-1.65-.46-3.45a3.9,3.9,0,0,1,.05-.58c0-.21,0-.42,0-.63a11.92,11.92,0,0,1,.35-1.62,4.19,4.19,0,0,1,.68-1.37,4.7,4.7,0,0,1,1-.93,6.3,6.3,0,0,1,1.14-.67,4.42,4.42,0,0,1,.63-.29l.59-.22,1.13-.43c1.3-.49,2.2-.48,2.71,0s.69,1.81.59,3.91c0,0,0,1.67,1.88.93a3.14,3.14,0,0,0,2.19-2.5l.07-1.38Q280.2,139.57,277.74,139.33Z"/><path class="cls-11" d="M252.21,206.8c0-.18-.06-.37-.11-.55l-.09-.07a53.64,53.64,0,0,0-8.52-7.31c-1.38-1-2.82-2-4.32-3-1-.68-2.07-1.35-3.12-2a127.7,127.7,0,0,0-18.13-9.55l-.1-.07c-1.71.88-4.69,2.47-6.47,3.42a158.54,158.54,0,0,1,18.28,8.9c1.07.61,2.17,1.26,3.29,1.93q2.24,1.33,4.53,2.82a126.56,126.56,0,0,1,15,11.28l.1.09a24.62,24.62,0,0,0-.12-4.84C252.35,207.51,252.28,207.15,252.21,206.8Z"/><path class="cls-11" d="M252.53,192.35c-.07-.6-.19-1.26-.33-1.94a22.62,22.62,0,0,0-.82-3,18.49,18.49,0,0,0-3.85-6.58,19.13,19.13,0,0,0-9.14-5.3,15.92,15.92,0,0,0-7.75-.35,13.37,13.37,0,0,0-3.54,1.41c-1.4,3.11-2.79,3.64-4.06,3.06l0,0a4.66,4.66,0,0,1-1.33,4,145.59,145.59,0,0,1,16.67,9.18q1.58,1,3.09,2c1.48,1,2.91,2,4.27,3a60.69,60.69,0,0,1,6.42,5.38,42.07,42.07,0,0,0,.61-8.28C252.71,194.13,252.64,193.23,252.53,192.35Z"/><path class="cls-11" d="M252.44,180.78l0-.07c-4.66-6.32-8.8-8.82-15.54-9.44a7.9,7.9,0,0,0-1.08,1.31c-.08.12-.18.25-.27.37a22,22,0,0,1,3.34.64A21.25,21.25,0,0,1,249,179.48a20.5,20.5,0,0,1,4.24,7.17,25.19,25.19,0,0,1,.85,2.95c.19.89.34,1.73.43,2.5s.15,1.42.19,2.15c0,.44,0,.88,0,1.33.09-.48.16-1,.23-1.45s.17-1.24.22-1.85c0-4-.64-8-2.54-11.08Z"/><polygon class="cls-13" points="256.12 193.68 256.91 193.35 256.91 193.35 256.12 193.68"/><path class="cls-11" d="M252.21,206.8c0-.18-.06-.37-.11-.55l-.09-.07a53.64,53.64,0,0,0-8.52-7.31c-1.38-1-2.82-2-4.32-3-1-.68-2.07-1.35-3.12-2a127.7,127.7,0,0,0-18.13-9.55l-.1-.07c-1.71.88-4.69,2.47-6.47,3.42a158.54,158.54,0,0,1,18.28,8.9c1.07.61,2.17,1.26,3.29,1.93q2.24,1.33,4.53,2.82a126.56,126.56,0,0,1,15,11.28l.1.09a24.62,24.62,0,0,0-.12-4.84C252.35,207.51,252.28,207.15,252.21,206.8Z"/><path class="cls-11" d="M277.74,139.33a13.71,13.71,0,0,0-5.91,1c-.57.21-1.15.44-1.73.69s-1.16.51-1.76.8a8.75,8.75,0,0,0-4.23,4.34,20.91,20.91,0,0,0-1.53,7.5q-.34,7.19,1.56,8t5.41-.26a2.21,2.21,0,0,0,.33,0l.37-.12a5.39,5.39,0,0,0,.68-.22l.69-.28a6,6,0,0,1,2.87-.46c.75.12,1.07,1.35,1,3.7a9,9,0,0,1-1.09,4.57,6.59,6.59,0,0,1-2.92,2.13l-1.59.65c-.53.22-1.06.43-1.57.6-1.26.49-2,.18-2.21-.89a17.75,17.75,0,0,1-.2-4.12s0-2.09-2-1.29a3.44,3.44,0,0,0-2.06,2.91c0,.91-.1,1.81-.13,2.71a14.59,14.59,0,0,0,.51,5.07,2.21,2.21,0,0,0,1.52,1.57c1.57.25,3.62-.17,6.15-1.23.7-.3,1.4-.61,2.09-.94s1.38-.67,2.07-1a9.17,9.17,0,0,0,4.35-5.21,31.16,31.16,0,0,0,1.26-7.79q.34-7-2.1-7.37a12.8,12.8,0,0,0-5.67.78c-.26.11-.54.2-.82.3l-.82.24-.35.11a1.58,1.58,0,0,0-.31.09c-1.15.34-1.92.26-2.32-.24s-.55-1.65-.46-3.45a3.9,3.9,0,0,1,.05-.58c0-.21,0-.42,0-.63a11.92,11.92,0,0,1,.35-1.62,4.19,4.19,0,0,1,.68-1.37,4.7,4.7,0,0,1,1-.93,6.3,6.3,0,0,1,1.14-.67,4.42,4.42,0,0,1,.63-.29l.59-.22,1.13-.43c1.3-.49,2.2-.48,2.71,0s.69,1.81.59,3.91c0,0,0,1.67,1.88.93a3.14,3.14,0,0,0,2.19-2.5l.07-1.38Q280.2,139.57,277.74,139.33Z"/><path class="cls-11" d="M276.54,176.85l-20.23,8.52a23.87,23.87,0,0,1,.54,3.08l20.87-8.79a1.52,1.52,0,1,0-1.18-2.81Z"/><path class="cls-11" d="M252.53,192.35c-.07-.6-.19-1.26-.33-1.94a22.62,22.62,0,0,0-.82-3,18.49,18.49,0,0,0-3.85-6.58,19.13,19.13,0,0,0-9.14-5.3,15.92,15.92,0,0,0-7.75-.35,13.37,13.37,0,0,0-3.54,1.41c-1.4,3.11-2.79,3.64-4.06,3.06l0,0a4.66,4.66,0,0,1-1.33,4,145.59,145.59,0,0,1,16.67,9.18q1.58,1,3.09,2c1.48,1,2.91,2,4.27,3a60.69,60.69,0,0,1,6.42,5.38,42.07,42.07,0,0,0,.61-8.28C252.71,194.13,252.64,193.23,252.53,192.35Z"/><path class="cls-11" d="M252.44,180.78l0-.07c-4.66-6.32-8.8-8.82-15.54-9.44a7.9,7.9,0,0,0-1.08,1.31c-.08.12-.18.25-.27.37a22,22,0,0,1,3.34.64A21.25,21.25,0,0,1,249,179.48a20.5,20.5,0,0,1,4.24,7.17,25.19,25.19,0,0,1,.85,2.95c.19.89.34,1.73.43,2.5s.15,1.42.19,2.15c0,.44,0,.88,0,1.33.09-.48.16-1,.23-1.45s.17-1.24.22-1.85c0-4-.64-8-2.54-11.08Z"/><path class="cls-11" d="M293.86,125l-36.81,15.5a26.24,26.24,0,0,1,.57,3.07l37.43-15.76.15-.08.62-2A1.51,1.51,0,0,0,293.86,125Z"/><path class="cls-11" d="M216.23,191.46a4.52,4.52,0,0,0-.16.68c0,.08-.18.64-.2.78,3.1-.44,6.2,2,7.12,3.56l-1.27.79a2.43,2.43,0,0,0-.45-.59c-.55-.49-2.24-2.06-3.91-1.76a5.56,5.56,0,0,0-1.26.36,3.34,3.34,0,0,1-.76,3l-.13.15-.06.07,0,0-.88,1-.69.83c-.61.74-1.24,1.51-1.95,2.28a2.2,2.2,0,0,1-.2.23,3.16,3.16,0,0,0-.59.94.74.74,0,0,0,0,.36.76.76,0,0,0,.11.32,1.61,1.61,0,0,0,.44.5h0l.12.09.14.1.13.08a2.29,2.29,0,0,1,.57.35l.31.23a.48.48,0,0,1,.27-.18,11.87,11.87,0,0,1,2.2.25l-.05.14-1.83.77h-.06s0,0,0,0a3.52,3.52,0,0,1-.22,1.14l0,.07a2,2,0,0,0-.09.4c0,.07.1.21.16.35a2.33,2.33,0,0,0,.38.26l.36.15.34.14.08,0a1.09,1.09,0,0,1,.25.09l.25.21.32.84v.07L214,211l-.24-.09-.07,0a1,1,0,0,1-.32-.12l-.31-.12a1.93,1.93,0,0,0-.19.32.6.6,0,0,0-.06.52,2,2,0,0,0,.13.23l.1.17a2.64,2.64,0,0,1,.42,2.54,3.66,3.66,0,0,1-.14.69,3.28,3.28,0,0,0,.42,2.36,2,2,0,0,0,.8.62,4.93,4.93,0,0,0,.76.2h0l.42.06h.07a31.2,31.2,0,0,1,4.06.59l.2,0a1.16,1.16,0,0,1,.38.06l.33,0a89.18,89.18,0,0,0,7.42-13.93,24.34,24.34,0,0,0,1.64-5.33,6.42,6.42,0,0,0,.07-1.27c-.71-.41-1.4-.81-2.09-1.19C223.4,194.87,219.38,192.9,216.23,191.46Z"/><path class="cls-13" d="M295.05,127.76l-37.43,15.76a26.24,26.24,0,0,0-.57-3.07L293.86,125a1.51,1.51,0,0,1,2,.74l1.55-4.91h-.7l-15.22,6.3c-1,1.45-1.6,2.37-1.63,2.4a1,1,0,0,1-.84.45h0a1,1,0,0,1-.85-.49s-.18-.3-.49-.77l-23.25,9.64c2.25,4.24,1.86,14.53,1.73,18.1-.49,12.86-1.79,19.37-3,22.66-4.76-6.21-9.14-8.69-16.16-9.32-.91-.09-1.48.72-2.37,1.93-.25.35-.55.75-.88,1.17l-.93,0h0A12.83,12.83,0,0,0,227,174a19.31,19.31,0,0,0-8.08,6.83l-.11.16c-.11.18-.22.36-.34.54-.32.38-.64.75-.94,1.13-2.29,1.18-8.11,4.29-8.37,4.43a.76.76,0,0,0-.4.73.75.75,0,0,0,.49.66c.08,0,2.17.8,5.57,2.31a4,4,0,0,0-.26,1.08,7.59,7.59,0,0,1-.18,1l-.19.83.14.51.1.43c0,.09.05.19.07.29.28,1.16.26,1.64-.41,2.42.52-.59.46-.51-.07.09-.32.35-.62.7-.91,1.05l-.83,1c-.58.7-1.17,1.4-1.77,2.09h0l-.22.24-.06.07a3.79,3.79,0,0,0-.82,1.38,2.52,2.52,0,0,0-.14,1,2.45,2.45,0,0,0,.22.73,3.1,3.1,0,0,0,.93,1.12l.16.12a2.83,2.83,0,0,0,.46.31l.3.18.08.05c.13.14.17.35.06.69v0l-.12.32a1.33,1.33,0,0,0-.06.62,1.66,1.66,0,0,0,.43,1.23c.43,1,.45,1,0,.08a2.52,2.52,0,0,0-.36,2.23,2.13,2.13,0,0,0,.41.68A5.41,5.41,0,0,1,212,214v.17a6.18,6.18,0,0,0-.12.62,3.89,3.89,0,0,0-.12.49,3.45,3.45,0,0,0,2.25,4.2,4.26,4.26,0,0,0,1,.29l.53.07c1,.14,2.33.66,3.84.89a.87.87,0,0,1,.19,0,2.29,2.29,0,0,1-.16.23,1,1,0,0,0,.21,1.43,1,1,0,0,0,.6.2l.49,0c.11.33.2.67.28.95.69,2.43,1.07,3.6,2,3.72l1.76.24-1.07-1.45a5.54,5.54,0,0,1-.65-1.37c-.13-.44-.29-.89-.44-1.35s-.26-.76-.37-1.14c.15-.21.09-.23.45-.77,0,0,4.12-.38,5.77-.75,2.73-.6,4.63-2.37,4.77-3.16s-1.81,1.2-5.37,1.76a18.28,18.28,0,0,1-3.82.15c2.33-3.67,6.28-10.66,8-15.87a18.46,18.46,0,0,0,.8-3.31c.94.57,1.9,1.19,2.86,1.8a130.19,130.19,0,0,1,12.67,9.13l.09.07-.34,1.1c-4.74,15.17,3,22,4.87,23.36.38,4.08,1,13.72.17,17.07a33.14,33.14,0,0,0-17.52,13.87c-3.77-3.19-9.93-6.12-16.43-9.22-9.54-4.54-19.4-9.23-23.17-15.22-2.93-4.66-4-12.75-4-17.29l.14,0v0a37.41,37.41,0,0,0,9.12-4.23l.16-.09.11-.27q1-2.52,1.89-5l-2.18.89c-.37,1-.75,2-1.17,3a31.44,31.44,0,0,1-9,4l-.71.14v.73c-.07,3.28.57,13.09,4.28,19,4,6.43,14.09,11.24,23.82,15.89,6.87,3.28,13.35,6.38,16.76,9.67l.89.86.54-1.12a31.13,31.13,0,0,1,17.41-14.13l.41-.14.15-.41c1.45-4,.07-18.09,0-18.69l0-.46-.39-.23c-.38-.23-8.84-5.54-4.81-20.26l4,3.07.35-1.31a23.78,23.78,0,0,0,.26-8.68,39.56,39.56,0,0,0,2.87-13.82h0l20.21-8.3,18.08-57.37Zm-65.18,72.05a24.34,24.34,0,0,1-1.64,5.33,89.18,89.18,0,0,1-7.42,13.93l-.33,0a1.16,1.16,0,0,0-.38-.06l-.2,0a31.2,31.2,0,0,0-4.06-.59h-.07l-.42-.06h0a4.93,4.93,0,0,1-.76-.2,2,2,0,0,1-.8-.62,3.28,3.28,0,0,1-.42-2.36,3.66,3.66,0,0,0,.14-.69,2.64,2.64,0,0,0-.42-2.54l-.1-.17a2,2,0,0,1-.13-.23.6.6,0,0,1,.06-.52,1.93,1.93,0,0,1,.19-.32l.31.12a1,1,0,0,0,.32.12l.07,0,.24.09.91-.38v-.07l-.32-.84-.25-.21a1.09,1.09,0,0,0-.25-.09l-.08,0-.34-.14-.36-.15a2.33,2.33,0,0,1-.38-.26c-.06-.14-.12-.28-.16-.35a2,2,0,0,1,.09-.4l0-.07a3.52,3.52,0,0,0,.22-1.14s0,0,0,0h.06l1.83-.77.05-.14a11.87,11.87,0,0,0-2.2-.25.48.48,0,0,0-.27.18l-.31-.23a2.29,2.29,0,0,0-.57-.35l-.13-.08-.14-.1-.12-.09h0a1.61,1.61,0,0,1-.44-.5.76.76,0,0,1-.11-.32.74.74,0,0,1,0-.36,3.16,3.16,0,0,1,.59-.94,2.2,2.2,0,0,0,.2-.23c.71-.77,1.34-1.54,1.95-2.28l.69-.83.88-1,0,0,.06-.07.13-.15a3.34,3.34,0,0,0,.76-3,5.56,5.56,0,0,1,1.26-.36c1.67-.3,3.36,1.27,3.91,1.76a2.43,2.43,0,0,1,.45.59l1.27-.79c-.92-1.61-4-4-7.12-3.56,0-.14.18-.7.2-.78a4.52,4.52,0,0,1,.16-.68c3.15,1.44,7.17,3.41,11.62,5.89.69.38,1.38.78,2.09,1.19A6.42,6.42,0,0,1,229.87,199.81Zm22.66,12.91-.1-.09a126.56,126.56,0,0,0-15-11.28q-2.3-1.48-4.53-2.82c-1.12-.67-2.22-1.32-3.29-1.93a158.54,158.54,0,0,0-18.28-8.9c1.78-.95,4.76-2.54,6.47-3.42l.1.07a127.7,127.7,0,0,1,18.13,9.55c1,.65,2.1,1.32,3.12,2,1.5,1,2.94,2,4.32,3a53.64,53.64,0,0,1,8.52,7.31l.09.07c.05.18.07.37.11.55.07.35.14.71.2,1.08A24.62,24.62,0,0,1,252.53,212.72Zm-.4-9.38a60.69,60.69,0,0,0-6.42-5.38c-1.36-1-2.79-2-4.27-3q-1.51-1-3.09-2a145.59,145.59,0,0,0-16.67-9.18,4.66,4.66,0,0,0,1.33-4l0,0c1.27.58,2.66,0,4.06-3.06a13.37,13.37,0,0,1,3.54-1.41,15.92,15.92,0,0,1,7.75.35,19.13,19.13,0,0,1,9.14,5.3,18.49,18.49,0,0,1,3.85,6.58,22.62,22.62,0,0,1,.82,3c.14.68.26,1.34.33,1.94.11.88.18,1.78.21,2.71A42.07,42.07,0,0,1,252.13,203.34Zm2.89-9.21c-.07.48-.14,1-.23,1.45,0-.45,0-.89,0-1.33,0-.73-.1-1.45-.19-2.15s-.24-1.61-.43-2.5a25.19,25.19,0,0,0-.85-2.95,20.5,20.5,0,0,0-4.24-7.17,21.25,21.25,0,0,0-10.11-5.89,22,22,0,0,0-3.34-.64c.09-.12.19-.25.27-.37a7.9,7.9,0,0,1,1.08-1.31c.13-.09.73.08.9.1s.6.07.9.12c.57.08,1.15.19,1.71.31a18.5,18.5,0,0,1,3.09,1c7.46,3.16,11.5,10.71,11.59,18.58A22,22,0,0,1,255,194.13Zm22.7-14.47-20.87,8.79a23.87,23.87,0,0,0-.54-3.08l20.23-8.52a1.52,1.52,0,1,1,1.18,2.81Zm2.15-33.27-.07,1.38a3.14,3.14,0,0,1-2.19,2.5c-1.91.74-1.88-.93-1.88-.93.1-2.1-.1-3.4-.59-3.91s-1.41-.53-2.71,0l-1.13.43-.59.22a4.42,4.42,0,0,0-.63.29,6.3,6.3,0,0,0-1.14.67,4.7,4.7,0,0,0-1,.93,4.19,4.19,0,0,0-.68,1.37,11.92,11.92,0,0,0-.35,1.62c0,.21,0,.42,0,.63a3.9,3.9,0,0,0-.05.58c-.09,1.8.06,3,.46,3.45s1.17.58,2.32.24a1.58,1.58,0,0,1,.31-.09l.35-.11.82-.24c.28-.1.56-.19.82-.3a12.8,12.8,0,0,1,5.67-.78q2.44.31,2.1,7.37a31.16,31.16,0,0,1-1.26,7.79,9.17,9.17,0,0,1-4.35,5.21c-.69.36-1.38.7-2.07,1s-1.39.64-2.09.94c-2.53,1.06-4.58,1.48-6.15,1.23a2.21,2.21,0,0,1-1.52-1.57,14.59,14.59,0,0,1-.51-5.07c0-.9.09-1.8.13-2.71a3.44,3.44,0,0,1,2.06-2.91c2-.8,2,1.29,2,1.29a17.75,17.75,0,0,0,.2,4.12c.22,1.07.95,1.38,2.21.89.51-.17,1-.38,1.57-.6l1.59-.65a6.59,6.59,0,0,0,2.92-2.13,9,9,0,0,0,1.09-4.57c.11-2.35-.21-3.58-1-3.7a6,6,0,0,0-2.87.46l-.69.28a5.39,5.39,0,0,1-.68.22l-.37.12a2.21,2.21,0,0,1-.33,0q-3.51,1-5.41.26t-1.56-8a20.91,20.91,0,0,1,1.53-7.5,8.75,8.75,0,0,1,4.23-4.34c.6-.29,1.19-.56,1.76-.8s1.16-.48,1.73-.69a13.71,13.71,0,0,1,5.91-1Q280.2,139.57,279.87,146.39Z"/><path class="cls-13" d="M270.72,119.78l-1-1.12H248.59l-.79,1.12-.71,1h24.49Z"/><path class="cls-13" d="M200.11,119.73l-.76-1.07H177.53c-.34.38-.69.75-1,1.12l-.86,1h25.19Z"/><polygon class="cls-13" points="208.31 120.78 239.63 120.78 240.34 119.78 241.13 118.66 206.81 118.66 207.6 119.78 208.31 120.78"/><path class="cls-13" d="M287.2,118.66l-.76,1.12c-.24.33-.46.67-.69,1h11.62l-1.55,4.91,0,.07a1.52,1.52,0,0,1-.66,1.92l-18.08,57.37-52.71,167.3L150.58,120.78h11.08l-.68-1-.77-1.12H147.68l76.74,240.69,75.84-240.69Z"/></svg>