<svg id="logo_couleur" data-name="logo couleur" xmlns="http://www.w3.org/2000/svg" viewBox="0 0 203.33 387.43"><defs><style>.cls-1,.cls-2{fill:none;}.cls-2,.cls-6{stroke:#1b2c3d;}.cls-2{stroke-linecap:round;stroke-linejoin:round;stroke-width:1.05px;}.cls-3,.cls-6{fill:#1b2c3d;}.cls-4{fill:#fff;}.cls-5{fill:#c21515;}.cls-6{stroke-miterlimit:10;stroke-width:0.25px;}</style></defs><title>LOGO SDIS79-Artboard 1 copy360ppi</title><polygon class="cls-1" points="105.25 341.63 187.01 81.8 22.01 81.8 105.25 341.63"/><polygon class="cls-1" points="105.25 341.63 187.01 81.8 22.01 81.8 105.25 341.63"/><polygon class="cls-1" points="85.29 42.75 98.13 54.69 105.25 31.18 112.37 54.69 123.93 42.22 121.05 61.81 112.08 71.43 105.28 62.89 98.79 71.46 87.99 61.81 85.29 42.75"/><line class="cls-2" x1="105.25" y1="31.18" x2="105.28" y2="78.8"/><path class="cls-1" d="M155.84,89.88c1.87,2.32,3.21,4.19,4,5.36,2.29-3.38,8.64-12.72,12.68-18.44a12.75,12.75,0,0,0-3.3-5.53Z"/><path class="cls-1" d="M111.61,57.9A89,89,0,0,1,133,68.69l2.58-3.37C127.47,59.89,117.94,58.3,111.61,57.9Z"/><path class="cls-1" d="M154.51,88.25,167.63,70a10.69,10.69,0,0,0-4.56-1.73H145.4l-4.74,6.18A109.52,109.52,0,0,1,154.51,88.25Z"/><path class="cls-1" d="M155.84,89.88c1.87,2.32,3.21,4.19,4,5.36,2.29-3.38,8.64-12.72,12.68-18.44a12.75,12.75,0,0,0-3.3-5.53Z"/><path class="cls-1" d="M71.1,64.53,70,63.07l-4.12,3.15H69C69.65,65.62,70.37,65.06,71.1,64.53Z"/><path class="cls-1" d="M98.39,57.85c-6.15.28-16,1.7-24.38,7.14l2.77,3.61A106.7,106.7,0,0,1,98.39,57.85Z"/><polyline class="cls-1" points="71.82 74.56 72.58 75.55 76.96 72.2 76.31 71.35"/><path class="cls-1" d="M46,68.26c-.22,0-6.92.59-9.38,8.53,4,5.7,10.34,15,12.65,18.4A92.29,92.29,0,0,1,69,74.19l-4.54-5.93Z"/><path class="cls-1" d="M63.16,66.22a1,1,0,0,1,.39-.79l0,0a2.3,2.3,0,0,1-1.31-.77,2.36,2.36,0,0,1-.49-1.77,5.08,5.08,0,0,1,2-3.21,5,5,0,0,1,3.54-1.27,2.33,2.33,0,0,1,1.63.84A2.36,2.36,0,0,1,69.4,61l.15-.12a1,1,0,0,1,.75-.2A1.08,1.08,0,0,1,71,61l1.79,2.34c13.88-9.13,31-7.57,31.82-7.49a1,1,0,0,1,.2,2A105.58,105.58,0,0,0,78,70.22l1.19,1.55A1,1,0,0,1,79,73.19l-6,4.6a1,1,0,0,1-.61.21h-.14a1,1,0,0,1-.67-.39L70.2,75.8c-1.3,1-2.54,2.06-3.7,3.07H187.14L105.21,31.61,43,67a11.62,11.62,0,0,1,2.9-.74Z"/><path class="cls-1" d="M64.43,68.26H46A10.29,10.29,0,0,0,41.45,70l6.41,8.91H63.47c1.69-1.53,3.51-3.1,5.5-4.68Z"/><path class="cls-1" d="M34.49,76.7A14.48,14.48,0,0,1,39.34,69h0L22,78.88H35.56l-.93-1.3A1,1,0,0,1,34.49,76.7Z"/><polygon class="cls-1" points="70.58 72.95 71.82 74.56 72.58 75.55 76.96 72.2 76.31 71.35 75.08 69.73 72.34 66.15 71.1 64.53 69.98 63.07 65.86 66.22 65.59 66.43 66.99 68.25 70.58 72.95"/><path class="cls-1" d="M54.52,88.14c1.62-1.92,3.57-4.07,5.86-6.34H50Z"/><path class="cls-1" d="M39.86,71.24a12.85,12.85,0,0,0-3.28,5.55L38,78.87h7.31Z"/><path class="cls-1" d="M49.23,95.19c.77-1.18,2.09-3.07,4-5.42l-5.73-8H40.07C43.62,86.93,47.52,92.67,49.23,95.19Z"/><path class="cls-1" d="M98.39,57.85c-6.15.28-16,1.7-24.38,7.14l2.77,3.61A106.7,106.7,0,0,1,98.39,57.85Z"/><path class="cls-1" d="M50.16,97.56a1,1,0,0,1-.85.52h0a1,1,0,0,1-.84-.45c-.08-.11-6-8.86-10.83-15.83H22l83.24,259.83L187,81.8H63.28C54.32,90.31,50.24,97.42,50.16,97.56Z"/><path class="cls-1" d="M169.22,71.27l-5.46,7.6h7.31c.5-.73,1-1.42,1.45-2.07A12.75,12.75,0,0,0,169.22,71.27Z"/><path class="cls-1" d="M159.83,98.09h0a1,1,0,0,1-.84-.49,93.68,93.68,0,0,0-13.19-15.8H63.28q1.52-1.44,3.22-2.93h76.16c-1-.93-2.11-1.87-3.23-2.8l1.23-1.62c1.78,1.48,3.43,3,5,4.42h15.61L167.63,70a10.69,10.69,0,0,0-4.56-1.73H145.4l1.08-1.41a1,1,0,0,0,.19-.63h16.47a13.09,13.09,0,0,1,6.37,2.64.59.59,0,0,1,.14.06s.07.08.11.12a14.43,14.43,0,0,1,4.85,7.66,1,1,0,0,1-.15.87l-.91,1.29h13.59L105.21,31.61,43,67a13.53,13.53,0,0,0-3.42,1.9.67.67,0,0,0-.12.06.52.52,0,0,0-.1.11L22,78.88H35.56l2,2.93H22l83.24,259.83L187,81.8h-15.5c-4.84,7-10.77,15.73-10.84,15.84A1,1,0,0,1,159.83,98.09Z"/><path class="cls-1" d="M154.51,88.25l4.63-6.45H148.65C150.92,84.1,152.87,86.29,154.51,88.25Z"/><path class="cls-1" d="M155.84,89.88c1.87,2.32,3.21,4.19,4,5.36,1.7-2.5,5.63-8.29,9.19-13.44h-7.38Z"/><path class="cls-3" d="M191.61,79,105.74,29.48l-.52-.31L17.3,79l3.28,10.2,84.67,265.18L191.64,79v0ZM187,81.8,105.25,341.63,22,81.8H37.6l-2-2.93H22L39.35,69a.52.52,0,0,1,.1-.11.67.67,0,0,1,.12-.06A13.53,13.53,0,0,1,43,67l62.22-35.35,81.93,47.26H173.55c-.64.91-1.33,1.9-2,2.93Z"/><polygon class="cls-1" points="111.9 104.57 114.83 103.9 130.5 81.8 128.03 81.8 111.9 104.57"/><polygon class="cls-1" points="134.56 76.07 132.91 74.9 130.1 78.87 132.57 78.87 134.56 76.07"/><path class="cls-3" d="M145.77,81.8q-1.47-1.44-3.11-2.93h-7.59L133,81.8Z"/><path class="cls-1" d="M110.87,69l1.25,1.62,7-7.51c-1.4-.65-2.84-1.25-4.31-1.84Z"/><path class="cls-1" d="M90.12,76l-5.44-9.7c-1,.55-2,1.11-3,1.67Z"/><path class="cls-1" d="M109.31,67l.85,1.12,3.67-7.18c-.82-.32-1.64-.62-2.47-.91Z"/><path class="cls-1" d="M104.49,55.86a51.87,51.87,0,0,1,7,0l.33-1.13L105.25,33l-6.57,21.7L99,55.75A49.92,49.92,0,0,1,104.49,55.86Z"/><path class="cls-1" d="M81.78,61.13a42.29,42.29,0,0,0-4.9,2.19l3.32,3.17c1.13-.68,2.28-1.34,3.48-2Z"/><path class="cls-1" d="M86.21,45.49l1.65,11.66c1.51-.34,3-.6,4.37-.8Z"/><path class="cls-1" d="M98.39,57.85c-1.19,0-2.52.15-4,.31l.56,1C96.1,58.71,97.23,58.27,98.39,57.85Z"/><path class="cls-1" d="M97.67,55h0l-10.33-9.6,6,10.82c1.66-.21,3.2-.34,4.57-.4Z"/><path class="cls-1" d="M100.23,68.62l1.06-1.45-2.2-7.39C98,60.16,97,60.55,96,61Z"/><path class="cls-1" d="M132,50l-9.17,7.07-.12.45c1.42.36,2.87.8,4.33,1.31Z"/><path class="cls-1" d="M122.94,45.34l-5.66,11.08c1.26.2,2.57.44,3.92.74Z"/><path class="cls-1" d="M133.23,50l-5.16,9.18a41.47,41.47,0,0,1,5.16,2.34Z"/><path class="cls-1" d="M121.78,45.3,112.84,55l-.28.94c1.13.08,2.35.21,3.63.38Z"/><path class="cls-1" d="M122.2,59.54,121.53,62c1,.49,2,1,2.92,1.49l1.6-2.84C124.75,60.23,123.47,59.86,122.2,59.54Z"/><path class="cls-1" d="M90.86,75.13,88.13,64.47c-.86.43-1.7.87-2.53,1.31Z"/><path class="cls-1" d="M116.28,58.38l-.54,1.07c1.65.66,3.26,1.35,4.82,2.09l.34-2.31C119.3,58.87,117.75,58.59,116.28,58.38Z"/><path class="cls-1" d="M112,57.93l0,.09c1,.33,1.9.67,2.83,1l.41-.81C114,58.1,113,58,112,57.93Z"/><path class="cls-1" d="M118.06,74.88l5.39-9.59c-.8-.43-1.63-.85-2.46-1.26Z"/><path class="cls-1" d="M76,50.81V61.47a44.92,44.92,0,0,1,4.77-2.18Z"/><polygon class="cls-1" points="75.08 69.73 72.34 66.15 71.1 64.53 69.98 63.07 65.86 66.22 65.59 66.43 66.99 68.25 70.58 72.95 71.82 74.56 72.58 75.55 76.96 72.2 76.31 71.35 75.08 69.73"/><path class="cls-1" d="M118.64,76l8.81-8.43c-1-.6-2-1.19-3.08-1.77Z"/><path class="cls-1" d="M100.08,59.42l2,6.69,2.79-3.84a.57.57,0,0,1,.42-.22.51.51,0,0,1,.42.21l2.83,3.67,1.84-6.27c-1.9-.63-3.84-1.21-5.84-1.71C103,58.41,101.53,58.91,100.08,59.42Z"/><path class="cls-1" d="M74,65l2.77,3.61c.81-.52,1.64-1,2.48-1.56l-3.34-3.19C75.28,64.21,74.64,64.59,74,65Z"/><path class="cls-1" d="M86.35,57.49l-9.22-6.77,4.62,8.2c1.55-.56,3.09-1,4.6-1.41Z"/><path class="cls-1" d="M93.31,58.3c-1.62.22-3.36.52-5.15.93l.33,2.32.35.31c1.66-.79,3.39-1.56,5.17-2.3Z"/><path class="cls-1" d="M82.78,60.77,84.6,64c1-.53,2-1,3-1.55l-.75-2.92C85.53,59.87,84.16,60.28,82.78,60.77Z"/><path class="cls-1" d="M98.71,70.69l.31-.41.53-.73L95,61.36c-1.55.63-3.07,1.29-4.53,2Z"/><path class="cls-1" d="M125.37,64c1.24.68,2.43,1.38,3.6,2.09l3-2.89A41,41,0,0,0,127.05,61Z"/><path class="cls-3" d="M111.61,57.9l.33.12,0-.09Z"/><path class="cls-3" d="M118.64,76l5.73-10.2-.92-.5-5.39,9.59L121,64c-.62-.31-1.23-.62-1.87-.92l-7,7.51L110.87,69l3.94-7.73-1-.37-3.67,7.18L109.31,67l2-7c-.33-.12-.67-.22-1-.33l-1.84,6.27-2.83-3.67a.51.51,0,0,0-.42-.21.57.57,0,0,0-.42.22l-2.79,3.84-2-6.69-1,.36,2.2,7.39-1.06,1.45L96,61l-1,.4,4.54,8.19-.53.73-.31.41-8.23-7.36-1,.49,9,8,0,0L104.81,79v0h0s0,0,0,0a.27.27,0,0,0,.07.08l0,0,0,0,0,0h.06l0,0,.15,0h.17a.53.53,0,0,0,.24-.14l6.77-7.38h0L120,63.71l-4,15v0a.2.2,0,0,0,0,.07.49.49,0,0,0,0,.12s0,0,0,.07l.06.12,0,0a.41.41,0,0,0,.14.12h0a.48.48,0,0,0,.26.07.6.6,0,0,0,.23-.06l.06,0,.07,0,11.56-11.06-.93-.56Z"/><path class="cls-3" d="M76,50.81l4.77,8.48,1-.37-4.62-8.2,9.22,6.77v0l1.51-.36L86.21,45.49l6,10.86,1.11-.15-6-10.82L97.67,55h0l.24.81,1.08,0-.31-1.06L105.25,33l6.57,21.7-.33,1.13,1.07.07.28-.94,8.94-9.65-5.59,11,1.09.15,5.66-11.08L121.2,57.16l1.55.37.12-.45L132,50l-5,8.83,1,.37L133.23,50V61.55q.53.27,1.05.57V48s0,0,0,0a.42.42,0,0,0-.06-.21s0,0,0-.05a.56.56,0,0,0-.18-.16H134a.52.52,0,0,0-.21,0h-.06a.64.64,0,0,0-.24.1l-11,8.49,2-13.81a.53.53,0,0,0-.91-.43l-10.93,11.8L105.75,31a.54.54,0,0,0-1,0l-6.88,22.7L85.65,42.37h0a.58.58,0,0,0-.25-.12h0a.46.46,0,0,0-.26,0h0a.46.46,0,0,0-.19.2l0,0a.54.54,0,0,0,0,.28h0L86.7,56.45l-10.81-8-.19-.33A.52.52,0,0,0,75,48a.54.54,0,0,0-.2.72l.15.26V62c.34-.2.69-.39,1-.57Z"/><path class="cls-3" d="M90.86,75.13,85.6,65.78l-.92.49L90.12,76l-8.4-8-.94.55L91.88,79.1l.21.37a.53.53,0,0,0,.46.26.62.62,0,0,0,.26-.06A.54.54,0,0,0,93,79l-.17-.29L89.09,64l-1,.47Z"/><path class="cls-3" d="M89.09,64l.37-.18-.53-.47Z"/><path class="cls-3" d="M39.57,68.86a.67.67,0,0,0-.12.06.52.52,0,0,0-.1.11L43,67A13.53,13.53,0,0,0,39.57,68.86Z"/><path class="cls-3" d="M102.14,166.62l-3.72-2.83c-.11.59-.21,1.1-.33,1.76l.88.19c-.1.65-.2,1.33-.33,2.16Z"/><path class="cls-4" d="M134.89,172.32c-.08.51-.17,1-.27,1.54a1.14,1.14,0,0,1-.15.36c.06.25.11.5.15.76a39.21,39.21,0,0,0,2.63-11.61A57.13,57.13,0,0,1,134.89,172.32Z"/><path class="cls-1" d="M47.84,143.93l15.08,47.45,97.17-41.26,19.58-62.18Zm110.73,3.89L65.7,186.93a1.59,1.59,0,0,1-.59.12,1.52,1.52,0,0,1-1.41-.94,1.53,1.53,0,0,1,.81-2L157.39,145a1.52,1.52,0,0,1,1.18,2.81Zm2.14-33.27-.07,1.38a3.12,3.12,0,0,1-2.19,2.5c-1.9.74-1.87-.93-1.87-.93.1-2.1-.1-3.4-.6-3.91s-1.4-.53-2.71,0l-1.13.43-.58.22a5.1,5.1,0,0,0-.64.29,7.31,7.31,0,0,0-1.14.66,5.24,5.24,0,0,0-1,.94,4.21,4.21,0,0,0-.69,1.37,11.92,11.92,0,0,0-.34,1.62c0,.21,0,.42-.05.63s0,.39,0,.57c-.09,1.81.07,3,.47,3.46s1.17.58,2.31.24a1.81,1.81,0,0,1,.31-.09l.35-.11.82-.24c.29-.1.56-.19.82-.3a12.82,12.82,0,0,1,5.68-.78q2.43.32,2.09,7.37a31.16,31.16,0,0,1-1.26,7.79,9.1,9.1,0,0,1-4.35,5.21c-.68.36-1.37.7-2.07,1s-1.38.64-2.09.94c-2.53,1.06-4.58,1.48-6.15,1.23a2.21,2.21,0,0,1-1.51-1.57,14.36,14.36,0,0,1-.51-5.07c0-.9.08-1.81.12-2.71a3.43,3.43,0,0,1,2.07-2.91c2-.8,2,1.29,2,1.29a17.15,17.15,0,0,0,.21,4.12c.22,1.07,1,1.38,2.2.89.52-.17,1-.38,1.58-.6l1.59-.66a6.49,6.49,0,0,0,2.91-2.13,8.87,8.87,0,0,0,1.09-4.56c.11-2.35-.2-3.58-.95-3.7a6.06,6.06,0,0,0-2.88.46l-.69.28a5.39,5.39,0,0,1-.68.22l-.37.12a2.21,2.21,0,0,1-.33.05c-2.33.68-4.14.77-5.4.26s-1.79-3.18-1.56-8a20.7,20.7,0,0,1,1.53-7.5,8.73,8.73,0,0,1,4.22-4.34c.61-.29,1.19-.56,1.77-.81s1.15-.47,1.72-.68a13.75,13.75,0,0,1,5.91-1Q161,107.73,160.71,114.55Zm15.18-18.63L53.44,147.48a1.52,1.52,0,0,1-.59.12,1.53,1.53,0,0,1-.59-2.94L174.71,93.11a1.52,1.52,0,1,1,1.18,2.81Z"/><path class="cls-1" d="M132.85,174.34C126.41,167,108,156.18,98.76,152.5c0,0-.06,0-.1-.06-1.7.88-4.68,2.47-6.46,3.42,5.59,2.25,25.21,10.77,41.4,25.21a32.93,32.93,0,0,0-.65-6.66Z"/><path class="cls-1" d="M96.91,160.3c0,.08-.17.64-.2.78,3.11-.44,6.2,1.95,7.12,3.56l-1.26.79a2.72,2.72,0,0,0-.45-.59c-.56-.49-2.24-2.06-3.91-1.76a5.29,5.29,0,0,0-1.26.36,3.37,3.37,0,0,1-.76,3l-.14.15-.06.07v0l-.89,1-.69.83c-.61.74-1.24,1.51-1.94,2.28l-.21.23a3.39,3.39,0,0,0-.59.94,1.1,1.1,0,0,0,0,.36,1.38,1.38,0,0,0,.55.82h0l.12.09.14.1.13.08a2.72,2.72,0,0,1,.57.35c.11.08.22.15.31.23a.45.45,0,0,1,.27-.18,11.76,11.76,0,0,1,2.19.25l-.09.29a8,8,0,0,1-1.67.62H94a3.51,3.51,0,0,1-.23,1.17l0,.07a2.9,2.9,0,0,0-.1.4c0,.07.11.21.17.35a2.55,2.55,0,0,0,.38.26l.35.15.35.14.07,0a1,1,0,0,1,.26.09l.25.21.32.84v.78l-1.16-.42-.06,0a.9.9,0,0,1-.32-.12l-.32-.12a1.92,1.92,0,0,0-.18.32.61.61,0,0,0,.06.75l.1.17a2.64,2.64,0,0,1,.43,2.54,6.46,6.46,0,0,1-.14.69,3.23,3.23,0,0,0,.42,2.36,1.86,1.86,0,0,0,.8.62,5.11,5.11,0,0,0,.75.2h0l.41.06h.08a33.05,33.05,0,0,1,4.06.58l.19,0a1.18,1.18,0,0,1,.39.06l.33,0c3.55-5.35,9.45-16.46,9.12-20.53-5.28-3-10.06-5.41-13.7-7.08A5,5,0,0,0,96.91,160.3Z"/><path class="cls-1" d="M115.41,261.26l-6.61,5.8a32,32,0,0,0-3.2-22.12l-.38-.69-.38.69a32,32,0,0,0-3.21,22.12L95,261.26a30.48,30.48,0,0,0,8.6,20.94l-5.88-3.72s1.68,9.79,7.1,11.61a2,2,0,0,0,.38.05,2.12,2.12,0,0,0,.38-.05c5.41-1.82,7.09-11.61,7.09-11.61l-5.87,3.72A30.49,30.49,0,0,0,115.41,261.26Z"/><path class="cls-1" d="M105.32,294.75a3.25,3.25,0,1,0,3.24,3.25A3.24,3.24,0,0,0,105.32,294.75Z"/><path class="cls-1" d="M158.58,107.49a13.75,13.75,0,0,0-5.91,1c-.57.21-1.15.44-1.72.68s-1.16.52-1.77.81a8.73,8.73,0,0,0-4.22,4.34,20.7,20.7,0,0,0-1.53,7.5q-.35,7.18,1.56,8c1.26.51,3.07.42,5.4-.26a2.21,2.21,0,0,0,.33-.05l.37-.12a5.39,5.39,0,0,0,.68-.22l.69-.28a6.06,6.06,0,0,1,2.88-.46c.75.12,1.06,1.35.95,3.7a8.87,8.87,0,0,1-1.09,4.56,6.49,6.49,0,0,1-2.91,2.13l-1.59.66c-.53.22-1.06.43-1.58.6-1.25.49-2,.18-2.2-.89a17.15,17.15,0,0,1-.21-4.12s0-2.09-2-1.29a3.43,3.43,0,0,0-2.07,2.91c0,.9-.1,1.81-.12,2.71a14.36,14.36,0,0,0,.51,5.07,2.21,2.21,0,0,0,1.51,1.57c1.57.25,3.62-.17,6.15-1.23.71-.3,1.41-.61,2.09-.94s1.39-.67,2.07-1a9.1,9.1,0,0,0,4.35-5.21,31.16,31.16,0,0,0,1.26-7.79q.34-7.05-2.09-7.37a12.82,12.82,0,0,0-5.68.78c-.26.11-.53.2-.82.3l-.82.24-.35.11a1.81,1.81,0,0,0-.31.09q-1.71.51-2.31-.24c-.4-.5-.56-1.65-.47-3.46,0-.18,0-.37,0-.57s0-.42.05-.63a11.92,11.92,0,0,1,.34-1.62,4.21,4.21,0,0,1,.69-1.37,5.24,5.24,0,0,1,1-.94,7.31,7.31,0,0,1,1.14-.66,5.1,5.1,0,0,1,.64-.29l.58-.22,1.13-.43c1.31-.49,2.21-.48,2.71,0s.7,1.81.6,3.91c0,0,0,1.67,1.87.93a3.12,3.12,0,0,0,2.19-2.5l.07-1.38Q161,107.73,158.58,107.49Z"/><path class="cls-1" d="M128.38,149a19.18,19.18,0,0,0-9.14-5.3,15.92,15.92,0,0,0-7.75-.35,13.23,13.23,0,0,0-3.54,1.41c-1.41,3.11-2.79,3.64-4.07,3.06l0,0a4.7,4.7,0,0,1-1.34,4c9.21,4.2,23.52,12.72,30.45,19.59a38,38,0,0,0,.41-11A20.74,20.74,0,0,0,128.38,149Z"/><path class="cls-1" d="M117.77,139.43a8,8,0,0,0-1.07,1.31l-.28.37a22.13,22.13,0,0,1,3.35.64,21.22,21.22,0,0,1,10.1,5.89,22.74,22.74,0,0,1,5.53,12.62,32.41,32.41,0,0,1,.24,3.48c1-5.16.88-10.42-1.9-14.3C128.9,142.69,124.72,140.07,117.77,139.43Z"/><path class="cls-3" d="M54.7,87.94h-.32l.14.2Z"/><path class="cls-1" d="M115.41,261.26l-6.61,5.8a32,32,0,0,0-3.2-22.12l-.38-.69-.38.69a32,32,0,0,0-3.21,22.12L95,261.26a30.48,30.48,0,0,0,8.6,20.94l-5.88-3.72s1.68,9.79,7.1,11.61a2,2,0,0,0,.38.05,2.12,2.12,0,0,0,.38-.05c5.41-1.82,7.09-11.61,7.09-11.61l-5.87,3.72A30.49,30.49,0,0,0,115.41,261.26Z"/><path class="cls-1" d="M105.32,294.75a3.25,3.25,0,1,0,3.24,3.25A3.24,3.24,0,0,0,105.32,294.75Z"/><path class="cls-1" d="M132.85,174.34C126.41,167,108,156.18,98.76,152.5c0,0-.06,0-.1-.06-1.7.88-4.68,2.47-6.46,3.42,5.59,2.25,25.21,10.77,41.4,25.21a32.93,32.93,0,0,0-.65-6.66Z"/><path class="cls-1" d="M96.91,160.3c0,.08-.17.64-.2.78,3.11-.44,6.2,1.95,7.12,3.56l-1.26.79a2.72,2.72,0,0,0-.45-.59c-.56-.49-2.24-2.06-3.91-1.76a5.29,5.29,0,0,0-1.26.36,3.37,3.37,0,0,1-.76,3l-.14.15-.06.07v0l-.89,1-.69.83c-.61.74-1.24,1.51-1.94,2.28l-.21.23a3.39,3.39,0,0,0-.59.94,1.1,1.1,0,0,0,0,.36,1.38,1.38,0,0,0,.55.82h0l.12.09.14.1.13.08a2.72,2.72,0,0,1,.57.35c.11.08.22.15.31.23a.45.45,0,0,1,.27-.18,11.76,11.76,0,0,1,2.19.25l-.09.29a8,8,0,0,1-1.67.62H94a3.51,3.51,0,0,1-.23,1.17l0,.07a2.9,2.9,0,0,0-.1.4c0,.07.11.21.17.35a2.55,2.55,0,0,0,.38.26l.35.15.35.14.07,0a1,1,0,0,1,.26.09l.25.21.32.84v.78l-1.16-.42-.06,0a.9.9,0,0,1-.32-.12l-.32-.12a1.92,1.92,0,0,0-.18.32.61.61,0,0,0,.06.75l.1.17a2.64,2.64,0,0,1,.43,2.54,6.46,6.46,0,0,1-.14.69,3.23,3.23,0,0,0,.42,2.36,1.86,1.86,0,0,0,.8.62,5.11,5.11,0,0,0,.75.2h0l.41.06h.08a33.05,33.05,0,0,1,4.06.58l.19,0a1.18,1.18,0,0,1,.39.06l.33,0c3.55-5.35,9.45-16.46,9.12-20.53-5.28-3-10.06-5.41-13.7-7.08A5,5,0,0,0,96.91,160.3Z"/><path class="cls-1" d="M158.58,107.49a13.75,13.75,0,0,0-5.91,1c-.57.21-1.15.44-1.72.68s-1.16.52-1.77.81a8.73,8.73,0,0,0-4.22,4.34,20.7,20.7,0,0,0-1.53,7.5q-.35,7.18,1.56,8c1.26.51,3.07.42,5.4-.26a2.21,2.21,0,0,0,.33-.05l.37-.12a5.39,5.39,0,0,0,.68-.22l.69-.28a6.06,6.06,0,0,1,2.88-.46c.75.12,1.06,1.35.95,3.7a8.87,8.87,0,0,1-1.09,4.56,6.49,6.49,0,0,1-2.91,2.13l-1.59.66c-.53.22-1.06.43-1.58.6-1.25.49-2,.18-2.2-.89a17.15,17.15,0,0,1-.21-4.12s0-2.09-2-1.29a3.43,3.43,0,0,0-2.07,2.91c0,.9-.1,1.81-.12,2.71a14.36,14.36,0,0,0,.51,5.07,2.21,2.21,0,0,0,1.51,1.57c1.57.25,3.62-.17,6.15-1.23.71-.3,1.41-.61,2.09-.94s1.39-.67,2.07-1a9.1,9.1,0,0,0,4.35-5.21,31.16,31.16,0,0,0,1.26-7.79q.34-7.05-2.09-7.37a12.82,12.82,0,0,0-5.68.78c-.26.11-.53.2-.82.3l-.82.24-.35.11a1.81,1.81,0,0,0-.31.09q-1.71.51-2.31-.24c-.4-.5-.56-1.65-.47-3.46,0-.18,0-.37,0-.57s0-.42.05-.63a11.92,11.92,0,0,1,.34-1.62,4.21,4.21,0,0,1,.69-1.37,5.24,5.24,0,0,1,1-.94,7.31,7.31,0,0,1,1.14-.66,5.1,5.1,0,0,1,.64-.29l.58-.22,1.13-.43c1.31-.49,2.21-.48,2.71,0s.7,1.81.6,3.91c0,0,0,1.67,1.87.93a3.12,3.12,0,0,0,2.19-2.5l.07-1.38Q161,107.73,158.58,107.49Z"/><path class="cls-1" d="M128.38,149a19.18,19.18,0,0,0-9.14-5.3,15.92,15.92,0,0,0-7.75-.35,13.23,13.23,0,0,0-3.54,1.41c-1.41,3.11-2.79,3.64-4.07,3.06l0,0a4.7,4.7,0,0,1-1.34,4c9.21,4.2,23.52,12.72,30.45,19.59a38,38,0,0,0,.41-11A20.74,20.74,0,0,0,128.38,149Z"/><path class="cls-3" d="M154.73,87.94h-.49l.27.31Z"/><path class="cls-1" d="M135.06,203.57v0s-4.77-2.8-6.08-9.93C130.27,200.69,135,203.52,135.06,203.57Z"/><path class="cls-1" d="M76.09,116.88c-4.79-8-10.31-15.59-10.77-16.37C65.54,101,71.19,108.72,76.09,116.88Z"/><path class="cls-1" d="M105.32,294.75a3.25,3.25,0,1,0,3.24,3.25A3.24,3.24,0,0,0,105.32,294.75Z"/><path class="cls-1" d="M85.22,177.73a95.42,95.42,0,0,1-3.69,10.54,33.8,33.8,0,0,1-9.67,4.27v0a34,34,0,0,0,9.66-4.28A96,96,0,0,0,85.22,177.73Z"/><path class="cls-1" d="M115.41,261.26l-6.61,5.8a32,32,0,0,0-3.2-22.12l-.38-.69-.38.69a32,32,0,0,0-3.21,22.12L95,261.26a30.48,30.48,0,0,0,8.6,20.94l-5.88-3.72s1.68,9.79,7.1,11.61a2,2,0,0,0,.38.05,2.12,2.12,0,0,0,.38-.05c5.41-1.82,7.09-11.61,7.09-11.61l-5.87,3.72A30.49,30.49,0,0,0,115.41,261.26Z"/><path class="cls-1" d="M158.58,107.49a13.75,13.75,0,0,0-5.91,1c-.57.21-1.15.44-1.72.68s-1.16.52-1.77.81a8.73,8.73,0,0,0-4.22,4.34,20.7,20.7,0,0,0-1.53,7.5q-.35,7.18,1.56,8c1.26.51,3.07.42,5.4-.26a2.21,2.21,0,0,0,.33-.05l.37-.12a5.39,5.39,0,0,0,.68-.22l.69-.28a6.06,6.06,0,0,1,2.88-.46c.75.12,1.06,1.35.95,3.7a8.87,8.87,0,0,1-1.09,4.56,6.49,6.49,0,0,1-2.91,2.13l-1.59.66c-.53.22-1.06.43-1.58.6-1.25.49-2,.18-2.2-.89a17.15,17.15,0,0,1-.21-4.12s0-2.09-2-1.29a3.43,3.43,0,0,0-2.07,2.91c0,.9-.1,1.81-.12,2.71a14.36,14.36,0,0,0,.51,5.07,2.21,2.21,0,0,0,1.51,1.57c1.57.25,3.62-.17,6.15-1.23.71-.3,1.41-.61,2.09-.94s1.39-.67,2.07-1a9.1,9.1,0,0,0,4.35-5.21,31.16,31.16,0,0,0,1.26-7.79q.34-7.05-2.09-7.37a12.82,12.82,0,0,0-5.68.78c-.26.11-.53.2-.82.3l-.82.24-.35.11a1.81,1.81,0,0,0-.31.09q-1.71.51-2.31-.24c-.4-.5-.56-1.65-.47-3.46,0-.18,0-.37,0-.57s0-.42.05-.63a11.92,11.92,0,0,1,.34-1.62,4.21,4.21,0,0,1,.69-1.37,5.24,5.24,0,0,1,1-.94,7.31,7.31,0,0,1,1.14-.66,5.1,5.1,0,0,1,.64-.29l.58-.22,1.13-.43c1.31-.49,2.21-.48,2.71,0s.7,1.81.6,3.91c0,0,0,1.67,1.87.93a3.12,3.12,0,0,0,2.19-2.5l.07-1.38Q161,107.73,158.58,107.49Z"/><path class="cls-3" d="M65.29,100.44l0,.07v0l5.27-5.58s13,7.25,24.14,10.76l0,0C83.5,102.1,70.57,94.85,70.57,94.85Z"/><path class="cls-4" d="M65.29,100.44l0,.07v0l5.27-5.58s13,7.25,24.14,10.76l0,0C83.5,102.1,70.57,94.85,70.57,94.85Z"/><path class="cls-3" d="M82.36,129.26a75.13,75.13,0,0,0-6.27-12.38,75.07,75.07,0,0,1,6.27,12.37c3.09,8.78,9.57,24.75,2.86,48.48C91.94,154,85.46,138,82.36,129.26Z"/><path class="cls-3" d="M135.1,221.77A32.07,32.07,0,0,0,117,236.34c-8.39-8-34.09-14.6-40.9-25.34-3.44-5.43-4.26-14.64-4.19-18.42h0c-.08,3.76.73,13,4.19,18.47,6.82,10.75,32.52,17.37,40.92,25.37a32.06,32.06,0,0,1,18.15-14.58c1.41-3.85,0-18.27,0-18.27h0C135.15,204.44,136.46,218.05,135.1,221.77Z"/><path class="cls-4" d="M135.1,221.77A32.07,32.07,0,0,0,117,236.34c-8.39-8-34.09-14.6-40.9-25.34-3.44-5.43-4.26-14.64-4.19-18.42h0c-.08,3.76.73,13,4.19,18.47,6.82,10.75,32.52,17.37,40.92,25.37a32.06,32.06,0,0,1,18.15-14.58c1.41-3.85,0-18.27,0-18.27h0C135.15,204.44,136.46,218.05,135.1,221.77Z"/><path class="cls-3" d="M91.3,186.63l-1.67-5.46c-1.23,4.19-2.64,7.47-4,9A17.38,17.38,0,0,1,79,193.5l-1.42,1.56c-.88,14.55,11.92,20.07,21.27,24.11,1.38.6,2.69,1.16,3.89,1.73,2.88,1.35,7.67,4,10.83,5.68l1,.57,2.1-.41c2.7-3.24,10.29-8.47,13.4-9.56l1.08-2c-.7-3.1-.6-10-.6-10.05l-.48-1.2a27,27,0,0,1-4.56-6.56c-2.38-5.26-1-14.12-.16-18.08l-3-2.23c-.68,2.86-3.16,14.58,0,21.7a29.68,29.68,0,0,0,4.74,7,70.3,70.3,0,0,0,.44,8.77,53.37,53.37,0,0,0-12.6,9c-3.21-1.75-8-4.34-10.89-5.71-1.25-.59-2.58-1.16-4-1.77-9-3.9-19.25-8.31-19.27-19.59,2.72-.84,6.13-2.8,7.26-4.07A20.27,20.27,0,0,0,91.3,186.63Z"/><path class="cls-3" d="M73.69,105.17c4.17,4,16.28,22.48,18.42,46l3.2-2.38a93.23,93.23,0,0,0-14.65-40.18c5.9,2.64,18.1,5.57,20.56,5.77a30.21,30.21,0,0,0,10.56-.93c4.25-1.19,14.06-1.83,18-1,.26,4,2,18.35-.83,26.48a20.67,20.67,0,0,1,3,1.89l.06-.14c3.87-10.15,1.23-28.91,1.16-29.67L132,109.55c-3.43-1.24-12-1.58-19.18.33-8.66,2.31-14.41.87-14.41.87-9-1.65-16.16-5-22.74-8.27Z"/><polygon class="cls-1" points="81.61 81.8 79.54 78.87 79.53 78.87 76.72 74.9 75.08 76.07 77.06 78.87 77.06 78.87 79.14 81.8 83.44 87.89 85.91 87.88 81.61 81.8"/><path class="cls-1" d="M81.26,163.61V149c0-3-.89-5.25-2.58-6.37s-4.05-1.1-6.88.07l-7.89,3.26a2.42,2.42,0,0,0-1.45,2.15v1.2a1.33,1.33,0,0,0,.57,1.17,1.39,1.39,0,0,0,1.32.09l.91-.37v24.67c0,.2-.08.32-.54.5l-.7.27a2.52,2.52,0,0,0-1.56,2.22V179A1.34,1.34,0,0,0,63,180.2a1.19,1.19,0,0,0,.68.2,1.68,1.68,0,0,0,.67-.14l6.93-2.68A15.31,15.31,0,0,0,81.26,163.61Z"/><path class="cls-1" d="M105.32,294.75a3.25,3.25,0,1,0,3.24,3.25A3.24,3.24,0,0,0,105.32,294.75Z"/><path class="cls-1" d="M113.06,106.39l.85-1.19c-.8.22-1.85.5-3,.77l-.78,1.09Z"/><path class="cls-1" d="M115.41,261.26l-6.61,5.8a32,32,0,0,0-3.2-22.12l-.38-.69-.38.69a32,32,0,0,0-3.21,22.12L95,261.26a30.48,30.48,0,0,0,8.6,20.94l-5.88-3.72s1.68,9.79,7.1,11.61a2,2,0,0,0,.38.05,2.12,2.12,0,0,0,.38-.05c5.41-1.82,7.09-11.61,7.09-11.61l-5.87,3.72A30.49,30.49,0,0,0,115.41,261.26Z"/><polygon class="cls-1" points="130.5 81.8 132.57 78.87 134.56 76.07 132.91 74.9 130.1 78.87 128.03 81.8 123.68 87.94 126.15 87.94 130.5 81.8"/><path class="cls-1" d="M96.91,160.3c0,.08-.17.64-.2.78,3.11-.44,6.2,1.95,7.12,3.56l-1.26.79a2.72,2.72,0,0,0-.45-.59c-.56-.49-2.24-2.06-3.91-1.76a5.29,5.29,0,0,0-1.26.36,3.37,3.37,0,0,1-.76,3l-.14.15-.06.07v0l-.89,1-.69.83c-.61.74-1.24,1.51-1.94,2.28l-.21.23a3.39,3.39,0,0,0-.59.94,1.1,1.1,0,0,0,0,.36,1.38,1.38,0,0,0,.55.82h0l.12.09.14.1.13.08a2.72,2.72,0,0,1,.57.35c.11.08.22.15.31.23a.45.45,0,0,1,.27-.18,11.76,11.76,0,0,1,2.19.25l-.09.29a8,8,0,0,1-1.67.62H94a3.51,3.51,0,0,1-.23,1.17l0,.07a2.9,2.9,0,0,0-.1.4c0,.07.11.21.17.35a2.55,2.55,0,0,0,.38.26l.35.15.35.14.07,0a1,1,0,0,1,.26.09l.25.21.32.84v.78l-1.16-.42-.06,0a.9.9,0,0,1-.32-.12l-.32-.12a1.92,1.92,0,0,0-.18.32.61.61,0,0,0,.06.75l.1.17a2.64,2.64,0,0,1,.43,2.54,6.46,6.46,0,0,1-.14.69,3.23,3.23,0,0,0,.42,2.36,1.86,1.86,0,0,0,.8.62,5.11,5.11,0,0,0,.75.2h0l.41.06h.08a33.05,33.05,0,0,1,4.06.58l.19,0a1.18,1.18,0,0,1,.39.06l.33,0c3.55-5.35,9.45-16.46,9.12-20.53-5.28-3-10.06-5.41-13.7-7.08A5,5,0,0,0,96.91,160.3Z"/><path class="cls-1" d="M158.58,107.49a13.75,13.75,0,0,0-5.91,1c-.57.21-1.15.44-1.72.68s-1.16.52-1.77.81a8.73,8.73,0,0,0-4.22,4.34,20.7,20.7,0,0,0-1.53,7.5q-.35,7.18,1.56,8c1.26.51,3.07.42,5.4-.26a2.21,2.21,0,0,0,.33-.05l.37-.12a5.39,5.39,0,0,0,.68-.22l.69-.28a6.06,6.06,0,0,1,2.88-.46c.75.12,1.06,1.35.95,3.7a8.87,8.87,0,0,1-1.09,4.56,6.49,6.49,0,0,1-2.91,2.13l-1.59.66c-.53.22-1.06.43-1.58.6-1.25.49-2,.18-2.2-.89a17.15,17.15,0,0,1-.21-4.12s0-2.09-2-1.29a3.43,3.43,0,0,0-2.07,2.91c0,.9-.1,1.81-.12,2.71a14.36,14.36,0,0,0,.51,5.07,2.21,2.21,0,0,0,1.51,1.57c1.57.25,3.62-.17,6.15-1.23.71-.3,1.41-.61,2.09-.94s1.39-.67,2.07-1a9.1,9.1,0,0,0,4.35-5.21,31.16,31.16,0,0,0,1.26-7.79q.34-7.05-2.09-7.37a12.82,12.82,0,0,0-5.68.78c-.26.11-.53.2-.82.3l-.82.24-.35.11a1.81,1.81,0,0,0-.31.09q-1.71.51-2.31-.24c-.4-.5-.56-1.65-.47-3.46,0-.18,0-.37,0-.57s0-.42.05-.63a11.92,11.92,0,0,1,.34-1.62,4.21,4.21,0,0,1,.69-1.37,5.24,5.24,0,0,1,1-.94,7.31,7.31,0,0,1,1.14-.66,5.1,5.1,0,0,1,.64-.29l.58-.22,1.13-.43c1.31-.49,2.21-.48,2.71,0s.7,1.81.6,3.91c0,0,0,1.67,1.87.93a3.12,3.12,0,0,0,2.19-2.5l.07-1.38Q161,107.73,158.58,107.49Z"/><path class="cls-1" d="M128.38,149a19.18,19.18,0,0,0-9.14-5.3,15.92,15.92,0,0,0-7.75-.35,13.23,13.23,0,0,0-3.54,1.41c-1.41,3.11-2.79,3.64-4.07,3.06l0,0a4.7,4.7,0,0,1-1.34,4c9.21,4.2,23.52,12.72,30.45,19.59a38,38,0,0,0,.41-11A20.74,20.74,0,0,0,128.38,149Z"/><path class="cls-1" d="M132.85,174.34C126.41,167,108,156.18,98.76,152.5c0,0-.06,0-.1-.06-1.7.88-4.68,2.47-6.46,3.42,5.59,2.25,25.21,10.77,41.4,25.21a32.93,32.93,0,0,0-.65-6.66Z"/><path class="cls-1" d="M117.77,139.43a8,8,0,0,0-1.07,1.31l-.28.37a22.13,22.13,0,0,1,3.35.64,21.22,21.22,0,0,1,10.1,5.89,22.74,22.74,0,0,1,5.53,12.62,32.41,32.41,0,0,1,.24,3.48c1-5.16.88-10.42-1.9-14.3C128.9,142.69,124.72,140.07,117.77,139.43Z"/><path class="cls-1" d="M135.4,160.26a32.41,32.41,0,0,1,.24,3.48,29.94,29.94,0,0,0,.53-6.48l-1.21.5C135.16,158.65,135.3,159.49,135.4,160.26Z"/><path class="cls-1" d="M133,171.5a38,38,0,0,0,.41-11c-.08-.6-.19-1.26-.33-1.94l-10.77,4.53A76,76,0,0,1,133,171.5Z"/><path class="cls-1" d="M133.6,181.07a32.93,32.93,0,0,0-.65-6.66l-.1-.07c-2.7-3.09-7.49-6.77-12.83-10.28l-6.25,2.63A130.66,130.66,0,0,1,133.6,181.07Z"/><path class="cls-1" d="M81.53,188.27a33.8,33.8,0,0,1-9.67,4.27v0h0c-.08,3.76.73,13,4.19,18.47,6.82,10.75,32.52,17.37,40.92,25.37a32.06,32.06,0,0,1,18.15-14.58c1.41-3.85,0-18.27,0-18.27h0v0s-4.77-2.8-6.08-9.93A26.2,26.2,0,0,1,130.16,181l4,3s.05-.19.12-.51a.78.78,0,0,1-.48-.19,126.53,126.53,0,0,0-20.13-14.92c-.58,5.05-5.92,14.65-8.8,19.18a18.3,18.3,0,0,0,3.82-.15c3.56-.56,5.5-2.53,5.37-1.76s-2,2.56-4.77,3.16c-1.65.37-5.77.74-5.77.74-.37.55-.31.57-.46.78.12.38.25.76.37,1.13s.31.92.45,1.36a5.21,5.21,0,0,0,.65,1.37l1.06,1.45-1.75-.24c-.91-.12-1.28-1.29-2-3.72l-.28-.95-.5,0a1,1,0,0,1-.6-.2,1,1,0,0,1-.2-1.43l.16-.23-.2,0c-1.5-.23-2.81-.75-3.83-.89l-.53-.07a4.14,4.14,0,0,1-1-.29,3.46,3.46,0,0,1-2.26-4.2l.12-.5c0-.2.08-.41.13-.61v-.17a4.92,4.92,0,0,0-.19-1.28,2.31,2.31,0,0,1,0-2.91c.42,1,.39.88,0-.08a1.7,1.7,0,0,1-.43-1.23,1.34,1.34,0,0,1,.07-.62c0-.07.07-.19.11-.32v0l-7.46,3.14A95.28,95.28,0,0,1,81.53,188.27Z"/><path class="cls-1" d="M97.08,159.62a5,5,0,0,0-.17.68c0,.08-.17.64-.2.78,3.11-.44,6.2,1.95,7.12,3.56l-1.26.79a2.72,2.72,0,0,0-.45-.59c-.56-.49-2.24-2.06-3.91-1.76a5.29,5.29,0,0,0-1.26.36,3.37,3.37,0,0,1-.76,3l-.14.15-.06.07v0l-.89,1-.69.83c-.61.74-1.24,1.51-1.94,2.28l-.21.23a3.39,3.39,0,0,0-.59.94,1.1,1.1,0,0,0,0,.36,1.21,1.21,0,0,0,.11.32l17-7.14C104.24,163,100.23,161.06,97.08,159.62Z"/><path class="cls-1" d="M133.74,149.44c-4.84-6.75-9-9.37-16-10a8,8,0,0,0-1.07,1.31l-.28.37a22.13,22.13,0,0,1,3.35.64,21.22,21.22,0,0,1,10.1,5.89,20.29,20.29,0,0,1,4.25,7.17l1.65-.7A12.6,12.6,0,0,0,133.74,149.44Z"/><path class="cls-1" d="M95.83,174.37a8,8,0,0,1-1.67.62H94L94,175a3.32,3.32,0,0,1-.23,1.14l0,.07a2.9,2.9,0,0,0-.1.4c0,.07.11.21.17.35a2.55,2.55,0,0,0,.38.26l.35.15.35.14.07,0a1,1,0,0,1,.26.09l.25.21.32.84v.78l-1.16-.42-.06,0a.9.9,0,0,1-.32-.12l-.32-.12a1.92,1.92,0,0,0-.18.32.61.61,0,0,0,.06.75l.1.17a2.64,2.64,0,0,1,.43,2.54,6.46,6.46,0,0,1-.14.69,3.23,3.23,0,0,0,.42,2.36,1.86,1.86,0,0,0,.8.62,5.11,5.11,0,0,0,.75.2h0l.41.06h.08a33.05,33.05,0,0,1,4.06.58l.19,0a1.18,1.18,0,0,1,.39.06l.33,0c3.23-4.87,8.39-14.49,9-19.26l-14.83,6.25Z"/><path class="cls-1" d="M128.38,149a19.18,19.18,0,0,0-9.14-5.3,15.92,15.92,0,0,0-7.75-.35,13.23,13.23,0,0,0-3.54,1.41c-1.41,3.11-2.79,3.64-4.07,3.06l0,0a4.7,4.7,0,0,1-1.34,4,144.82,144.82,0,0,1,16.68,9.18l13-5.49A18.4,18.4,0,0,0,128.38,149Z"/><path class="cls-1" d="M98.76,152.5s-.06,0-.1-.06c-1.7.88-4.68,2.47-6.46,3.42a158.65,158.65,0,0,1,18.27,8.9l6.42-2.7A128.41,128.41,0,0,0,98.76,152.5Z"/><path class="cls-1" d="M115.41,261.26l-6.61,5.8a32,32,0,0,0-3.2-22.12l-.38-.69-.38.69a32,32,0,0,0-3.21,22.12L95,261.26a30.48,30.48,0,0,0,8.6,20.94l-5.88-3.72s1.68,9.79,7.1,11.61a2,2,0,0,0,.38.05,2.12,2.12,0,0,0,.38-.05c5.41-1.82,7.09-11.61,7.09-11.61l-5.87,3.72A30.49,30.49,0,0,0,115.41,261.26Z"/><path class="cls-1" d="M85.91,175.1l4.43-1.86a2.17,2.17,0,0,1-.21-.73,2.51,2.51,0,0,1,.13-1,3.82,3.82,0,0,1,.83-1.38.18.18,0,0,0,0-.07l.22-.24h0c.6-.69,1.19-1.39,1.78-2.09l.83-1q.43-.52.9-1.05c.53-.6.59-.68.08-.09.67-.78.68-1.26.41-2.42,0-.1-.05-.2-.07-.29l-.1-.43-.15-.51.2-.83.1-.46c0-.24.06-.4.08-.54a4.37,4.37,0,0,1,.25-1.08c-3.39-1.51-5.49-2.29-5.56-2.31a.76.76,0,0,1-.5-.66.78.78,0,0,1,.4-.73c.27-.14,6.08-3.25,8.37-4.43.31-.38.62-.76,1-1.13.11-.18.22-.36.34-.54l.11-.16a19.25,19.25,0,0,1,8.08-6.83,12.83,12.83,0,0,1,5.76-1.17h0l.93,0c.33-.42.62-.82.88-1.17.89-1.21,1.46-2,2.37-1.93,7.47.67,11.95,3.44,17.09,10.57,2.4-5.92,3.06-17.57,3.29-23.55a82.08,82.08,0,0,0-.33-13L84.2,134.53A69.33,69.33,0,0,1,85.91,175.1Z"/><path class="cls-1" d="M105.32,294.75a3.25,3.25,0,1,0,3.24,3.25A3.24,3.24,0,0,0,105.32,294.75Z"/><path class="cls-1" d="M158.58,107.49a13.75,13.75,0,0,0-5.91,1c-.57.21-1.15.44-1.72.68s-1.16.52-1.77.81a8.73,8.73,0,0,0-4.22,4.34,20.7,20.7,0,0,0-1.53,7.5q-.35,7.18,1.56,8c1.26.51,3.07.42,5.4-.26a2.21,2.21,0,0,0,.33-.05l.37-.12a5.39,5.39,0,0,0,.68-.22l.69-.28a6.06,6.06,0,0,1,2.88-.46c.75.12,1.06,1.35.95,3.7a8.87,8.87,0,0,1-1.09,4.56,6.49,6.49,0,0,1-2.91,2.13l-1.59.66c-.53.22-1.06.43-1.58.6-1.25.49-2,.18-2.2-.89a17.15,17.15,0,0,1-.21-4.12s0-2.09-2-1.29a3.43,3.43,0,0,0-2.07,2.91c0,.9-.1,1.81-.12,2.71a14.36,14.36,0,0,0,.51,5.07,2.21,2.21,0,0,0,1.51,1.57c1.57.25,3.62-.17,6.15-1.23.71-.3,1.41-.61,2.09-.94s1.39-.67,2.07-1a9.1,9.1,0,0,0,4.35-5.21,31.16,31.16,0,0,0,1.26-7.79q.34-7.05-2.09-7.37a12.82,12.82,0,0,0-5.68.78c-.26.11-.53.2-.82.3l-.82.24-.35.11a1.81,1.81,0,0,0-.31.09q-1.71.51-2.31-.24c-.4-.5-.56-1.65-.47-3.46,0-.18,0-.37,0-.57s0-.42.05-.63a11.92,11.92,0,0,1,.34-1.62,4.21,4.21,0,0,1,.69-1.37,5.24,5.24,0,0,1,1-.94,7.31,7.31,0,0,1,1.14-.66,5.1,5.1,0,0,1,.64-.29l.58-.22,1.13-.43c1.31-.49,2.21-.48,2.71,0s.7,1.81.6,3.91c0,0,0,1.67,1.87.93a3.12,3.12,0,0,0,2.19-2.5l.07-1.38Q161,107.73,158.58,107.49Z"/><path class="cls-1" d="M137.89,111.92a25.19,25.19,0,0,0-.59-3.06L83.2,131.63c.33.91.66,1.87,1,2.9Z"/><path class="cls-1" d="M136.17,157.26a19.11,19.11,0,0,0-.4-3.15l-1.65.7a25.08,25.08,0,0,1,.84,2.95Z"/><path class="cls-1" d="M133.05,158.57a24.29,24.29,0,0,0-.82-3l-13,5.49c1,.66,2.07,1.33,3.08,2Z"/><path class="cls-1" d="M94,175v0l.06,0Z"/><path class="cls-1" d="M120,164.06c-1-.68-2.07-1.35-3.13-2l-6.42,2.7c1.08.61,2.18,1.26,3.3,1.93Z"/><path class="cls-1" d="M92.18,173.15h0l.12.09.14.1.13.08a2.72,2.72,0,0,1,.57.35c.11.08.22.15.31.23a.45.45,0,0,1,.27-.18,11.76,11.76,0,0,1,2.19.25l0,.14L110.71,168a5.74,5.74,0,0,0,.07-1.27c-.7-.41-1.4-.81-2.09-1.19l-17,7.14A1.91,1.91,0,0,0,92.18,173.15Z"/><path class="cls-3" d="M95.83,174.37l0-.15L94,175h.12A8,8,0,0,0,95.83,174.37Z"/><path class="cls-3" d="M115.44,104.8h-.12C115.18,104.84,115.2,104.85,115.44,104.8Z"/><polygon class="cls-1" points="94.8 103.9 97.73 104.57 81.61 81.8 79.14 81.8 94.8 103.9"/><polygon class="cls-1" points="76.72 74.9 75.08 76.07 77.06 78.87 77.06 78.87 79.54 78.87 79.53 78.87 76.72 74.9"/><path class="cls-3" d="M66.5,78.87q-1.71,1.48-3.22,2.93H76.64l-2.07-2.93Z"/><polygon class="cls-3" points="127.61 78.87 82.03 78.87 84.1 81.8 125.53 81.8 127.61 78.87"/><path class="cls-3" d="M98.56,168.35l4.31-1.58-4.58-3.49-.41,2.16,1.08.24C98.84,166.48,98.72,167.32,98.56,168.35Z"/><path class="cls-1" d="M135.87,162.29l-.29.12c0,.44,0,.88.06,1.33C135.72,163.26,135.8,162.77,135.87,162.29Z"/><path class="cls-1" d="M133.59,163.22l-7,2.9A60.69,60.69,0,0,1,133,171.5,42.91,42.91,0,0,0,133.59,163.22Z"/><path class="cls-1" d="M82.41,188.43l-.11.27-.25.16a38.28,38.28,0,0,1-9.17,4.23c0,4.54,1.09,12.63,4,17.29,3.76,6,13.62,10.68,23.16,15.22,6.5,3.1,12.67,6,16.43,9.22A33.19,33.19,0,0,1,134,221c.87-3.35.22-13-.17-17.07-1.89-1.39-9.6-8.19-4.87-23.36l.34-1.1a130.33,130.33,0,0,0-12.75-9.2l-3.67,1.5c-1.72,5.22-5.67,12.21-8,15.88a18.3,18.3,0,0,0,3.82-.15c3.56-.56,5.5-2.53,5.37-1.76s-2,2.56-4.77,3.16c-1.65.37-5.77.74-5.77.74-.37.55-.31.57-.46.78.12.38.25.76.37,1.13s.31.92.45,1.36a5.21,5.21,0,0,0,.65,1.37l1.06,1.45-1.75-.24c-.91-.12-1.28-1.29-2-3.72l-.28-.95-.5,0a1,1,0,0,1-.6-.2,1,1,0,0,1-.2-1.43l.16-.23-.2,0c-1.5-.23-2.81-.75-3.83-.89l-.53-.07a4.14,4.14,0,0,1-1-.29,3.46,3.46,0,0,1-2.26-4.2l.12-.5c0-.2.08-.41.13-.61v-.17a4.92,4.92,0,0,0-.19-1.28,2.09,2.09,0,0,1-.4-.68l-8,3.27C83.73,185.1,83.11,186.75,82.41,188.43Z"/><path class="cls-1" d="M105.32,294.75a3.25,3.25,0,1,0,3.24,3.25A3.24,3.24,0,0,0,105.32,294.75Z"/><path class="cls-1" d="M115.41,261.26l-6.61,5.8a32,32,0,0,0-3.2-22.12l-.38-.69-.38.69a32,32,0,0,0-3.21,22.12L95,261.26a30.48,30.48,0,0,0,8.6,20.94l-5.88-3.72s1.68,9.79,7.1,11.61a2,2,0,0,0,.38.05,2.12,2.12,0,0,0,.38-.05c5.41-1.82,7.09-11.61,7.09-11.61l-5.87,3.72A30.49,30.49,0,0,0,115.41,261.26Z"/><path class="cls-1" d="M93.9,180a2.64,2.64,0,0,1,.43,2.54,6.46,6.46,0,0,1-.14.69,3.23,3.23,0,0,0,.42,2.36,1.77,1.77,0,0,0,.8.61,4.11,4.11,0,0,0,.75.21h0l.41.06h.08a33.05,33.05,0,0,1,4.06.58l.19,0a1.18,1.18,0,0,1,.39.06l.33,0a90.89,90.89,0,0,0,7.42-13.93l-13.3,5.46v.71l-.92-.33-1.18.48a.89.89,0,0,0,.12.24Z"/><path class="cls-1" d="M105.16,108l-.24,0c-10.33.43-30.17-10.26-34-12.4l-4.26,4.56c.2.31.48.72.79,1.16,3.44,5,12.46,18.14,15.64,26.72l52.17-21.62a5.07,5.07,0,0,0-.63-1C132.07,103.09,118.35,103.63,105.16,108Z"/><path class="cls-1" d="M133.25,176c-.08-.56-.18-1.11-.3-1.63l-.1-.07a52.75,52.75,0,0,0-8.52-7.31l-6,2.48a126.6,126.6,0,0,1,15.09,11.37A23.94,23.94,0,0,0,133.25,176Z"/><polygon class="cls-3" points="95.78 178.76 94.86 179.14 95.78 179.47 95.78 178.76"/><path class="cls-1" d="M133.51,149.11l-.26-.42.13-.25c1.26-2.76,2.88-9.15,3.44-23.91.15-3.88.6-15.68-2.34-19.06-2.51-2.41-16.18-1.87-29.31,2.5l-.25,0h-.61C93.91,108,74.79,97.71,71,95.63l-4.26,4.55c.21.31.49.71.78,1.15,3.51,5.11,12.82,18.71,15.8,27.27l.46,1.32c3.67,10.39,10.49,29.72-1.31,58.44l-.11.28-.1.06h0l-.25.16a38.89,38.89,0,0,1-9,4.19c0,4.53,1.09,12.59,4,17.24,3.75,6,13.57,10.68,23.07,15.22,6.47,3.09,12.62,6,16.37,9.21a33.08,33.08,0,0,1,17.44-13.87c.87-3.34.22-13-.17-17-1.88-1.4-9.56-8.2-4.85-23.36l.35-1.1a130.19,130.19,0,0,0-12.67-9.13l1.72-.71a124.69,124.69,0,0,1,15,11.28,24,24,0,0,0-.21-5.47L133,175l0-.07c0-.18-.06-.37-.1-.55l-.1-.07a52.75,52.75,0,0,0-8.52-7.31l2.22-.91A60.69,60.69,0,0,1,133,171.5a42.91,42.91,0,0,0,.62-8.28l2-.81c0,.44,0,.88.06,1.33.08-.48.16-1,.23-1.45l0,0C136.17,157.7,135.71,152.66,133.51,149.11Z"/><path class="cls-1" d="M105.32,294.75a3.25,3.25,0,1,0,3.24,3.25A3.24,3.24,0,0,0,105.32,294.75Z"/><path class="cls-1" d="M115.41,261.26l-6.61,5.8a32,32,0,0,0-3.2-22.12l-.38-.69-.38.69a32,32,0,0,0-3.21,22.12L95,261.26a30.48,30.48,0,0,0,8.6,20.94l-5.88-3.72s1.68,9.79,7.1,11.61a2,2,0,0,0,.38.05,2.12,2.12,0,0,0,.38-.05c5.41-1.82,7.09-11.61,7.09-11.61l-5.87,3.72A30.49,30.49,0,0,0,115.41,261.26Z"/><path class="cls-3" d="M82.3,188.7h0l-.15.09A37.51,37.51,0,0,1,73,193v0a38.89,38.89,0,0,0,9-4.19Z"/><path class="cls-5" d="M167.28,87.94c-1.95,2.84-3.75,5.49-5,7.3l17.34-7.19,0-.11Z"/><path class="cls-5" d="M67.41,101.37c-.31-.44-.59-.85-.79-1.16l4.26-4.56c3.87,2.14,23.71,12.83,34,12.4l.24,0c13.19-4.37,26.91-4.91,29.43-2.5a5.07,5.07,0,0,1,.63,1l23.24-9.64a89,89,0,0,0-6.89-8.89H128.64l-10.72,15.13a87.8,87.8,0,0,0-8.77,1.86l12-17H88.45l12.48,17.63a1,1,0,0,1,.16.38A51.49,51.49,0,0,1,92,103.43L81,87.89l-23.59,0a65,65,0,0,0-7.21,9.62,1,1,0,0,1-.85.52h0a1,1,0,0,1-.84-.45c-.06-.08-3.1-4.58-6.6-9.69H30l17.51,54.91,35.59-14.76C79.87,119.51,70.85,106.38,67.41,101.37Z"/><path class="cls-5" d="M134.89,175.33a23.9,23.9,0,0,1-.27,8.68l-.34,1.31-4-3.07c-4,14.72,4.44,20,4.81,20.26l.39.23.05.46c.06.6,1.43,14.69,0,18.69l-.15.41-.42.14a31,31,0,0,0-17.4,14.13l-.55,1.12-.89-.86c-3.4-3.29-9.89-6.39-16.76-9.67-9.73-4.65-19.79-9.46-23.82-15.89-3.7-5.91-4.34-15.72-4.28-19l0-.73.71-.14a31.44,31.44,0,0,0,9-4c.41-1,.8-2,1.16-3l-18.94,7.79,42.06,131.91,54-171.4-21.51,8.84A40,40,0,0,1,134.89,175.33ZM105.32,301.25a3.25,3.25,0,1,1,3.24-3.25A3.25,3.25,0,0,1,105.32,301.25Zm7.37-22.77s-1.68,9.79-7.09,11.61a2.12,2.12,0,0,1-.38.05,2,2,0,0,1-.38-.05c-5.42-1.82-7.1-11.61-7.1-11.61l5.88,3.72A30.48,30.48,0,0,1,95,261.26l6.61,5.8a32,32,0,0,1,3.21-22.12l.38-.69.38.69a32,32,0,0,1,3.2,22.12l6.61-5.8a30.49,30.49,0,0,1-8.59,20.94Z"/><path class="cls-1" d="M155.84,89.88c1.87,2.32,3.21,4.19,4,5.36.91-1.35,2.48-3.66,4.29-6.3h-7.61Z"/><path class="cls-1" d="M47.46,81.8l-2.11-2.93-5.49-7.63a12.85,12.85,0,0,0-3.28,5.55L38,78.87l2,2.93c1.15,1.66,2.32,3.36,3.45,5h7.54Z"/><polygon class="cls-1" points="81.61 81.8 79.54 78.87 79.53 78.87 76.74 74.93 75.14 76.16 77.06 78.87 77.06 78.87 79.14 81.8 82.69 86.82 85.16 86.82 81.61 81.8"/><path class="cls-1" d="M76.64,81.8l-2.07-2.93h0l-1-1.48-.52.4a1,1,0,0,1-.61.21h-.14a1,1,0,0,1-.67-.39L70.2,75.8c-1.3,1-2.54,2.06-3.7,3.07s-2.21,2-3.22,2.93c-1.84,1.75-3.47,3.44-4.91,5H80.2Z"/><path class="cls-1" d="M133,81.8l-3.55,5h21.13c-1.42-1.59-3-3.28-4.8-5q-1.47-1.44-3.11-2.93c-1-.93-2.11-1.87-3.23-2.8l-1.17,1.53a1.08,1.08,0,0,1-.68.39h-.13a1.08,1.08,0,0,1-.62-.21l-.64-.5-1.12,1.58Z"/><polygon class="cls-1" points="130.5 81.8 132.57 78.87 134.56 76.07 132.91 74.9 130.1 78.87 128.03 81.8 124.47 86.82 126.94 86.82 130.5 81.8"/><path class="cls-1" d="M76.19,72.78,77,72.2l-.65-.85-1.23-1.62-2.74-3.58L71.1,64.53,70,63.07l-4.12,3.15-.27.21L67,68.26,70.58,73l1.24,1.61.76,1,.16-.13a1,1,0,0,1,.33-.42Z"/><path class="cls-1" d="M169,81.8l2-2.93c.5-.73,1-1.42,1.45-2.07a12.75,12.75,0,0,0-3.3-5.53l-5.46,7.6-2.11,2.93-3.61,5h7.54C166.71,85.16,167.89,83.46,169,81.8Z"/><path class="cls-1" d="M60.38,81.8c1-1,2-1.93,3.09-2.93,1.69-1.53,3.51-3.1,5.5-4.68l-4.54-5.93H46A10.29,10.29,0,0,0,41.45,70l6.41,8.91L50,81.8l3.61,5h2.1C57,85.25,58.6,83.57,60.38,81.8Z"/><path class="cls-1" d="M159.14,81.8l2.11-2.93L167.63,70a10.69,10.69,0,0,0-4.56-1.73H145.4l-4.74,6.18c1.78,1.48,3.43,3,5,4.42,1.05,1,2.06,2,3,2.93,1.73,1.76,3.27,3.45,4.63,5h2.25Z"/><path class="cls-1" d="M136.65,75.08l.61.47.59-.76,1.22-1.61,3.76-4.91,1.41-1.84-.26-.2-4.12-3.16-1.39,1.81-1.24,1.62-2.56,3.35-1.24,1.61-.56.74,3.28,2.5.42.3S136.62,75.06,136.65,75.08Z"/><path class="cls-1" d="M82,78.87,84.1,81.8l3.56,5H122l3.55-5,2.08-2.93,3.73-5.28-.51-.4a1,1,0,0,1-.19-1.42l1.12-1.47c-1.09-.74-2.22-1.47-3.38-2.18l-.93-.56c-1-.6-2-1.19-3.08-1.77l-.92-.5c-.8-.43-1.63-.85-2.46-1.26-.62-.31-1.23-.62-1.87-.92-1.4-.65-2.84-1.25-4.31-1.84l-1-.37c-.82-.32-1.64-.62-2.47-.91-.33-.12-.67-.22-1-.33-1.9-.63-3.84-1.21-5.84-1.71-1.52.46-3,1-4.44,1.47l-1,.36C98,60.16,97,60.55,96,61l-1,.4c-1.55.63-3.07,1.29-4.53,2l-1,.49-.53-.47.16.65-1,.47c-.86.43-1.7.87-2.53,1.31l-.92.49c-1,.55-2,1.11-3,1.67l-.94.55c-.94.57-1.87,1.15-2.77,1.73l1.19,1.55A1,1,0,0,1,79,73.19l-.65.5L82,78.87Z"/><path class="cls-1" d="M53.19,89.77l-.6-.83H45c1.79,2.61,3.35,4.9,4.26,6.25C50,94,51.32,92.11,53.19,89.77Z"/><path class="cls-1" d="M79.26,67l.94-.55c1.13-.68,2.28-1.34,3.48-2l.92-.5c1-.53,2-1,3-1.55l1.22-.59c1.66-.79,3.39-1.56,5.17-2.3l1-.4c1.11-.45,2.24-.89,3.4-1.31-1.19,0-2.52.15-4,.31l-1.12.14c-1.62.22-3.36.52-5.15.93l-1.29.3c-1.34.34-2.71.75-4.09,1.24l-1,.36a42.29,42.29,0,0,0-4.9,2.19l-1,.53c-.64.36-1.28.74-1.91,1.14l2.77,3.61C77.59,68.08,78.42,67.56,79.26,67Z"/><path class="cls-1" d="M114.77,59.05l1,.4c1.65.66,3.26,1.35,4.82,2.09l1,.48c1,.49,2,1,2.92,1.49l.92.5c1.24.68,2.43,1.38,3.6,2.09l.92.57c1.06.66,2.1,1.33,3.1,2l2.58-3.37c-.85-.57-1.73-1.1-2.61-1.59l-1-.52A41,41,0,0,0,127.05,61l-1-.37c-1.3-.44-2.58-.81-3.85-1.13l-1.3-.31c-1.6-.36-3.15-.64-4.62-.85l-1.1-.14C114,58.1,113,58,112,57.93l-.35,0,.33.12C112.89,58.35,113.84,58.69,114.77,59.05Z"/><path class="cls-1" d="M159.83,98.09h0a1,1,0,0,1-.84-.49,80.13,80.13,0,0,0-6.53-8.66H127.94l-11,15.5c-.84.17-1.43.3-1.63.36,0,0-.55.17-1.41.4l11.53-16.26H123l-12.06,17c-.76.18-1.55.36-2.34.52a1,1,0,0,1,.13-.92l11.78-16.63H89.16l11.77,16.63a1,1,0,0,1,0,1.16.74.74,0,0,1-.12.13c-.58,0-1.13-.11-1.63-.17L86.65,88.94H84.18l12.25,17.31c-1.06-.34-2.14-.71-3.25-1.12L81.7,88.94H56.51a61.69,61.69,0,0,0-6.35,8.62,1,1,0,0,1-.85.52h0a1,1,0,0,1-.84-.45c0-.07-2.72-4-5.92-8.69H31.43l73.82,231.57,73-231.57H166.6c-3.21,4.68-5.88,8.63-5.93,8.7A1,1,0,0,1,159.83,98.09Z"/><polygon class="cls-3" points="76.72 74.9 75.08 76.07 75.14 76.16 76.74 74.93 76.72 74.9"/><path class="cls-3" d="M113.91,105.2c.86-.23,1.41-.4,1.41-.4.2-.06.79-.19,1.63-.36l11-15.5h-2.5Z"/><path class="cls-3" d="M108.7,105.57a1,1,0,0,0-.13.92c.79-.16,1.58-.34,2.34-.52l12.06-17h-2.49Z"/><path class="cls-3" d="M136.57,75l-.42-.3.5.38S136.6,75,136.57,75Z"/><polygon class="cls-3" points="125.53 81.8 121.98 86.82 124.47 86.82 128.03 81.8 130.1 78.87 132.91 74.9 134.56 76.07 132.57 78.87 130.5 81.8 126.94 86.82 129.44 86.82 132.99 81.8 135.07 78.87 136.19 77.3 131.34 73.59 127.61 78.87 125.53 81.8"/><path class="cls-3" d="M136.81,76.42a1,1,0,0,0-.16-1.34l-.5-.38-2.89-2a1,1,0,0,0-.76-.17,1,1,0,0,0-.66.41l-.5.7,4.85,3.7Z"/><path class="cls-3" d="M93.18,105.13c1.11.41,2.19.78,3.25,1.12L84.18,88.94H81.7Z"/><polygon class="cls-3" points="74.57 78.87 76.64 81.8 80.2 86.82 82.69 86.82 79.14 81.8 77.06 78.87 77.06 78.87 75.14 76.16 73.52 77.39 74.56 78.87 74.57 78.87"/><path class="cls-3" d="M73.07,75a1,1,0,0,0-.33.42l3.45-2.64Z"/><path class="cls-3" d="M99.2,106.69c.5.06,1,.12,1.63.17a.74.74,0,0,0,.12-.13,1,1,0,0,0,0-1.16L89.16,88.94H86.65Z"/><polygon class="cls-3" points="79.53 78.87 79.54 78.87 81.61 81.8 85.16 86.82 87.66 86.82 84.1 81.8 82.03 78.87 82.03 78.87 78.36 73.69 76.74 74.93 79.53 78.87"/><path class="cls-3" d="M75.08,76.07l1.65-1.17v0l1.62-1.24-.56-.8a1,1,0,0,0-1.42-.24l-.19.13-3.45,2.64a1,1,0,0,0,.09,1l.69,1,1.62-1.23Z"/><path class="cls-3" d="M174.61,76.71a14.43,14.43,0,0,0-4.85-7.66s-.06-.09-.11-.12a.59.59,0,0,0-.14-.06,13.09,13.09,0,0,0-6.37-2.64H146.67a1,1,0,0,0-.38-.8l-.25-.19a2.24,2.24,0,0,0,1.12-.83,2.36,2.36,0,0,0,.37-1.8,5.67,5.67,0,0,0-5.79-4.1,2.39,2.39,0,0,0-1.58.94,2.28,2.28,0,0,0-.39,1.2,1,1,0,0,0-.24,0,1,1,0,0,0-.67.39l-2.05,2.68c-.83-.57-1.68-1.09-2.53-1.58q-.53-.3-1.05-.57a41.47,41.47,0,0,0-5.16-2.34l-1-.37c-1.46-.51-2.91-1-4.33-1.31l-1.55-.37c-1.35-.3-2.66-.54-3.92-.74l-1.09-.15c-1.28-.17-2.5-.3-3.63-.38l-1.07-.07a51.87,51.87,0,0,0-7,0h-.1a1,1,0,0,0-.91.94,1,1,0,0,0,.77,1.06l.27.08c2,.5,3.94,1.08,5.84,1.71.33.11.67.21,1,.33.83.29,1.65.59,2.47.91l1,.37c1.47.59,2.91,1.19,4.31,1.84.64.3,1.25.61,1.87.92.83.41,1.66.83,2.46,1.26l.92.5c1,.58,2.08,1.17,3.08,1.77l.93.56c1.16.71,2.29,1.44,3.38,2.18l-1.12,1.47a1,1,0,0,0,.19,1.42l.51.4.5-.7a1,1,0,0,1,.66-.41,1,1,0,0,1,.76.17l2.89,2-3.28-2.5.56-.74,1.24-1.61,2.56-3.35,1.24-1.62,1.39-1.81L144,66.23l.26.2-1.41,1.84-3.76,4.91-1.22,1.61-.59.76-.61-.47a1,1,0,0,1,.16,1.34l-.62.87.64.5a1.08,1.08,0,0,0,.62.21h.13a1.08,1.08,0,0,0,.68-.39l1.17-1.53c1.12.93,2.2,1.87,3.23,2.8s2.13,2,3.11,2.93c1.79,1.74,3.38,3.43,4.8,5,.34.38.68.75,1,1.12l.86,1A80.13,80.13,0,0,1,159,97.6a1,1,0,0,0,.84.49h0a1,1,0,0,0,.84-.45c.05-.07,2.72-4,5.93-8.7l.68-1,.77-1.12c1.16-1.69,2.33-3.4,3.46-5,.71-1,1.4-2,2-2.93l.91-1.29A1,1,0,0,0,174.61,76.71Zm-41.62-8c-1-.69-2-1.36-3.1-2L129,66.1c-1.17-.71-2.36-1.41-3.6-2.09l-.92-.5c-1-.51-1.93-1-2.92-1.49l-1-.48c-1.56-.74-3.17-1.43-4.82-2.09l-1-.4c-.93-.36-1.88-.7-2.83-1l-.33-.12.35,0c1,.07,2.08.17,3.22.31l1.1.14c1.47.21,3,.49,4.62.85l1.3.31c1.27.32,2.55.69,3.85,1.13l1,.37A41,41,0,0,1,132,63.21l1,.52c.88.49,1.76,1,2.61,1.59ZM148.65,81.8c-1-1-2-1.94-3-2.93-1.55-1.46-3.2-2.94-5-4.42l4.74-6.18h17.67A10.69,10.69,0,0,1,167.63,70l-6.38,8.88-2.11,2.93-3.61,5-.8,1.12-.22.31-.27-.31c-.3-.37-.63-.74-1-1.12C151.92,85.25,150.38,83.56,148.65,81.8Zm22.42-2.93-2,2.93c-1.14,1.66-2.32,3.36-3.45,5l-.77,1.12-.68,1c-1.81,2.64-3.38,5-4.29,6.3-.79-1.17-2.13-3-4-5.36l.68-.94.72-1,.8-1.12,3.61-5,2.11-2.93,5.46-7.6a12.75,12.75,0,0,1,3.3,5.53C172.06,77.45,171.57,78.14,171.07,78.87Z"/><path class="cls-3" d="M104.25,57.87a1,1,0,0,1-.77-1.06,1,1,0,0,1,.91-.94h.1a49.92,49.92,0,0,0-5.5-.11l-1.08,0c-1.37.06-2.91.19-4.57.4l-1.11.15c-1.4.2-2.86.46-4.37.8l-1.51.36c-1.51.39-3,.85-4.6,1.41l-1,.37A43,43,0,0,0,76,61.47c-.35.18-.7.37-1,.57-.73.42-1.46.85-2.17,1.32L71,61a1.08,1.08,0,0,0-.68-.39,1,1,0,0,0-.75.2L69.4,61a2.36,2.36,0,0,0-.49-1.72,2.33,2.33,0,0,0-1.63-.84,5,5,0,0,0-3.54,1.27,5.08,5.08,0,0,0-2,3.21,2.36,2.36,0,0,0,.49,1.77,2.3,2.3,0,0,0,1.31.77l0,0a1,1,0,0,0-.39.79H45.89A11.62,11.62,0,0,0,43,67L39.35,69h0a14.48,14.48,0,0,0-4.85,7.67,1,1,0,0,0,.14.87l.93,1.3,2,2.93,3.46,5,.77,1.12.68,1c3.2,4.68,5.87,8.62,5.92,8.69a1,1,0,0,0,.84.45h0a1,1,0,0,0,.85-.52,61.69,61.69,0,0,1,6.35-8.62c.27-.33.56-.66.86-1s.66-.74,1-1.12c1.44-1.58,3.07-3.27,4.91-5q1.52-1.44,3.22-2.93c1.16-1,2.4-2,3.7-3.07l1.38,1.8a1,1,0,0,0,.67.39h.14a1,1,0,0,0,.61-.21l.52-.4-.69-1a1,1,0,0,1-.09-1l-.16.13-.76-1L70.58,73,67,68.26l-1.4-1.83.27-.21L70,63.07l1.12,1.46,1.24,1.62,2.74,3.58,1.23,1.62.65.85-.77.58.19-.13a1,1,0,0,1,1.42.24l.56.8.65-.5a1,1,0,0,0,.19-1.42L78,70.22c.9-.58,1.83-1.16,2.77-1.73l.94-.55c1-.56,2-1.12,3-1.67l.92-.49c.83-.44,1.67-.88,2.53-1.31l1-.47-.16-.65.53.47,1-.49c1.46-.68,3-1.34,4.53-2l1-.4c1-.41,2.05-.8,3.1-1.18l1-.36c1.45-.51,2.92-1,4.44-1.47ZM53.19,89.77c-1.87,2.34-3.19,4.24-4,5.42-.91-1.35-2.47-3.64-4.26-6.25l-.68-1-.77-1.12c-1.13-1.66-2.3-3.36-3.45-5l-2-2.93-1.46-2.08a12.85,12.85,0,0,1,3.28-5.55l5.49,7.63,2.11,2.93,3.6,5,.81,1.12.72,1ZM69,74.19c-2,1.58-3.81,3.15-5.5,4.68-1.09,1-2.13,2-3.09,2.93-1.78,1.77-3.34,3.45-4.71,5-.34.38-.66.76-1,1.12l-.18.2-.14-.2-.81-1.12L50,81.8l-2.1-2.93L41.45,70A10.29,10.29,0,0,1,46,68.26H64.43Zm26-15-1,.4c-1.78.74-3.51,1.51-5.17,2.3l-1.22.59c-1,.51-2,1-3,1.55l-.92.5c-1.2.65-2.35,1.31-3.48,2l-.94.55c-.84.52-1.67,1-2.48,1.56L74,65c.63-.4,1.27-.78,1.91-1.14l1-.53a42.29,42.29,0,0,1,4.9-2.19l1-.36c1.38-.49,2.75-.9,4.09-1.24l1.29-.3c1.79-.41,3.53-.71,5.15-.93l1.12-.14c1.44-.16,2.77-.26,4-.31C97.23,58.27,96.1,58.71,95,59.16Z"/><polygon class="cls-3" points="124.47 86.82 121.98 86.82 121.19 87.94 120.48 88.94 122.97 88.94 123.68 87.94 124.47 86.82"/><polygon class="cls-3" points="129.44 86.82 126.94 86.82 126.15 87.94 125.44 88.94 127.94 88.94 128.64 87.94 129.44 86.82"/><polygon class="cls-3" points="82.69 86.82 80.2 86.82 80.96 87.89 81.7 88.94 84.19 88.94 83.44 87.89 82.69 86.82"/><polygon class="cls-3" points="87.66 86.82 85.16 86.82 85.91 87.88 86.65 88.94 89.16 88.94 88.45 87.94 87.66 86.82"/><path class="cls-1" d="M105.32,302.24a4.17,4.17,0,1,1,4.15-4.17A4.16,4.16,0,0,1,105.32,302.24Z"/><path class="cls-3" d="M105.32,294.82a3.26,3.26,0,1,1-3.24,3.25,3.24,3.24,0,0,1,3.24-3.25m0-1.83a5.09,5.09,0,1,0,5.06,5.08,5.08,5.08,0,0,0-5.06-5.08Z"/><path class="cls-1" d="M105.22,291.12a2.64,2.64,0,0,1-.61-.09c-5.91-2-7.67-11.93-7.74-12.35l-.35-2,2.93,1.86a30.92,30.92,0,0,1-5.31-17.29l.1-1.89,6,5.32a32.87,32.87,0,0,1,3.79-20.21l1.16-2.1,1.18,2.14a32.85,32.85,0,0,1,3.77,20.17l6-5.32.1,1.89A30.92,30.92,0,0,1,111,278.51l2.93-1.86-.35,2c-.07.42-1.83,10.37-7.68,12.33A2.58,2.58,0,0,1,105.22,291.12Z"/><path class="cls-3" d="M105.22,244.23l.38.69a32.15,32.15,0,0,1,3.2,22.16l6.59-5.81a30.68,30.68,0,0,1-8.57,21l5.86-3.73s-1.68,9.81-7.08,11.63a1.47,1.47,0,0,1-.76,0c-5.4-1.82-7.08-11.63-7.08-11.63l5.86,3.73a30.68,30.68,0,0,1-8.57-21l6.59,5.81a32.15,32.15,0,0,1,3.2-22.16l.38-.69m0-3.78-1.59,2.89-.37.66a34,34,0,0,0-4.13,18.43l-2.88-2.54-2.83-2.5-.19,3.78a31.35,31.35,0,0,0,3.53,14.55l-1.49-1,.7,4.06c.19,1.12,2,10.95,8.29,13.05l.06,0,.06,0a3.26,3.26,0,0,0,1.68,0l.06,0,.06,0c6.25-2.1,8.1-11.93,8.29-13.05l.7-4.06-1.49,1a31.35,31.35,0,0,0,3.53-14.55l-.19-3.78-2.83,2.5-2.88,2.54A34,34,0,0,0,107.18,244l-.37-.66-1.59-2.89Z"/><path class="cls-6" d="M133.74,203.81c.39,4.08,1,13.7.17,17a33.08,33.08,0,0,0-17.44,13.87c-3.75-3.18-9.9-6.12-16.37-9.21C90.6,221,80.78,216.27,77,210.29c-2.91-4.65-4-12.71-4-17.24l-.15,0c0,4.54,1.09,12.63,4,17.29,3.76,6,13.62,10.68,23.16,15.22,6.5,3.1,12.67,6,16.43,9.22A33.19,33.19,0,0,1,134,221c.87-3.35.22-13-.17-17.07-1.89-1.39-9.6-8.19-4.87-23.36l.34-1.1-.08-.07-.35,1.1C124.18,195.61,131.86,202.41,133.74,203.81Z"/><path class="cls-6" d="M133.06,175.32a24,24,0,0,1,.21,5.47l.11.09a23.94,23.94,0,0,0-.13-4.84c-.05-.38-.13-.73-.2-1.08l0,.07Z"/><path class="cls-3" d="M82.41,188.43l-.11.27.1-.06.11-.28c11.8-28.72,5-48.05,1.31-58.44l-.46-1.32c-3-8.56-12.29-22.16-15.8-27.27-.29-.44-.57-.84-.78-1.15L71,95.63c3.75,2.08,22.87,12.4,33.27,12.4h.61l.25,0c13.13-4.37,26.8-4.91,29.31-2.5,2.94,3.38,2.49,15.18,2.34,19.06-.56,14.76-2.18,21.15-3.44,23.91l-.07.31.26.42c2.2,3.55,2.6,8.53,2.34,13.1l1.85-.76c.15-4.47-.46-9.12-2.54-12.75,1.82-4.36,3-12.48,3.41-24.16.29-7.64.23-16.86-2.85-20.4-3.78-3.64-19.36-1.87-31,2h-.43c-10.83,0-32.77-12.39-33-12.51l-.61-.35L65,99.44c-.54.56-.51.6,1.08,2.93,3.13,4.58,12.67,18.51,15.58,26.84l.46,1.33c3.44,9.75,9.72,27.57,0,53.83l2.18-.89C83.73,185.1,83.11,186.75,82.41,188.43Z"/><path class="cls-3" d="M83.73,130l-.47-1.32c-.06-.18-.14-.37-.21-.56L47.46,142.85l15.72,49.31,21.12-8.68C93.46,157.47,87.19,139.75,83.73,130Zm-2.47,19v14.64a15.31,15.31,0,0,1-10,14l-6.93,2.68a1.68,1.68,0,0,1-.67.14,1.19,1.19,0,0,1-.68-.2,1.34,1.34,0,0,1-.53-1.16v-1.21A2.52,2.52,0,0,1,64,175.61l.7-.27c.46-.18.54-.3.54-.5V150.17l-.91.37a1.39,1.39,0,0,1-1.32-.09,1.33,1.33,0,0,1-.57-1.17v-1.2a2.42,2.42,0,0,1,1.45-2.15l7.89-3.26c2.83-1.17,5.21-1.19,6.88-.07S81.26,145.93,81.26,149ZM52.85,147.6a1.53,1.53,0,0,1-.59-2.94l30.23-12.72c.32.9.65,1.86,1,2.89l-30,12.65A1.52,1.52,0,0,1,52.85,147.6Zm12.26,39.45a1.52,1.52,0,0,1-1.41-.94,1.53,1.53,0,0,1,.81-2l20.3-8.54c-.32,1.23-.67,2.48-1.06,3.76l-18,7.6A1.59,1.59,0,0,1,65.11,187.05Z"/><path class="cls-3" d="M70.9,172.92a8.7,8.7,0,0,0,5.59-7.82V150.5c0-1.57-.42-2.67-1.2-3.2a2.38,2.38,0,0,0-1.33-.36,5.15,5.15,0,0,0-1.88.42l-1.66.69a.51.51,0,0,0-.39.51v24.7h0Z"/><path class="cls-1" d="M97.08,159.62a5,5,0,0,0-.17.68c0,.08-.17.64-.2.78,3.11-.44,6.2,1.95,7.12,3.56l-1.26.79a2.72,2.72,0,0,0-.45-.59c-.56-.49-2.24-2.06-3.91-1.76a5.29,5.29,0,0,0-1.26.36,3.37,3.37,0,0,1-.76,3l-.14.15-.06.07v0l-.89,1-.69.83c-.61.74-1.24,1.51-1.94,2.28l-.21.23a3.39,3.39,0,0,0-.59.94,1.1,1.1,0,0,0,0,.36,1.21,1.21,0,0,0,.11.32,1.91,1.91,0,0,0,.44.5h0l.12.09.14.1.13.08a2.72,2.72,0,0,1,.57.35c.11.08.22.15.31.23a.45.45,0,0,1,.27-.18,11.76,11.76,0,0,1,2.19.25l0,.14L94,175H94v0a3.32,3.32,0,0,1-.23,1.14l0,.07a2.9,2.9,0,0,0-.1.4c0,.07.11.21.17.35a2.55,2.55,0,0,0,.38.26l.35.15.35.14.07,0a1,1,0,0,1,.26.09l.25.21.32.84v.07l-.92.38-.24-.09-.06,0a.9.9,0,0,1-.32-.12l-.32-.12a1.92,1.92,0,0,0-.18.32.55.55,0,0,0-.06.51.89.89,0,0,0,.12.24l.1.17a2.64,2.64,0,0,1,.43,2.54,6.46,6.46,0,0,1-.14.69,3.23,3.23,0,0,0,.42,2.36,1.77,1.77,0,0,0,.8.61,4.11,4.11,0,0,0,.75.21h0l.41.06h.08a33.05,33.05,0,0,1,4.06.58l.19,0a1.18,1.18,0,0,1,.39.06l.33,0a90.89,90.89,0,0,0,7.42-13.93,24.24,24.24,0,0,0,1.63-5.33,5.74,5.74,0,0,0,.07-1.27c-.7-.41-1.4-.81-2.09-1.19C104.24,163,100.23,161.06,97.08,159.62Z"/><path class="cls-1" d="M158.57,147.82a1.52,1.52,0,0,0-1.18-2.81l-20.23,8.52a25.72,25.72,0,0,1,.54,3.08Z"/><path class="cls-1" d="M175.89,95.92a1.52,1.52,0,1,0-1.18-2.81l-36.81,15.5a31.18,31.18,0,0,1,.57,3.07Z"/><path class="cls-1" d="M158.58,107.49a13.75,13.75,0,0,0-5.91,1c-.57.21-1.15.44-1.72.68s-1.16.52-1.77.81a8.73,8.73,0,0,0-4.22,4.34,20.7,20.7,0,0,0-1.53,7.5q-.35,7.18,1.56,8c1.26.51,3.07.42,5.4-.26a2.21,2.21,0,0,0,.33-.05l.37-.12a5.39,5.39,0,0,0,.68-.22l.69-.28a6.06,6.06,0,0,1,2.88-.46c.75.12,1.06,1.35.95,3.7a8.87,8.87,0,0,1-1.09,4.56,6.41,6.41,0,0,1-2.91,2.13l-1.59.66c-.53.22-1.06.43-1.58.6-1.25.49-2,.18-2.2-.89a17.15,17.15,0,0,1-.21-4.12s0-2.09-2-1.29a3.43,3.43,0,0,0-2.07,2.91c0,.9-.1,1.81-.12,2.71a14.36,14.36,0,0,0,.51,5.07,2.21,2.21,0,0,0,1.51,1.57c1.57.25,3.62-.17,6.15-1.23.71-.3,1.41-.61,2.09-.94s1.39-.67,2.07-1a9.1,9.1,0,0,0,4.35-5.21,31.16,31.16,0,0,0,1.26-7.79q.34-7.05-2.09-7.37a12.82,12.82,0,0,0-5.68.78c-.26.11-.53.2-.82.3l-.82.24-.35.11a1.81,1.81,0,0,0-.31.09q-1.71.51-2.31-.24c-.4-.5-.56-1.65-.47-3.46,0-.18,0-.37,0-.57s0-.42.05-.63a11.92,11.92,0,0,1,.34-1.62,4.21,4.21,0,0,1,.69-1.37,5.24,5.24,0,0,1,1-.94,7.31,7.31,0,0,1,1.14-.66,5.1,5.1,0,0,1,.64-.29l.58-.22,1.13-.43c1.31-.49,2.21-.48,2.71,0s.7,1.81.6,3.91c0,0,0,1.67,1.87.93a3.12,3.12,0,0,0,2.19-2.5l.07-1.38Q161,107.73,158.58,107.49Z"/><path class="cls-1" d="M133.05,175c0-.18-.06-.37-.1-.55l-.1-.07a52.75,52.75,0,0,0-8.52-7.31c-1.38-1-2.82-2-4.31-3-1-.68-2.07-1.35-3.13-2a128.41,128.41,0,0,0-18.13-9.56s-.06,0-.1-.06c-1.7.88-4.68,2.47-6.46,3.42a158.65,158.65,0,0,1,18.27,8.9c1.08.61,2.18,1.26,3.3,1.93,1.48.88,3,1.83,4.52,2.82a124.69,124.69,0,0,1,15,11.28l.11.09a23.94,23.94,0,0,0-.13-4.84C133.2,175.66,133.12,175.31,133.05,175Z"/><path class="cls-1" d="M133.38,160.51c-.08-.6-.19-1.26-.33-1.94a24.29,24.29,0,0,0-.82-3,18.4,18.4,0,0,0-3.85-6.58,19.18,19.18,0,0,0-9.14-5.3,15.92,15.92,0,0,0-7.75-.35,13.23,13.23,0,0,0-3.54,1.41c-1.41,3.11-2.79,3.64-4.07,3.06l0,0a4.67,4.67,0,0,1-1.34,4,144.82,144.82,0,0,1,16.68,9.18c1,.66,2.07,1.33,3.08,2,1.49,1,2.92,2,4.27,3A60.69,60.69,0,0,1,133,171.5a42.91,42.91,0,0,0,.62-8.28C133.56,162.29,133.49,161.39,133.38,160.51Z"/><path class="cls-1" d="M133.29,148.94l0-.07c-4.67-6.32-8.81-8.82-15.55-9.44a8,8,0,0,0-1.07,1.31l-.28.37a22.13,22.13,0,0,1,3.35.64,21.22,21.22,0,0,1,10.1,5.89,20.29,20.29,0,0,1,4.25,7.17,25.08,25.08,0,0,1,.84,2.95c.2.89.34,1.73.44,2.5s.14,1.42.18,2.15c0,.44,0,.88.06,1.33.08-.48.16-1,.23-1.45s.16-1.24.22-1.85c0-4-.64-8-2.55-11.08Z"/><polygon class="cls-3" points="136.96 161.84 137.76 161.51 137.76 161.51 136.96 161.84"/><path class="cls-1" d="M133.05,175c0-.18-.06-.37-.1-.55l-.1-.07a52.75,52.75,0,0,0-8.52-7.31c-1.38-1-2.82-2-4.31-3-1-.68-2.07-1.35-3.13-2a128.41,128.41,0,0,0-18.13-9.56s-.06,0-.1-.06c-1.7.88-4.68,2.47-6.46,3.42a158.65,158.65,0,0,1,18.27,8.9c1.08.61,2.18,1.26,3.3,1.93,1.48.88,3,1.83,4.52,2.82a124.69,124.69,0,0,1,15,11.28l.11.09a23.94,23.94,0,0,0-.13-4.84C133.2,175.66,133.12,175.31,133.05,175Z"/><path class="cls-1" d="M158.58,107.49a13.75,13.75,0,0,0-5.91,1c-.57.21-1.15.44-1.72.68s-1.16.52-1.77.81a8.73,8.73,0,0,0-4.22,4.34,20.7,20.7,0,0,0-1.53,7.5q-.35,7.18,1.56,8c1.26.51,3.07.42,5.4-.26a2.21,2.21,0,0,0,.33-.05l.37-.12a5.39,5.39,0,0,0,.68-.22l.69-.28a6.06,6.06,0,0,1,2.88-.46c.75.12,1.06,1.35.95,3.7a8.87,8.87,0,0,1-1.09,4.56,6.41,6.41,0,0,1-2.91,2.13l-1.59.66c-.53.22-1.06.43-1.58.6-1.25.49-2,.18-2.2-.89a17.15,17.15,0,0,1-.21-4.12s0-2.09-2-1.29a3.43,3.43,0,0,0-2.07,2.91c0,.9-.1,1.81-.12,2.71a14.36,14.36,0,0,0,.51,5.07,2.21,2.21,0,0,0,1.51,1.57c1.57.25,3.62-.17,6.15-1.23.71-.3,1.41-.61,2.09-.94s1.39-.67,2.07-1a9.1,9.1,0,0,0,4.35-5.21,31.16,31.16,0,0,0,1.26-7.79q.34-7.05-2.09-7.37a12.82,12.82,0,0,0-5.68.78c-.26.11-.53.2-.82.3l-.82.24-.35.11a1.81,1.81,0,0,0-.31.09q-1.71.51-2.31-.24c-.4-.5-.56-1.65-.47-3.46,0-.18,0-.37,0-.57s0-.42.05-.63a11.92,11.92,0,0,1,.34-1.62,4.21,4.21,0,0,1,.69-1.37,5.24,5.24,0,0,1,1-.94,7.31,7.31,0,0,1,1.14-.66,5.1,5.1,0,0,1,.64-.29l.58-.22,1.13-.43c1.31-.49,2.21-.48,2.71,0s.7,1.81.6,3.91c0,0,0,1.67,1.87.93a3.12,3.12,0,0,0,2.19-2.5l.07-1.38Q161,107.73,158.58,107.49Z"/><path class="cls-1" d="M157.39,145l-20.23,8.52a25.72,25.72,0,0,1,.54,3.08l20.87-8.79a1.52,1.52,0,0,0-1.18-2.81Z"/><path class="cls-1" d="M133.38,160.51c-.08-.6-.19-1.26-.33-1.94a24.29,24.29,0,0,0-.82-3,18.4,18.4,0,0,0-3.85-6.58,19.18,19.18,0,0,0-9.14-5.3,15.92,15.92,0,0,0-7.75-.35,13.23,13.23,0,0,0-3.54,1.41c-1.41,3.11-2.79,3.64-4.07,3.06l0,0a4.67,4.67,0,0,1-1.34,4,144.82,144.82,0,0,1,16.68,9.18c1,.66,2.07,1.33,3.08,2,1.49,1,2.92,2,4.27,3A60.69,60.69,0,0,1,133,171.5a42.91,42.91,0,0,0,.62-8.28C133.56,162.29,133.49,161.39,133.38,160.51Z"/><path class="cls-1" d="M133.29,148.94l0-.07c-4.67-6.32-8.81-8.82-15.55-9.44a8,8,0,0,0-1.07,1.31l-.28.37a22.13,22.13,0,0,1,3.35.64,21.22,21.22,0,0,1,10.1,5.89,20.29,20.29,0,0,1,4.25,7.17,25.08,25.08,0,0,1,.84,2.95c.2.89.34,1.73.44,2.5s.14,1.42.18,2.15c0,.44,0,.88.06,1.33.08-.48.16-1,.23-1.45s.16-1.24.22-1.85c0-4-.64-8-2.55-11.08Z"/><path class="cls-1" d="M174.71,93.11l-36.81,15.5a31.18,31.18,0,0,1,.57,3.07l37.42-15.76a.71.71,0,0,0,.15-.08l.63-2A1.51,1.51,0,0,0,174.71,93.11Z"/><path class="cls-1" d="M97.08,159.62a5,5,0,0,0-.17.68c0,.08-.17.64-.2.78,3.11-.44,6.2,1.95,7.12,3.56l-1.26.79a2.72,2.72,0,0,0-.45-.59c-.56-.49-2.24-2.06-3.91-1.76a5.29,5.29,0,0,0-1.26.36,3.37,3.37,0,0,1-.76,3l-.14.15-.06.07v0l-.89,1-.69.83c-.61.74-1.24,1.51-1.94,2.28l-.21.23a3.39,3.39,0,0,0-.59.94,1.1,1.1,0,0,0,0,.36,1.21,1.21,0,0,0,.11.32,1.91,1.91,0,0,0,.44.5h0l.12.09.14.1.13.08a2.72,2.72,0,0,1,.57.35c.11.08.22.15.31.23a.45.45,0,0,1,.27-.18,11.76,11.76,0,0,1,2.19.25l0,.14L94,175H94v0a3.32,3.32,0,0,1-.23,1.14l0,.07a2.9,2.9,0,0,0-.1.4c0,.07.11.21.17.35a2.55,2.55,0,0,0,.38.26l.35.15.35.14.07,0a1,1,0,0,1,.26.09l.25.21.32.84v.07l-.92.38-.24-.09-.06,0a.9.9,0,0,1-.32-.12l-.32-.12a1.92,1.92,0,0,0-.18.32.55.55,0,0,0-.06.51.89.89,0,0,0,.12.24l.1.17a2.64,2.64,0,0,1,.43,2.54,6.46,6.46,0,0,1-.14.69,3.23,3.23,0,0,0,.42,2.36,1.77,1.77,0,0,0,.8.61,4.11,4.11,0,0,0,.75.21h0l.41.06h.08a33.05,33.05,0,0,1,4.06.58l.19,0a1.18,1.18,0,0,1,.39.06l.33,0a90.89,90.89,0,0,0,7.42-13.93,24.24,24.24,0,0,0,1.63-5.33,5.74,5.74,0,0,0,.07-1.27c-.7-.41-1.4-.81-2.09-1.19C104.24,163,100.23,161.06,97.08,159.62Z"/><path class="cls-3" d="M175.89,95.92l-37.42,15.76a31.18,31.18,0,0,0-.57-3.07l36.81-15.5a1.51,1.51,0,0,1,2,.74l1.55-4.91h-.71l-15.21,6.3c-1,1.45-1.61,2.36-1.63,2.4a1,1,0,0,1-.84.45h0a1,1,0,0,1-.84-.49l-.5-.77-23.24,9.64c2.25,4.24,1.86,14.53,1.72,18.1-.49,12.86-1.78,19.36-2.94,22.66-4.77-6.21-9.15-8.69-16.16-9.32-.91-.09-1.48.72-2.37,1.93-.26.35-.55.75-.88,1.17l-.93,0h0a12.83,12.83,0,0,0-5.76,1.17A19.25,19.25,0,0,0,99.79,149l-.11.16-.34.53c-.33.38-.64.76-1,1.14-2.29,1.18-8.1,4.29-8.37,4.43a.78.78,0,0,0-.4.73.76.76,0,0,0,.5.66c.07,0,2.17.8,5.56,2.31a4.27,4.27,0,0,0-.25,1.08c0,.14,0,.3-.08.54l-.1.46-.2.83.15.51.1.43c0,.09,0,.19.07.29.27,1.16.26,1.64-.41,2.42.51-.59.45-.51-.08.09q-.47.53-.9,1.05l-.83,1c-.59.7-1.18,1.4-1.78,2.09h0l-.22.24a.18.18,0,0,1,0,.07,3.82,3.82,0,0,0-.83,1.38,2.51,2.51,0,0,0-.13,1,2.17,2.17,0,0,0,.21.73,3.13,3.13,0,0,0,.94,1.12l.16.12a2,2,0,0,0,.45.3l.31.19.08.05c.13.14.16.35.06.69v0c0,.13-.09.25-.11.32a1.32,1.32,0,0,0-.07.62,1.7,1.7,0,0,0,.43,1.23c.43,1,.46,1,0,.08a2.52,2.52,0,0,0-.36,2.23,2.09,2.09,0,0,0,.4.68,4.92,4.92,0,0,1,.19,1.28v.17c0,.2-.1.41-.13.61l-.12.5a3.46,3.46,0,0,0,2.26,4.2,4.14,4.14,0,0,0,1,.29l.53.07c1,.14,2.33.66,3.83.89l.2,0-.16.23a1,1,0,0,0,.2,1.43,1,1,0,0,0,.6.2l.5,0,.28.95c.69,2.43,1.06,3.6,2,3.72l1.75.24-1.06-1.45a5.21,5.21,0,0,1-.65-1.37c-.14-.44-.29-.89-.45-1.36s-.25-.75-.37-1.13c.15-.21.09-.23.46-.78,0,0,4.12-.37,5.77-.74,2.72-.6,4.63-2.37,4.77-3.16s-1.81,1.2-5.37,1.76a18.3,18.3,0,0,1-3.82.15c2.33-3.67,6.28-10.66,8-15.88a16.65,16.65,0,0,0,.8-3.3c.94.57,1.91,1.19,2.87,1.8a130.19,130.19,0,0,1,12.67,9.13l.08.07-.34,1.1c-4.73,15.17,3,22,4.87,23.36.39,4.08,1,13.72.17,17.07a33.19,33.19,0,0,0-17.52,13.87c-3.76-3.19-9.93-6.12-16.43-9.22-9.54-4.54-19.4-9.23-23.16-15.22-2.94-4.66-4-12.75-4-17.29l.15,0v0a37.51,37.51,0,0,0,9.13-4.23l.15-.09.11-.27c.7-1.68,1.32-3.33,1.89-5l-2.18.89c-.36,1-.75,2-1.16,3a31.44,31.44,0,0,1-9,4l-.71.14,0,.73c-.06,3.28.58,13.09,4.28,19,4,6.43,14.09,11.24,23.82,15.89,6.87,3.28,13.36,6.38,16.76,9.67l.89.86.55-1.12a31,31,0,0,1,17.4-14.13l.42-.14.15-.41c1.44-4,.07-18.09,0-18.69l-.05-.46-.39-.23c-.37-.23-8.84-5.54-4.81-20.26l4,3.07.34-1.31a23.9,23.9,0,0,0,.27-8.68,40,40,0,0,0,2.87-13.82h0l20.21-8.3L176,95.84A.71.71,0,0,1,175.89,95.92ZM110.71,168a24.24,24.24,0,0,1-1.63,5.33,90.89,90.89,0,0,1-7.42,13.93l-.33,0a1.18,1.18,0,0,0-.39-.06l-.19,0a33.05,33.05,0,0,0-4.06-.58h-.08l-.41-.06h0a4.11,4.11,0,0,1-.75-.21,1.77,1.77,0,0,1-.8-.61,3.23,3.23,0,0,1-.42-2.36,6.46,6.46,0,0,0,.14-.69A2.64,2.64,0,0,0,93.9,180l-.1-.17a.89.89,0,0,1-.12-.24.55.55,0,0,1,.06-.51,1.92,1.92,0,0,1,.18-.32l.32.12a.9.9,0,0,0,.32.12l.06,0,.24.09.92-.38v-.07l-.32-.84-.25-.21a1,1,0,0,0-.26-.09l-.07,0-.35-.14-.35-.15a2.55,2.55,0,0,1-.38-.26c-.06-.14-.13-.28-.17-.35a2.9,2.9,0,0,1,.1-.4l0-.07A3.32,3.32,0,0,0,94,175v0H94l1.84-.77,0-.14a11.76,11.76,0,0,0-2.19-.25.45.45,0,0,0-.27.18c-.09-.08-.2-.15-.31-.23a2.72,2.72,0,0,0-.57-.35l-.13-.08-.14-.1-.12-.09h0a1.91,1.91,0,0,1-.44-.5,1.21,1.21,0,0,1-.11-.32,1.1,1.1,0,0,1,0-.36,3.39,3.39,0,0,1,.59-.94l.21-.23c.7-.77,1.33-1.54,1.94-2.28l.69-.83.89-1v0l.06-.07.14-.15a3.37,3.37,0,0,0,.76-3,5.29,5.29,0,0,1,1.26-.36c1.67-.3,3.35,1.27,3.91,1.76a2.72,2.72,0,0,1,.45.59l1.26-.79c-.92-1.61-4-4-7.12-3.56,0-.14.19-.7.2-.78a5,5,0,0,1,.17-.68c3.15,1.44,7.16,3.41,11.61,5.89.69.38,1.39.78,2.09,1.19A5.74,5.74,0,0,1,110.71,168Zm22.67,12.91-.11-.09a124.69,124.69,0,0,0-15-11.28c-1.52-1-3-1.94-4.52-2.82-1.12-.67-2.22-1.32-3.3-1.93a158.65,158.65,0,0,0-18.27-8.9c1.78-1,4.76-2.54,6.46-3.42,0,0,.06.05.1.06a128.41,128.41,0,0,1,18.13,9.56c1.06.65,2.1,1.32,3.13,2,1.49,1,2.93,2,4.31,3a52.75,52.75,0,0,1,8.52,7.31l.1.07c0,.18.06.37.1.55.07.35.15.7.2,1.08A23.94,23.94,0,0,1,133.38,180.88ZM133,171.5a60.69,60.69,0,0,0-6.42-5.38c-1.35-1-2.78-2-4.27-3-1-.68-2-1.35-3.08-2a144.82,144.82,0,0,0-16.68-9.18,4.67,4.67,0,0,0,1.34-4l0,0c1.28.58,2.66,0,4.07-3.06a13.23,13.23,0,0,1,3.54-1.41,15.92,15.92,0,0,1,7.75.35,19.18,19.18,0,0,1,9.14,5.3,18.4,18.4,0,0,1,3.85,6.58,24.29,24.29,0,0,1,.82,3c.14.68.25,1.34.33,1.94.11.88.18,1.78.21,2.71A42.91,42.91,0,0,1,133,171.5Zm2.9-9.21c-.07.48-.15,1-.23,1.45,0-.45,0-.89-.06-1.33,0-.73-.09-1.45-.18-2.15s-.24-1.61-.44-2.5a25.08,25.08,0,0,0-.84-2.95,20.29,20.29,0,0,0-4.25-7.17,21.22,21.22,0,0,0-10.1-5.89,22.13,22.13,0,0,0-3.35-.64l.28-.37a8,8,0,0,1,1.07-1.31c.14-.09.74.08.9.09l.91.13c.57.08,1.14.18,1.71.31a18.8,18.8,0,0,1,3.09,1c7.45,3.16,11.49,10.71,11.58,18.58A22.28,22.28,0,0,1,135.87,162.29Zm22.7-14.47-20.87,8.79a25.72,25.72,0,0,0-.54-3.08L157.39,145a1.52,1.52,0,0,1,1.18,2.81Zm2.14-33.27-.07,1.38a3.12,3.12,0,0,1-2.19,2.5c-1.9.74-1.87-.93-1.87-.93.1-2.1-.1-3.4-.6-3.91s-1.4-.53-2.71,0l-1.13.43-.58.22a5.1,5.1,0,0,0-.64.29,7.31,7.31,0,0,0-1.14.66,5.24,5.24,0,0,0-1,.94,4.21,4.21,0,0,0-.69,1.37,11.92,11.92,0,0,0-.34,1.62c0,.21,0,.42-.05.63s0,.39,0,.57c-.09,1.81.07,3,.47,3.46s1.17.58,2.31.24a1.81,1.81,0,0,1,.31-.09l.35-.11.82-.24c.29-.1.56-.19.82-.3a12.82,12.82,0,0,1,5.68-.78q2.43.32,2.09,7.37a31.16,31.16,0,0,1-1.26,7.79,9.1,9.1,0,0,1-4.35,5.21c-.68.36-1.37.7-2.07,1s-1.38.64-2.09.94c-2.53,1.06-4.58,1.48-6.15,1.23a2.21,2.21,0,0,1-1.51-1.57,14.36,14.36,0,0,1-.51-5.07c0-.9.08-1.81.12-2.71a3.43,3.43,0,0,1,2.07-2.91c2-.8,2,1.29,2,1.29a17.15,17.15,0,0,0,.21,4.12c.22,1.07,1,1.38,2.2.89.52-.17,1-.38,1.58-.6l1.59-.66a6.41,6.41,0,0,0,2.91-2.13,8.87,8.87,0,0,0,1.09-4.56c.11-2.35-.2-3.58-.95-3.7a6.06,6.06,0,0,0-2.88.46l-.69.28a5.39,5.39,0,0,1-.68.22l-.37.12a2.21,2.21,0,0,1-.33.05c-2.33.68-4.14.77-5.4.26s-1.79-3.18-1.56-8a20.7,20.7,0,0,1,1.53-7.5,8.73,8.73,0,0,1,4.22-4.34c.61-.29,1.19-.56,1.77-.81s1.15-.47,1.72-.68a13.75,13.75,0,0,1,5.91-1Q161,107.73,160.71,114.55Z"/><path class="cls-3" d="M151.57,87.94c-.32-.37-.66-.74-1-1.12H129.44l-.8,1.12-.7,1h24.49Z"/><path class="cls-3" d="M81,87.89l-.76-1.07H58.37c-.34.38-.68.75-1,1.12s-.59.67-.86,1H81.7Z"/><polygon class="cls-3" points="89.16 88.94 120.48 88.94 121.19 87.94 121.98 86.82 87.66 86.82 88.45 87.94 89.16 88.94"/><path class="cls-3" d="M168.05,86.82l-.77,1.12-.68,1h11.62l-1.55,4.91a.43.43,0,0,1,0,.07,1.53,1.53,0,0,1-.67,1.92L158,153.21l-52.72,167.3L31.43,88.94H42.51l-.68-1-.77-1.12H28.53l76.73,240.69L181.1,86.82Z"/></svg>